<svg width="83" height="79" viewBox="0 0 83 79" fill="none" xmlns="http://www.w3.org/2000/svg">
<g id="Icon">
<path d="M2.84606 45.2586C1.99132 44.1297 1.76405 42.6355 2.23616 41.2488L13.869 7.07939C14.49 5.25549 16.1958 3.96397 18.1198 3.86109L54.1636 1.93373C55.6264 1.85551 57.0029 2.47959 57.8576 3.60854L80.7007 33.7798C82.8883 36.6691 82.1987 40.8761 79.1605 43.1764L35.1512 76.4964C32.113 78.7967 27.8767 78.3192 25.6892 75.4299L2.84606 45.2586Z" stroke="white" stroke-opacity="0.2" stroke-width="2"/>
<path d="M45.8104 30.5626C48.6857 34.3604 47.938 39.77 44.1402 42.6453C40.3425 45.5206 34.9328 44.7729 32.0575 40.9751C29.1822 37.1774 29.9299 31.7678 33.7277 28.8924C37.5254 26.0171 42.9351 26.7648 45.8104 30.5626Z" stroke="white" stroke-opacity="0.2" stroke-width="2"/>
</g>
</svg>
