<svg width="360" height="394" viewBox="0 0 360 394" fill="none" xmlns="http://www.w3.org/2000/svg">
<g filter="url(#filter0_d_8_575)">
<mask id="mask0_8_575" style="mask-type:alpha" maskUnits="userSpaceOnUse" x="0" y="0" width="360" height="360">
<path d="M360 357.897L360 3.05176e-05L3.14722e-05 -9.54624e-07L0 360C109 357.897 102.77 305.31 184.5 306.667C261.947 307.953 238.5 347.383 360 357.897Z" fill="#1B262C"/>
</mask>
<g mask="url(#mask0_8_575)">
<rect x="3.05176e-05" width="360" height="641" fill="#1B262C"/>
<g opacity="1">
<path d="M232.118 201.015L182.068 291.845C181.648 292.665 181.268 293.505 180.938 294.365L140.948 396.915L161.488 399.455L192.398 349.555C197.348 341.065 202.548 334.135 204.428 324.485L210.158 301.395L278.868 219.055L232.128 201.015H232.118Z" fill="#FFB99F"/>
<path d="M220.928 209.095L183.888 274.765C195.298 285.625 210.478 293.785 230.068 295.825C246.298 281.925 264.258 247.735 281.788 213.305L220.918 209.105L220.928 209.095Z" fill="#00344E"/>
<path d="M224.068 209.315C220.748 216.105 217.278 222.825 213.648 229.455C206.738 242.075 199.288 254.385 191.318 266.355C189.228 269.495 187.088 272.615 184.918 275.705C185.188 275.955 185.458 276.205 185.728 276.455C191.578 268.105 197.188 259.575 202.518 250.875C210.028 238.605 217.008 226.015 223.418 213.145C224.038 211.895 224.648 210.645 225.258 209.395L224.068 209.315Z" fill="#94D3D3"/>
<path d="M336.848 330.615C332.078 321.405 325.338 313.355 317.108 307.035L312.748 303.685L307.038 199.075L259.118 210.165L279.568 301.495C280.448 307.145 282.718 312.485 286.168 317.045L343.088 396.015L366.088 396.625L336.848 330.605V330.615Z" fill="#FFB99F"/>
<path d="M366.088 396.635L343.098 396.025L323.008 368.165L322.218 367.065L319.238 362.945L318.428 361.825L315.848 358.235L347.318 354.235L349.998 360.295L350.498 361.425L352.008 364.835L352.508 365.955L366.088 396.635Z" fill="#94D3D3"/>
<path d="M247.658 211.975L260.798 293.075C280.458 299.165 300.728 300.005 318.188 286.185C316.958 259.335 313.588 232.915 306.988 207.135L247.658 211.985V211.975Z" fill="#00344E"/>
<path d="M302.968 265.545C300.938 248.835 298.108 232.235 294.458 215.805C293.898 213.295 293.328 210.795 292.728 208.305L291.608 208.395C293.908 218.075 295.948 227.825 297.688 237.625C300.628 254.185 302.758 270.885 304.058 287.655C304.218 289.765 304.368 291.875 304.508 293.995C304.868 293.855 305.218 293.715 305.578 293.565C304.958 284.205 304.088 274.855 302.958 265.545H302.968Z" fill="#94D3D3"/>
<path d="M309.198 267.755C307.028 250.205 304.088 232.755 300.358 215.465C299.808 212.915 299.238 210.365 298.658 207.815L297.538 207.905C299.858 218.025 301.928 228.195 303.718 238.425C306.758 255.835 309.028 273.375 310.508 290.985C310.508 291.065 310.518 291.155 310.528 291.235C310.878 291.045 311.228 290.865 311.578 290.665C310.938 283.015 310.148 275.375 309.208 267.745L309.198 267.755Z" fill="#94D3D3"/>
<path d="M268.228 256.245L266.688 253.955C266.338 253.435 265.688 253.245 265.108 253.455C263.638 250.635 262.328 247.735 261.638 244.625C260.758 240.655 261.078 236.485 262.448 232.675C263.228 230.515 264.358 228.475 265.778 226.675C266.218 226.125 265.438 225.335 264.998 225.895C262.388 229.195 260.728 233.135 260.208 237.315C259.648 241.745 260.558 246.065 262.298 250.145C262.848 251.445 263.468 252.715 264.128 253.965C263.578 254.355 263.378 255.095 263.708 255.705L265.068 258.205C265.448 258.895 266.338 259.125 266.998 258.705L267.838 258.165C268.488 257.755 268.668 256.885 268.238 256.245H268.228Z" fill="#94D3D3"/>
<path d="M261.078 223.705C260.648 228.435 256.308 231.585 252.188 233.105C247.518 234.825 242.468 235.285 237.978 237.515C236.648 238.175 235.428 239.005 234.338 239.995C233.798 239.745 233.148 239.855 232.738 240.335L230.888 242.495C230.378 243.095 230.478 244.005 231.118 244.475L231.918 245.065C232.538 245.525 233.408 245.385 233.848 244.755L235.428 242.495C235.818 241.935 235.738 241.175 235.238 240.705L235.208 240.675C238.108 238.125 242.108 236.965 245.808 236.045C250.558 234.865 255.578 233.725 259.108 230.075C260.808 228.325 261.958 226.145 262.188 223.705C262.248 222.995 261.148 223.005 261.078 223.705Z" fill="#94D3D3"/>
<path d="M235.358 111.835L205.128 166.645L155.118 154.155L150.628 166.645L204.248 186.095C210.628 188.405 217.728 185.685 220.918 179.695L252.858 119.865L235.338 111.835H235.358Z" fill="#FFB99F"/>
<path d="M147.978 142.555L148.438 142.025C150.368 139.795 153.968 140.375 155.098 143.105L156.208 145.795L158.328 150.935C158.908 152.335 159.228 153.835 159.268 155.355L159.398 160.025L154.208 168.015C148.008 167.005 138.118 162.725 133.428 159.675C130.688 158.385 130.388 154.405 132.188 151.975C132.348 151.765 132.508 151.585 132.678 151.445C131.158 149.915 132.678 145.985 134.898 146.645C132.738 144.915 134.758 141.725 136.948 142.215L137.068 141.955C136.078 140.835 135.998 139.155 136.928 137.945C136.938 137.925 136.958 137.915 136.968 137.895C138.148 136.375 144.268 138.985 145.598 140.385L147.968 142.575L147.978 142.555Z" fill="#FFB99F"/>
<path d="M176.708 33.1151C159.448 28.0051 141.308 37.8451 136.188 55.1051C132.788 66.5551 134.278 84.1551 140.698 96.2051C145.288 104.805 147.828 115.435 145.058 124.785L142.348 133.935L150.918 136.475L153.628 127.325C156.398 117.975 163.968 110.345 172.498 105.635C184.448 99.0451 195.288 85.0951 198.688 73.6451C203.808 56.3851 193.968 38.2451 176.708 33.1251V33.1151ZM165.788 100.945L156.148 112.095C155.938 112.335 155.608 112.435 155.298 112.345L151.448 111.205C151.148 111.115 150.918 110.865 150.878 110.545L148.578 95.9051C148.458 95.1651 149.318 94.6751 149.898 95.1551C154.238 98.7151 159.288 100.235 165.088 99.6051C165.828 99.5251 166.278 100.385 165.788 100.945Z" fill="#1D4297"/>
<path d="M192.498 70.8151C188.438 84.5051 172.698 96.8351 159.008 92.7751C145.318 88.7151 138.848 69.7951 142.908 56.1051C146.968 42.4151 161.358 34.6051 175.058 38.6651C188.758 42.7251 196.558 57.1151 192.498 70.8151Z" fill="#94D3D3"/>
<path d="M167.058 47.5651C166.708 48.7551 165.458 49.4351 164.268 49.0751C163.078 48.7251 162.398 47.4751 162.758 46.2851C163.108 45.0951 164.358 44.4151 165.548 44.7751C166.738 45.1251 167.418 46.3751 167.058 47.5651Z" fill="#15324F"/>
<path d="M174.138 49.6652C173.788 50.8552 172.538 51.5352 171.348 51.1752C170.158 50.8252 169.478 49.5752 169.838 48.3852C170.198 47.1952 171.438 46.5152 172.628 46.8752C173.818 47.2352 174.498 48.4752 174.138 49.6652Z" fill="#15324F"/>
<path d="M181.208 51.7651C180.858 52.9551 179.608 53.6351 178.418 53.2751C177.228 52.9251 176.548 51.6751 176.908 50.4851C177.268 49.2951 178.508 48.6151 179.698 48.9751C180.888 49.3351 181.568 50.5751 181.208 51.7651Z" fill="#15324F"/>
<path d="M158.008 52.1452C157.658 53.3352 156.408 54.0152 155.218 53.6552C154.028 53.2952 153.348 52.0552 153.708 50.8652C154.068 49.6752 155.308 48.9952 156.498 49.3552C157.688 49.7052 158.368 50.9552 158.008 52.1452Z" fill="#15324F"/>
<path d="M165.078 54.2451C164.728 55.4351 163.478 56.1151 162.288 55.7551C161.098 55.3951 160.418 54.1551 160.778 52.9651C161.128 51.7751 162.378 51.0951 163.568 51.4551C164.758 51.8051 165.438 53.0551 165.078 54.2451Z" fill="#15324F"/>
<path d="M172.158 56.3452C171.808 57.5352 170.558 58.2152 169.368 57.8552C168.178 57.5052 167.498 56.2551 167.858 55.0651C168.208 53.8751 169.458 53.1951 170.648 53.5551C171.838 53.9051 172.518 55.1552 172.158 56.3452Z" fill="#15324F"/>
<path d="M179.228 58.445C178.878 59.635 177.628 60.315 176.438 59.955C175.248 59.605 174.568 58.355 174.928 57.165C175.278 55.975 176.528 55.295 177.718 55.655C178.908 56.015 179.588 57.255 179.228 58.445Z" fill="#15324F"/>
<path d="M186.308 60.5451C185.958 61.7351 184.708 62.4151 183.518 62.0551C182.328 61.7051 181.648 60.4551 182.008 59.2651C182.358 58.0751 183.608 57.3951 184.798 57.7551C185.988 58.1051 186.668 59.3551 186.308 60.5451Z" fill="#15324F"/>
<path d="M156.028 58.8251C155.678 60.0151 154.428 60.6951 153.238 60.3351C152.048 59.9851 151.368 58.7351 151.728 57.5451C152.078 56.3551 153.328 55.6751 154.518 56.0351C155.708 56.3851 156.388 57.6351 156.028 58.8251Z" fill="#15324F"/>
<path d="M163.098 60.9252C162.748 62.1152 161.498 62.7952 160.308 62.4352C159.118 62.0852 158.438 60.8352 158.798 59.6452C159.148 58.4552 160.398 57.7752 161.588 58.1352C162.778 58.4852 163.458 59.7352 163.098 60.9252Z" fill="#15324F"/>
<path d="M170.178 63.0151C169.828 64.2051 168.578 64.8851 167.388 64.5251C166.198 64.1751 165.518 62.9251 165.878 61.7351C166.228 60.5451 167.478 59.8651 168.668 60.2251C169.858 60.5751 170.538 61.8251 170.178 63.0151Z" fill="#15324F"/>
<path d="M177.248 65.1152C176.898 66.3052 175.648 66.9852 174.458 66.6252C173.268 66.2752 172.588 65.0252 172.948 63.8352C173.308 62.6452 174.548 61.9652 175.738 62.3252C176.928 62.6852 177.608 63.9252 177.248 65.1152Z" fill="#15324F"/>
<path d="M184.328 67.215C183.978 68.405 182.728 69.085 181.538 68.725C180.348 68.375 179.668 67.125 180.028 65.935C180.388 64.745 181.628 64.065 182.818 64.425C184.008 64.775 184.688 66.025 184.328 67.215Z" fill="#15324F"/>
<path d="M154.048 65.4951C153.698 66.6851 152.448 67.3651 151.258 67.0051C150.068 66.6551 149.388 65.4051 149.748 64.2151C150.098 63.0251 151.348 62.3451 152.538 62.7051C153.728 63.0651 154.408 64.3051 154.048 65.4951Z" fill="#15324F"/>
<path d="M161.118 67.5951C160.768 68.7851 159.518 69.4651 158.328 69.1051C157.138 68.7551 156.458 67.5051 156.818 66.3151C157.168 65.1251 158.418 64.4451 159.608 64.8051C160.798 65.1551 161.478 66.4051 161.118 67.5951Z" fill="#15324F"/>
<path d="M168.198 69.695C167.848 70.885 166.598 71.565 165.408 71.205C164.218 70.855 163.538 69.605 163.898 68.415C164.248 67.225 165.498 66.545 166.688 66.905C167.878 67.255 168.558 68.505 168.198 69.695Z" fill="#15324F"/>
<path d="M175.268 71.7951C174.918 72.9851 173.668 73.6651 172.478 73.3051C171.288 72.9551 170.608 71.7051 170.968 70.5151C171.318 69.3251 172.568 68.6451 173.758 69.0051C174.948 69.3551 175.628 70.6051 175.268 71.7951Z" fill="#15324F"/>
<path d="M182.348 73.8952C181.998 75.0852 180.748 75.7652 179.558 75.4052C178.368 75.0552 177.688 73.8052 178.048 72.6152C178.398 71.4252 179.648 70.7452 180.838 71.1052C182.028 71.4652 182.708 72.7052 182.348 73.8952Z" fill="#15324F"/>
<path d="M152.068 72.1752C151.718 73.3652 150.468 74.0452 149.278 73.6852C148.088 73.3352 147.408 72.0852 147.768 70.8952C148.118 69.7052 149.368 69.0252 150.558 69.3852C151.748 69.7352 152.428 70.9852 152.068 72.1752Z" fill="#15324F"/>
<path d="M159.138 74.2751C158.788 75.4651 157.538 76.1451 156.348 75.7851C155.158 75.4351 154.478 74.1851 154.838 72.9951C155.188 71.8051 156.438 71.1251 157.628 71.4851C158.818 71.8351 159.498 73.0851 159.138 74.2751Z" fill="#15324F"/>
<path d="M166.218 76.3752C165.868 77.5652 164.618 78.2452 163.428 77.8852C162.238 77.5352 161.558 76.2852 161.918 75.0952C162.268 73.9052 163.518 73.2252 164.708 73.5852C165.898 73.9352 166.578 75.1852 166.218 76.3752Z" fill="#15324F"/>
<path d="M173.288 78.475C172.938 79.665 171.688 80.345 170.498 79.985C169.308 79.635 168.628 78.385 168.988 77.195C169.338 76.005 170.588 75.325 171.778 75.685C172.968 76.035 173.648 77.285 173.288 78.475Z" fill="#15324F"/>
<path d="M180.368 80.5651C180.018 81.7551 178.768 82.4351 177.578 82.0751C176.388 81.7251 175.708 80.4751 176.068 79.2851C176.418 78.0951 177.668 77.4151 178.858 77.7751C180.048 78.1351 180.728 79.3751 180.368 80.5651Z" fill="#15324F"/>
<path d="M157.158 80.945C156.808 82.135 155.558 82.815 154.368 82.455C153.178 82.105 152.498 80.855 152.858 79.665C153.218 78.475 154.458 77.795 155.648 78.155C156.838 78.515 157.518 79.755 157.158 80.945Z" fill="#15324F"/>
<path d="M164.238 83.0451C163.888 84.2351 162.638 84.9151 161.448 84.5551C160.258 84.2051 159.578 82.9551 159.938 81.7651C160.298 80.5751 161.538 79.8951 162.728 80.2551C163.918 80.6051 164.598 81.8551 164.238 83.0451Z" fill="#15324F"/>
<path d="M171.308 85.1452C170.958 86.3352 169.708 87.0152 168.518 86.6552C167.328 86.3052 166.648 85.0552 167.008 83.8652C167.358 82.6752 168.608 81.9952 169.798 82.3552C170.988 82.7052 171.668 83.9552 171.308 85.1452Z" fill="#15324F"/>
<path d="M144.317 121.659L155.582 125L143.07 167.184C142.542 168.967 140.664 169.985 138.881 169.456L134.078 168.032C132.295 167.503 131.277 165.626 131.805 163.842L144.317 121.659Z" fill="#15324F"/>
<path d="M138.828 140.155L150.158 143.295L150.468 142.245L139.138 139.095L138.828 140.155Z" fill="#54809E"/>
<path d="M147.358 152.725L147.688 151.625C147.608 151.605 147.528 151.575 147.448 151.545C143.778 150.435 140.108 149.335 136.438 148.225L136.128 149.285C137.208 149.615 138.288 149.935 139.358 150.255C142.028 151.055 144.688 151.905 147.368 152.715L147.358 152.725Z" fill="#54809E"/>
<path d="M144.758 161.505L145.068 160.455C141.258 159.535 137.488 158.445 133.788 157.175L133.478 158.215C137.188 159.485 140.948 160.585 144.758 161.505Z" fill="#54809E"/>
<path d="M141.578 130.895C145.348 131.945 149.128 132.995 152.898 134.045L153.208 132.985C149.438 131.935 145.658 130.885 141.888 129.835L141.578 130.895Z" fill="#54809E"/>
<path d="M152.068 141.515C152.068 141.515 144.468 141.665 144.328 143.885C144.198 146.105 149.068 149.415 150.898 148.675C152.718 147.935 155.308 146.685 155.308 146.685L152.068 141.505V141.515Z" fill="#FFB99F"/>
<path d="M138.928 138.555C138.928 138.555 148.838 143.245 147.338 145.935C145.838 148.625 140.478 145.895 140.478 145.895C140.478 145.895 145.718 147.705 144.658 149.885C143.598 152.065 138.658 150.675 138.658 150.675C138.658 150.675 143.678 151.945 142.568 154.295C141.458 156.645 136.958 155.135 136.958 155.135C136.958 155.135 142.018 156.215 140.868 158.085C139.718 159.955 132.778 157.635 132.778 157.635C132.778 157.635 135.518 144.745 138.928 138.555Z" fill="#FFB99F"/>
<path d="M160.368 154.245L155.308 169.265L170.948 175.025L176.428 158.815L160.368 154.245Z" fill="#94D3D3"/>
<path d="M234.758 106.085L206.548 157.025C214.428 167.685 225.528 172.945 239.968 172.575L260.028 117.325L234.748 106.085H234.758Z" fill="#15324F"/>
<path d="M212.288 146.655L210.628 149.655C219.498 157.865 230.468 163.665 242.228 166.425L243.368 163.315C231.748 160.675 220.938 154.865 212.278 146.665L212.288 146.655Z" fill="#94D3D3"/>
<path d="M291.048 109.015C282.778 103.845 272.268 100.865 260.508 99.1352C251.168 98.7952 242.408 100.485 234.748 106.085C239.258 140.465 227.578 180.185 216.928 209.095C246.758 229.185 278.508 247.015 301.118 237.745L302.588 228.955L307.018 234.545C308.728 233.375 310.368 232.005 311.928 230.425C314.458 195.185 304.828 138.985 291.028 109.015H291.048Z" fill="#94D3D3"/>
<path d="M297.398 234.595C282.298 238.815 266.678 233.755 253.108 227.085C240.688 220.975 229.128 213.155 218.808 203.935C218.938 203.555 219.078 203.175 219.208 202.795C224.418 207.475 229.918 211.815 235.728 215.735C242.008 219.975 248.608 223.745 255.448 226.995C262.528 230.355 269.958 233.145 277.718 234.395C284.728 235.525 291.948 235.255 298.718 233.045C299.878 232.665 301.018 232.215 302.138 231.725L301.918 233.015C300.438 233.635 298.928 234.175 297.388 234.605L297.398 234.595ZM312.178 226.435C312.198 225.905 312.218 225.375 312.238 224.835C309.868 227.255 307.088 229.245 304.068 230.795L304.768 231.675C307.468 230.265 309.968 228.515 312.178 226.435Z" fill="#94D3D3"/>
<path d="M248.178 97.615C248.178 97.615 255.218 93.675 264.648 95.075C274.078 96.475 276.678 99.635 276.678 99.635V104.665L249.048 103.575L248.178 97.615Z" fill="white"/>
<path d="M238.418 68.4451C238.418 68.4451 234.108 46.9851 237.518 43.6251C240.928 40.2651 260.638 34.0451 270.978 37.4251C281.318 40.8051 284.028 41.3151 285.898 46.7051C287.768 52.1051 285.538 66.1851 285.538 66.1851L238.418 68.4351V68.4451Z" fill="#001627"/>
<path d="M280.998 46.8552C276.948 40.8352 269.338 38.8952 261.678 39.0152C254.018 39.1352 246.468 41.2852 242.598 47.4152C234.748 59.8552 238.418 84.1052 249.088 92.0552C252.848 94.8552 257.748 96.1352 262.518 96.0652C267.288 95.9952 272.148 94.5752 275.818 91.6652C286.248 83.3952 289.208 59.0552 280.998 46.8552Z" fill="#FFB99F"/>
<path d="M277.358 90.2451L262.438 91.3651L247.488 90.6851C252.438 93.6351 252.238 103.435 252.238 103.435C254.718 106.075 262.648 105.955 262.648 105.955C262.648 105.955 270.568 105.835 272.978 103.135C272.978 103.135 272.488 93.3351 277.358 90.2451Z" fill="#FFB99F"/>
<path d="M263.598 64.9051C263.568 64.6851 263.368 64.5251 263.138 64.5351C262.898 64.5451 262.708 64.7551 262.718 64.9951C262.788 66.5451 262.628 68.0951 262.288 69.5851C262.098 69.5351 261.858 69.4751 261.558 69.4351C261.238 69.4051 260.888 69.4051 260.508 69.5451C260.128 69.6751 259.708 70.0351 259.548 70.4451C259.388 70.8551 259.398 71.2051 259.438 71.5051C259.478 71.7951 259.548 72.0651 259.658 72.3251C259.858 72.8451 260.178 73.3151 260.588 73.6651C260.718 73.7751 260.908 73.8051 261.078 73.7251C261.298 73.6151 261.398 73.3451 261.288 73.1251V73.1051C261.098 72.7251 260.978 72.3451 260.918 71.9651C260.868 71.5951 260.838 71.1751 260.918 71.1251C260.968 71.0951 260.978 71.1051 261.038 71.0751C261.098 71.0651 261.228 71.0451 261.378 71.0751C261.678 71.0951 262.208 71.2951 262.928 71.1951H263.008C263.298 71.1451 263.548 70.9151 263.588 70.6051C263.888 68.7051 263.888 66.7751 263.588 64.9051H263.598Z" fill="#C16B5B"/>
<path d="M266.678 77.8951C267.338 77.7151 268.048 77.4951 268.688 77.7451C269.458 78.0451 269.818 78.9451 269.888 79.7651C270.018 81.5851 269.018 83.3851 267.528 84.4451C266.038 85.5051 264.138 85.8851 262.318 85.7651C260.438 85.6351 258.518 84.9451 257.308 83.5051C256.378 82.3851 255.098 79.5551 256.588 78.3951C257.218 77.9051 258.078 77.9551 258.818 78.0751C260.058 78.2851 261.258 78.4751 262.508 78.4651C263.918 78.4651 265.328 78.2651 266.688 77.8951H266.678Z" fill="#001627"/>
<path d="M267.948 84.1052C266.978 82.8452 265.348 82.0252 263.508 82.0552C261.428 82.0852 259.668 83.1952 258.828 84.7652C259.868 85.3652 261.098 85.6952 262.308 85.7752C264.128 85.8952 266.028 85.5152 267.518 84.4552C267.668 84.3452 267.808 84.2352 267.938 84.1152L267.948 84.1052Z" fill="#B23850"/>
<path d="M269.178 78.0752C269.038 77.9352 268.868 77.8252 268.678 77.7552C268.038 77.5052 267.328 77.7252 266.668 77.9052C265.308 78.2752 263.898 78.4652 262.488 78.4752C261.228 78.4752 260.028 78.2952 258.798 78.0852C258.058 77.9552 257.198 77.9152 256.568 78.4052C256.528 78.4352 256.498 78.4752 256.458 78.5052C256.948 78.9652 257.648 79.3252 258.098 79.5152C259.068 79.9152 260.128 80.0352 261.178 80.1152C262.918 80.2452 264.678 80.2552 266.408 80.0452C267.138 79.9552 267.908 79.8052 268.448 79.3052C268.798 78.9752 269.008 78.5452 269.168 78.0852L269.178 78.0752Z" fill="white"/>
<path d="M253.388 66.9551C253.368 67.9851 254.188 68.8451 255.218 68.8551C256.248 68.8651 257.108 68.0551 257.118 67.0251C257.138 65.9951 256.318 65.1351 255.288 65.1251C254.258 65.1051 253.408 65.9251 253.388 66.9551Z" fill="#001627"/>
<path d="M255.258 67.2652C255.258 67.6452 255.548 67.9552 255.928 67.9652C256.308 67.9652 256.618 67.6752 256.628 67.2952C256.628 66.9152 256.338 66.6052 255.958 66.5952C255.578 66.5952 255.268 66.8852 255.258 67.2652Z" fill="white"/>
<path d="M267.848 67.2251C267.828 68.2551 268.648 69.1151 269.678 69.1251C270.708 69.1451 271.558 68.3251 271.578 67.2951C271.598 66.2651 270.778 65.4151 269.748 65.3951C268.718 65.3751 267.858 66.1951 267.848 67.2251Z" fill="#001627"/>
<path d="M269.718 67.5352C269.718 67.9152 270.008 68.2252 270.388 68.2352C270.768 68.2352 271.078 67.9452 271.088 67.5652C271.088 67.1852 270.798 66.8752 270.418 66.8652C270.038 66.8652 269.728 67.1552 269.718 67.5352Z" fill="white"/>
<path d="M257.348 60.9151C254.688 59.2351 251.188 59.2551 248.618 61.1251C248.138 61.4751 248.038 62.1951 248.388 62.6651C248.748 63.1451 249.448 63.2451 249.928 62.8951C250.988 62.1251 252.318 61.8151 253.608 61.9251C254.258 61.9851 254.908 62.1451 255.508 62.4051C256.038 62.6351 256.558 63.0451 257.158 62.7551C257.298 62.6851 257.428 62.5851 257.528 62.4551C257.868 62.0351 257.858 61.2251 257.358 60.9051L257.348 60.9151Z" fill="#001627"/>
<path d="M275.538 60.9952C272.878 59.3152 269.378 59.3352 266.808 61.2052C266.328 61.5552 266.228 62.2752 266.578 62.7452C266.938 63.2252 267.638 63.3252 268.118 62.9752C269.178 62.2052 270.508 61.8952 271.798 62.0052C272.448 62.0652 273.098 62.2252 273.698 62.4852C274.228 62.7152 274.748 63.1252 275.348 62.8352C275.488 62.7652 275.618 62.6652 275.718 62.5352C276.058 62.1152 276.048 61.3052 275.548 60.9852L275.538 60.9952Z" fill="#001627"/>
<path d="M284.628 41.8251C284.628 41.8251 287.928 34.6551 276.988 31.8851C271.758 30.5551 266.328 29.8551 260.928 30.0251C258.198 30.1151 255.468 30.4251 252.798 31.0151C247.348 32.2351 241.798 35.6251 240.058 41.1951C239.238 43.8051 239.078 46.6051 238.778 49.2951C238.448 52.2651 238.218 55.2351 237.888 58.2051C237.688 59.9751 237.778 61.7951 237.948 63.5751C237.998 64.0751 238.928 68.7651 238.788 68.8451C243.188 66.2051 246.018 60.1151 245.538 53.2351C245.518 53.0151 245.488 52.7951 245.468 52.5851C249.038 51.6651 253.518 49.4951 257.968 47.8251C256.928 49.0151 255.928 50.5151 255.278 52.3451C254.898 53.4151 256.238 54.2751 257.088 53.5151L265.788 45.7151C268.418 45.4251 270.808 45.7751 272.718 47.2351C273.868 48.1151 274.788 48.9451 275.538 49.7151C275.468 50.5351 275.458 51.3751 275.518 52.2351C275.978 58.7951 280.138 64.0751 285.478 65.6651C285.528 65.9951 285.548 66.1951 285.548 66.1951C285.548 66.1951 285.608 66.0351 285.718 65.7351C285.848 65.7751 285.978 65.8151 286.108 65.8451C286.128 65.3951 286.138 64.9351 286.148 64.4851C287.648 59.9051 291.008 47.3151 284.628 41.8251Z" fill="#001627"/>
<path d="M289.578 74.5151C287.078 77.5851 283.078 78.4651 280.648 76.4851C278.208 74.5051 278.268 70.4051 280.758 67.3351C283.258 64.2651 287.258 63.3851 289.688 65.3651C292.128 67.3451 292.078 71.4451 289.578 74.5151Z" fill="#FFB99F"/>
<path d="M287.488 67.415C286.548 67.065 285.378 67.235 284.358 67.875C283.848 68.195 283.498 68.545 283.278 68.955C282.988 69.495 282.968 70.135 283.228 70.625C283.458 71.055 283.858 71.315 284.218 71.535C284.478 71.695 284.718 71.845 284.868 72.045C285.098 72.345 285.108 72.815 284.888 73.125C284.668 73.435 284.228 73.585 283.858 73.475C283.638 73.405 283.418 73.525 283.348 73.745C283.278 73.955 283.398 74.185 283.618 74.255C283.848 74.325 284.098 74.345 284.338 74.315C284.818 74.255 285.278 73.995 285.558 73.595C285.978 72.995 285.958 72.135 285.518 71.545C285.278 71.225 284.948 71.025 284.648 70.835C284.358 70.655 284.078 70.475 283.948 70.235C283.818 69.995 283.838 69.635 283.998 69.335C284.058 69.215 284.158 69.095 284.268 68.985C284.668 68.935 285.188 68.985 285.478 69.235C285.808 69.515 285.998 69.945 285.978 70.375C285.978 70.595 286.148 70.785 286.368 70.795C286.388 70.795 286.408 70.795 286.438 70.795C286.628 70.775 286.788 70.605 286.788 70.405C286.818 69.725 286.518 69.055 285.998 68.615C285.808 68.455 285.578 68.355 285.338 68.275C285.988 68.005 286.648 67.965 287.198 68.165C287.868 68.415 288.458 69.225 288.228 69.965C288.158 70.175 288.278 70.405 288.498 70.475C288.708 70.545 288.938 70.425 289.008 70.205C289.348 69.125 288.658 67.835 287.498 67.395L287.488 67.415Z" fill="#C16B5B"/>
<path d="M234.818 75.3052C237.408 78.2952 241.428 79.0652 243.808 77.0052C246.188 74.9552 246.018 70.8652 243.428 67.8652C240.838 64.8752 236.818 64.1052 234.438 66.1652C232.058 68.2152 232.228 72.3052 234.818 75.3052Z" fill="#FFB99F"/>
<path d="M236.698 68.1553C237.628 67.7753 238.798 67.9053 239.838 68.5253C240.358 68.8253 240.718 69.1753 240.948 69.5753C241.258 70.1053 241.288 70.7453 241.048 71.2453C240.828 71.6853 240.438 71.9453 240.088 72.1853C239.838 72.3553 239.598 72.5153 239.448 72.7153C239.228 73.0253 239.228 73.4953 239.448 73.8053C239.678 74.1153 240.118 74.2453 240.488 74.1253C240.698 74.0553 240.928 74.1653 241.008 74.3753C241.078 74.5853 240.968 74.8153 240.758 74.8953C240.528 74.9753 240.278 75.0053 240.038 74.9753C239.558 74.9253 239.098 74.6853 238.798 74.2953C238.358 73.7053 238.348 72.8453 238.778 72.2453C239.008 71.9253 239.338 71.7053 239.628 71.5153C239.918 71.3253 240.188 71.1453 240.308 70.8953C240.428 70.6453 240.398 70.2953 240.228 69.9953C240.158 69.8753 240.058 69.7653 239.948 69.6553C239.548 69.6153 239.028 69.6853 238.748 69.9453C238.428 70.2353 238.248 70.6753 238.278 71.0953C238.288 71.3153 238.118 71.5153 237.898 71.5253C237.878 71.5253 237.858 71.5253 237.828 71.5253C237.638 71.5053 237.478 71.3453 237.458 71.1453C237.408 70.4653 237.688 69.7853 238.198 69.3353C238.388 69.1653 238.608 69.0653 238.848 68.9753C238.198 68.7253 237.528 68.7053 236.988 68.9253C236.318 69.1953 235.758 70.0153 236.018 70.7553C236.088 70.9653 235.978 71.1953 235.768 71.2753C235.558 71.3453 235.328 71.2353 235.248 71.0253C234.878 69.9553 235.528 68.6453 236.678 68.1753L236.698 68.1553Z" fill="#C16B5B"/>
<path d="M248.178 97.6152C248.178 97.6152 251.438 102.025 255.618 103.635C256.748 104.075 257.628 104.985 258.058 106.115L259.398 109.665C253.338 109.975 249.368 108.055 247.488 103.925L248.168 97.6052L248.178 97.6152Z" fill="white"/>
<path d="M276.678 99.6352C272.908 102.165 269.118 103.745 265.278 104.075C263.948 104.195 262.798 105.065 262.418 106.345L261.428 109.695C267.938 109.385 273.518 108.185 276.678 104.655V99.6252V99.6352Z" fill="white"/>
<path d="M238.668 199.405L232.818 197.275C232.098 197.015 231.298 197.355 230.988 198.065L230.968 198.105C230.488 199.225 230.998 200.525 232.118 201.015L236.618 203.005L237.798 204.695L234.288 205.625L226.568 208.005C225.898 208.215 225.248 208.475 224.628 208.795L218.818 211.765C218.028 212.275 217.828 213.345 218.398 214.095C218.798 214.615 219.508 214.785 220.098 214.505L226.428 212.025L231.898 211.705L227.118 213.345C226.708 213.485 226.338 213.715 226.038 214.015L220.798 219.225C220.288 219.675 220.268 220.465 220.768 220.935L221.048 221.205C221.818 221.935 223.028 221.945 223.818 221.225L228.338 217.075L234.608 216.195L230.158 217.815C229.548 218.035 228.998 218.365 228.508 218.795L223.738 222.995C223.168 223.495 223.148 224.365 223.688 224.895L223.838 225.045C224.658 225.855 225.938 225.935 226.858 225.255L231.948 221.465L236.558 220.565L232.958 222.395C232.328 222.715 231.758 223.135 231.248 223.625L227.078 227.765C226.488 228.355 226.518 229.325 227.148 229.875C228.048 230.665 229.398 230.625 230.258 229.785L233.578 226.545L240.978 223.275L245.628 222.665C248.748 221.635 251.288 219.345 252.628 216.355L254.508 212.165C254.508 212.165 251.028 205.785 247.108 202.515C244.688 200.495 239.388 199.685 238.648 199.415L238.668 199.405Z" fill="#FFB99F"/>
<path d="M275.548 130.775L293.708 178.045L243.038 204.655L247.658 218.465L305.768 195.655C314.678 192.155 319.178 182.205 315.908 173.205L297.178 121.555L275.548 130.765V130.775Z" fill="#FFB99F"/>
<path d="M249.748 199.875C251.638 205.605 254.368 210.765 258.088 215.235L263.278 213.285C261.248 207.325 259.228 202.495 255.868 196.655L249.738 199.875H249.748Z" fill="#15324F"/>
<path d="M261.868 205.945C261.868 209.055 259.348 211.585 256.228 211.585C253.108 211.585 250.588 209.065 250.588 205.945C250.588 202.825 253.108 200.305 256.228 200.305C259.348 200.305 261.868 202.825 261.868 205.945Z" fill="white"/>
<path d="M256.328 207.125C256.138 207.125 255.948 207.025 255.848 206.845L254.358 204.225C254.208 203.955 254.298 203.615 254.568 203.465C254.828 203.315 255.168 203.405 255.328 203.675L256.538 205.815L259.198 204.315C259.458 204.165 259.798 204.255 259.958 204.525C260.108 204.795 260.018 205.125 259.748 205.285L256.608 207.055C256.518 207.105 256.428 207.125 256.338 207.125H256.328Z" fill="#15324F"/>
<path d="M291.048 109.015C291.048 109.015 277.588 106.085 271.188 120.055C267.748 127.585 284.738 164.845 284.738 164.845C284.738 164.845 306.008 165.675 316.668 157.025C316.668 157.025 309.808 125.925 291.048 109.015Z" fill="#15324F"/>
<path d="M313.558 146.405C303.068 151.095 291.768 153.835 280.298 154.475C280.768 155.625 281.228 156.715 281.648 157.725C293.008 156.955 304.188 154.175 314.598 149.565C314.288 148.585 313.938 147.525 313.558 146.405Z" fill="#94D3D3"/>
</g>
</g>
</g>
<defs>
<filter id="filter0_d_8_575" x="-17" y="-10" width="398" height="398" filterUnits="userSpaceOnUse" color-interpolation-filters="sRGB">
<feFlood flood-opacity="1" result="BackgroundImageFix"/>
<feColorMatrix in="SourceAlpha" type="matrix" values="0 0 0 0 0 0 0 0 0 0 0 0 0 0 0 0 0 0 127 0" result="hardAlpha"/>
<feOffset dx="2" dy="9"/>
<feGaussianBlur stdDeviation="9.5"/>
<feComposite in2="hardAlpha" operator="out"/>
<feColorMatrix type="matrix" values="0 0 0 0 0 0 0 0 0 0 0 0 0 0 0 0 0 0 0.25 0"/>
<feBlend mode="normal" in2="BackgroundImageFix" result="effect1_dropShadow_8_575"/>
<feBlend mode="normal" in="SourceGraphic" in2="effect1_dropShadow_8_575" result="shape"/>
</filter>
</defs>
</svg>
