<svg width="258" height="364" viewBox="0 0 258 364" fill="none" xmlns="http://www.w3.org/2000/svg">
<g opacity="0.7">
<path d="M130.118 171.015L80.0678 261.845C79.6478 262.665 79.2678 263.505 78.9378 264.365L38.9478 366.915L59.4878 369.455L90.3978 319.555C95.3478 311.065 100.548 304.135 102.428 294.485L108.158 271.395L176.868 189.055L130.128 171.015H130.118Z" fill="#FFB99F"/>
<path d="M118.928 179.095L81.8878 244.765C93.2978 255.625 108.478 263.785 128.068 265.825C144.298 251.925 162.258 217.735 179.788 183.305L118.918 179.105L118.928 179.095Z" fill="#00344E"/>
<path d="M122.068 179.315C118.748 186.105 115.278 192.825 111.648 199.455C104.738 212.075 97.2878 224.385 89.3178 236.355C87.2278 239.495 85.0878 242.615 82.9178 245.705C83.1878 245.955 83.4578 246.205 83.7278 246.455C89.5778 238.105 95.1878 229.575 100.518 220.875C108.028 208.605 115.008 196.015 121.418 183.145C122.038 181.895 122.648 180.645 123.258 179.395L122.068 179.315Z" fill="#94D3D3"/>
<path d="M234.848 300.615C230.078 291.405 223.338 283.355 215.108 277.035L210.748 273.685L205.038 169.075L157.118 180.165L177.568 271.495C178.448 277.145 180.718 282.485 184.168 287.045L241.088 366.015L264.088 366.625L234.848 300.605V300.615Z" fill="#FFB99F"/>
<path d="M264.088 366.635L241.098 366.025L221.008 338.165L220.218 337.065L217.238 332.945L216.428 331.825L213.848 328.235L245.318 324.235L247.998 330.295L248.498 331.425L250.008 334.835L250.508 335.955L264.088 366.635Z" fill="#94D3D3"/>
<path d="M145.658 181.975L158.798 263.075C178.458 269.165 198.728 270.005 216.188 256.185C214.958 229.335 211.588 202.915 204.988 177.135L145.658 181.985V181.975Z" fill="#00344E"/>
<path d="M200.968 235.545C198.938 218.835 196.108 202.235 192.458 185.805C191.898 183.295 191.328 180.795 190.728 178.305L189.608 178.395C191.908 188.075 193.948 197.825 195.688 207.625C198.628 224.185 200.758 240.885 202.058 257.655C202.218 259.765 202.368 261.875 202.508 263.995C202.868 263.855 203.218 263.715 203.578 263.565C202.958 254.205 202.088 244.855 200.958 235.545H200.968Z" fill="#94D3D3"/>
<path d="M207.198 237.755C205.028 220.205 202.088 202.755 198.358 185.465C197.808 182.915 197.238 180.365 196.658 177.815L195.538 177.905C197.858 188.025 199.928 198.195 201.718 208.425C204.758 225.835 207.028 243.375 208.508 260.985C208.508 261.065 208.518 261.155 208.528 261.235C208.878 261.045 209.228 260.865 209.578 260.665C208.938 253.015 208.148 245.375 207.208 237.745L207.198 237.755Z" fill="#94D3D3"/>
<path d="M166.228 226.245L164.688 223.955C164.338 223.435 163.688 223.245 163.108 223.455C161.638 220.635 160.328 217.735 159.638 214.625C158.758 210.655 159.078 206.485 160.448 202.675C161.228 200.515 162.358 198.475 163.778 196.675C164.218 196.125 163.438 195.335 162.998 195.895C160.388 199.195 158.728 203.135 158.208 207.315C157.648 211.745 158.558 216.065 160.298 220.145C160.848 221.445 161.468 222.715 162.128 223.965C161.578 224.355 161.378 225.095 161.708 225.705L163.068 228.205C163.448 228.895 164.338 229.125 164.998 228.705L165.838 228.165C166.488 227.755 166.668 226.885 166.238 226.245H166.228Z" fill="#94D3D3"/>
<path d="M159.078 193.705C158.648 198.435 154.308 201.585 150.188 203.105C145.518 204.825 140.468 205.285 135.978 207.515C134.648 208.175 133.428 209.005 132.338 209.995C131.798 209.745 131.148 209.855 130.738 210.335L128.888 212.495C128.378 213.095 128.478 214.005 129.118 214.475L129.918 215.065C130.538 215.525 131.408 215.385 131.848 214.755L133.428 212.495C133.818 211.935 133.738 211.175 133.238 210.705L133.208 210.675C136.108 208.125 140.108 206.965 143.808 206.045C148.558 204.865 153.578 203.725 157.108 200.075C158.808 198.325 159.958 196.145 160.188 193.705C160.248 192.995 159.148 193.005 159.078 193.705Z" fill="#94D3D3"/>
<path d="M133.358 81.8352L103.128 136.645L53.1178 124.155L48.6278 136.645L102.248 156.095C108.628 158.405 115.728 155.685 118.918 149.695L150.858 89.8652L133.338 81.8352H133.358Z" fill="#FFB99F"/>
<path d="M45.9778 112.555L46.4378 112.025C48.3678 109.795 51.9678 110.375 53.0978 113.105L54.2078 115.795L56.3278 120.935C56.9078 122.335 57.2278 123.835 57.2678 125.355L57.3978 130.025L52.2078 138.015C46.0078 137.005 36.1178 132.725 31.4278 129.675C28.6878 128.385 28.3878 124.405 30.1878 121.975C30.3478 121.765 30.5078 121.585 30.6778 121.445C29.1578 119.915 30.6778 115.985 32.8978 116.645C30.7378 114.915 32.7578 111.725 34.9478 112.215L35.0678 111.955C34.0778 110.835 33.9978 109.155 34.9278 107.945C34.9378 107.925 34.9578 107.915 34.9678 107.895C36.1478 106.375 42.2678 108.985 43.5978 110.385L45.9678 112.575L45.9778 112.555Z" fill="#FFB99F"/>
<path d="M74.7078 3.11511C57.4478 -1.99489 39.3078 7.84511 34.1878 25.1051C30.7878 36.5551 32.2778 54.1551 38.6978 66.2051C43.2878 74.8051 45.8278 85.4351 43.0578 94.7851L40.3478 103.935L48.9178 106.475L51.6278 97.3251C54.3978 87.9751 61.9678 80.3451 70.4978 75.6351C82.4478 69.0451 93.2878 55.0951 96.6878 43.6451C101.808 26.3851 91.9678 8.24511 74.7078 3.12511V3.11511ZM63.7878 70.9451L54.1478 82.0951C53.9378 82.3351 53.6078 82.4351 53.2978 82.3451L49.4478 81.2051C49.1478 81.1151 48.9178 80.8651 48.8778 80.5451L46.5778 65.9051C46.4578 65.1651 47.3178 64.6751 47.8978 65.1551C52.2378 68.7151 57.2878 70.2351 63.0878 69.6051C63.8278 69.5251 64.2778 70.3851 63.7878 70.9451Z" fill="#1D4297"/>
<path d="M90.4978 40.8151C86.4378 54.5051 70.6978 66.8351 57.0078 62.7751C43.3178 58.7151 36.8478 39.7951 40.9078 26.1051C44.9678 12.4151 59.3578 4.60515 73.0578 8.66515C86.7578 12.7251 94.5578 27.1151 90.4978 40.8151Z" fill="#94D3D3"/>
<path d="M65.0578 17.5651C64.7078 18.7551 63.4578 19.4351 62.2678 19.0751C61.0778 18.7251 60.3978 17.4751 60.7578 16.2851C61.1078 15.0951 62.3578 14.4151 63.5478 14.7751C64.7378 15.1251 65.4178 16.3751 65.0578 17.5651Z" fill="#15324F"/>
<path d="M72.1378 19.6652C71.7878 20.8552 70.5378 21.5352 69.3478 21.1752C68.1578 20.8252 67.4778 19.5752 67.8378 18.3852C68.1978 17.1952 69.4378 16.5152 70.6278 16.8752C71.8178 17.2352 72.4978 18.4752 72.1378 19.6652Z" fill="#15324F"/>
<path d="M79.2078 21.7651C78.8578 22.9551 77.6078 23.6351 76.4178 23.2751C75.2278 22.9251 74.5478 21.6751 74.9078 20.4851C75.2678 19.2951 76.5078 18.6151 77.6978 18.9751C78.8878 19.3351 79.5678 20.5751 79.2078 21.7651Z" fill="#15324F"/>
<path d="M56.0078 22.1452C55.6578 23.3352 54.4078 24.0152 53.2178 23.6552C52.0278 23.2952 51.3478 22.0552 51.7078 20.8652C52.0678 19.6752 53.3078 18.9952 54.4978 19.3552C55.6878 19.7052 56.3678 20.9552 56.0078 22.1452Z" fill="#15324F"/>
<path d="M63.0778 24.2451C62.7278 25.4351 61.4778 26.1151 60.2878 25.7551C59.0978 25.3951 58.4178 24.1551 58.7778 22.9651C59.1278 21.7751 60.3778 21.0951 61.5678 21.4551C62.7578 21.8051 63.4378 23.0551 63.0778 24.2451Z" fill="#15324F"/>
<path d="M70.1578 26.3452C69.8078 27.5352 68.5578 28.2152 67.3678 27.8552C66.1778 27.5052 65.4978 26.2551 65.8578 25.0651C66.2078 23.8751 67.4578 23.1951 68.6478 23.5551C69.8378 23.9051 70.5178 25.1552 70.1578 26.3452Z" fill="#15324F"/>
<path d="M77.2278 28.445C76.8778 29.635 75.6278 30.315 74.4378 29.955C73.2478 29.605 72.5678 28.355 72.9278 27.165C73.2778 25.975 74.5278 25.295 75.7178 25.655C76.9078 26.015 77.5878 27.255 77.2278 28.445Z" fill="#15324F"/>
<path d="M84.3078 30.5451C83.9578 31.7351 82.7078 32.4151 81.5178 32.0551C80.3278 31.7051 79.6478 30.4551 80.0078 29.2651C80.3578 28.0751 81.6078 27.3951 82.7978 27.7551C83.9878 28.1051 84.6678 29.3551 84.3078 30.5451Z" fill="#15324F"/>
<path d="M54.0278 28.8251C53.6778 30.0151 52.4278 30.6951 51.2378 30.3351C50.0478 29.9851 49.3678 28.7351 49.7278 27.5451C50.0778 26.3551 51.3278 25.6751 52.5178 26.0351C53.7078 26.3851 54.3878 27.6351 54.0278 28.8251Z" fill="#15324F"/>
<path d="M61.0978 30.9252C60.7478 32.1152 59.4978 32.7952 58.3078 32.4352C57.1178 32.0852 56.4378 30.8352 56.7978 29.6452C57.1478 28.4552 58.3978 27.7752 59.5878 28.1352C60.7778 28.4852 61.4578 29.7352 61.0978 30.9252Z" fill="#15324F"/>
<path d="M68.1778 33.0151C67.8278 34.2051 66.5778 34.8851 65.3878 34.5251C64.1978 34.1751 63.5178 32.9251 63.8778 31.7351C64.2278 30.5451 65.4778 29.8651 66.6678 30.2251C67.8578 30.5751 68.5378 31.8251 68.1778 33.0151Z" fill="#15324F"/>
<path d="M75.2478 35.1152C74.8978 36.3052 73.6478 36.9852 72.4578 36.6252C71.2678 36.2752 70.5878 35.0252 70.9478 33.8352C71.3078 32.6452 72.5478 31.9652 73.7378 32.3252C74.9278 32.6852 75.6078 33.9252 75.2478 35.1152Z" fill="#15324F"/>
<path d="M82.3278 37.215C81.9778 38.405 80.7278 39.085 79.5378 38.725C78.3478 38.375 77.6678 37.125 78.0278 35.935C78.3878 34.745 79.6278 34.065 80.8178 34.425C82.0078 34.775 82.6878 36.025 82.3278 37.215Z" fill="#15324F"/>
<path d="M52.0478 35.4951C51.6978 36.6851 50.4478 37.3651 49.2578 37.0051C48.0678 36.6551 47.3878 35.4051 47.7478 34.2151C48.0978 33.0251 49.3478 32.3451 50.5378 32.7051C51.7278 33.0651 52.4078 34.3051 52.0478 35.4951Z" fill="#15324F"/>
<path d="M59.1178 37.5951C58.7678 38.7851 57.5178 39.4651 56.3278 39.1051C55.1378 38.7551 54.4578 37.5051 54.8178 36.3151C55.1678 35.1251 56.4178 34.4451 57.6078 34.8051C58.7978 35.1551 59.4778 36.4051 59.1178 37.5951Z" fill="#15324F"/>
<path d="M66.1978 39.695C65.8478 40.885 64.5978 41.565 63.4078 41.205C62.2178 40.855 61.5378 39.605 61.8978 38.415C62.2478 37.225 63.4978 36.545 64.6878 36.905C65.8778 37.255 66.5578 38.505 66.1978 39.695Z" fill="#15324F"/>
<path d="M73.2678 41.7951C72.9178 42.9851 71.6678 43.6651 70.4778 43.3051C69.2878 42.9551 68.6078 41.7051 68.9678 40.5151C69.3178 39.3251 70.5678 38.6451 71.7578 39.0051C72.9478 39.3551 73.6278 40.6051 73.2678 41.7951Z" fill="#15324F"/>
<path d="M80.3478 43.8952C79.9978 45.0852 78.7478 45.7652 77.5578 45.4052C76.3678 45.0552 75.6878 43.8052 76.0478 42.6152C76.3978 41.4252 77.6478 40.7452 78.8378 41.1052C80.0278 41.4652 80.7078 42.7052 80.3478 43.8952Z" fill="#15324F"/>
<path d="M50.0678 42.1752C49.7178 43.3652 48.4678 44.0452 47.2778 43.6852C46.0878 43.3352 45.4078 42.0852 45.7678 40.8952C46.1178 39.7052 47.3678 39.0252 48.5578 39.3852C49.7478 39.7352 50.4278 40.9852 50.0678 42.1752Z" fill="#15324F"/>
<path d="M57.1378 44.2751C56.7878 45.4651 55.5378 46.1451 54.3478 45.7851C53.1578 45.4351 52.4778 44.1851 52.8378 42.9951C53.1878 41.8051 54.4378 41.1251 55.6278 41.4851C56.8178 41.8351 57.4978 43.0851 57.1378 44.2751Z" fill="#15324F"/>
<path d="M64.2178 46.3752C63.8678 47.5652 62.6178 48.2452 61.4278 47.8852C60.2378 47.5352 59.5578 46.2852 59.9178 45.0952C60.2678 43.9052 61.5178 43.2252 62.7078 43.5852C63.8978 43.9352 64.5778 45.1852 64.2178 46.3752Z" fill="#15324F"/>
<path d="M71.2878 48.475C70.9378 49.665 69.6878 50.345 68.4978 49.985C67.3078 49.635 66.6278 48.385 66.9878 47.195C67.3378 46.005 68.5878 45.325 69.7778 45.685C70.9678 46.035 71.6478 47.285 71.2878 48.475Z" fill="#15324F"/>
<path d="M78.3678 50.5651C78.0178 51.7551 76.7678 52.4351 75.5778 52.0751C74.3878 51.7251 73.7078 50.4751 74.0678 49.2851C74.4178 48.0951 75.6678 47.4151 76.8578 47.7751C78.0478 48.1351 78.7278 49.3751 78.3678 50.5651Z" fill="#15324F"/>
<path d="M55.1578 50.945C54.8078 52.135 53.5578 52.815 52.3678 52.455C51.1778 52.105 50.4978 50.855 50.8578 49.665C51.2178 48.475 52.4578 47.795 53.6478 48.155C54.8378 48.515 55.5178 49.755 55.1578 50.945Z" fill="#15324F"/>
<path d="M62.2378 53.0451C61.8878 54.2351 60.6378 54.9151 59.4478 54.5551C58.2578 54.2051 57.5778 52.9551 57.9378 51.7651C58.2978 50.5751 59.5378 49.8951 60.7278 50.2551C61.9178 50.6051 62.5978 51.8551 62.2378 53.0451Z" fill="#15324F"/>
<path d="M69.3078 55.1452C68.9578 56.3352 67.7078 57.0152 66.5178 56.6552C65.3278 56.3052 64.6478 55.0552 65.0078 53.8652C65.3578 52.6752 66.6078 51.9952 67.7978 52.3552C68.9878 52.7052 69.6678 53.9552 69.3078 55.1452Z" fill="#15324F"/>
<path d="M42.3168 91.6587L53.5818 94.9998L41.0704 137.184C40.5415 138.967 38.6645 139.985 36.8813 139.456L32.0781 138.032C30.2948 137.503 29.2765 135.626 29.8054 133.842L42.3168 91.6587Z" fill="#15324F"/>
<path d="M36.8278 110.155L48.1578 113.295L48.4678 112.245L37.1378 109.095L36.8278 110.155Z" fill="#54809E"/>
<path d="M45.3578 122.725L45.6878 121.625C45.6078 121.605 45.5278 121.575 45.4478 121.545C41.7778 120.435 38.1078 119.335 34.4378 118.225L34.1278 119.285C35.2078 119.615 36.2878 119.935 37.3578 120.255C40.0278 121.055 42.6878 121.905 45.3678 122.715L45.3578 122.725Z" fill="#54809E"/>
<path d="M42.7578 131.505L43.0678 130.455C39.2578 129.535 35.4878 128.445 31.7878 127.175L31.4778 128.215C35.1878 129.485 38.9478 130.585 42.7578 131.505Z" fill="#54809E"/>
<path d="M39.5778 100.895C43.3478 101.945 47.1278 102.995 50.8978 104.045L51.2078 102.985C47.4378 101.935 43.6578 100.885 39.8878 99.8352L39.5778 100.895Z" fill="#54809E"/>
<path d="M50.0678 111.515C50.0678 111.515 42.4678 111.665 42.3278 113.885C42.1978 116.105 47.0678 119.415 48.8978 118.675C50.7178 117.935 53.3078 116.685 53.3078 116.685L50.0678 111.505V111.515Z" fill="#FFB99F"/>
<path d="M36.9278 108.555C36.9278 108.555 46.8378 113.245 45.3378 115.935C43.8378 118.625 38.4778 115.895 38.4778 115.895C38.4778 115.895 43.7178 117.705 42.6578 119.885C41.5978 122.065 36.6578 120.675 36.6578 120.675C36.6578 120.675 41.6778 121.945 40.5678 124.295C39.4578 126.645 34.9578 125.135 34.9578 125.135C34.9578 125.135 40.0178 126.215 38.8678 128.085C37.7178 129.955 30.7778 127.635 30.7778 127.635C30.7778 127.635 33.5178 114.745 36.9278 108.555Z" fill="#FFB99F"/>
<path d="M58.3678 124.245L53.3078 139.265L68.9478 145.025L74.4278 128.815L58.3678 124.245Z" fill="#94D3D3"/>
<path d="M132.758 76.0852L104.548 127.025C112.428 137.685 123.528 142.945 137.968 142.575L158.028 87.3252L132.748 76.0852H132.758Z" fill="#15324F"/>
<path d="M110.288 116.655L108.628 119.655C117.498 127.865 128.468 133.665 140.228 136.425L141.368 133.315C129.748 130.675 118.938 124.865 110.278 116.665L110.288 116.655Z" fill="#94D3D3"/>
<path d="M189.048 79.0152C180.778 73.8452 170.268 70.8652 158.508 69.1352C149.168 68.7952 140.408 70.4852 132.748 76.0852C137.258 110.465 125.578 150.185 114.928 179.095C144.758 199.185 176.508 217.015 199.118 207.745L200.588 198.955L205.018 204.545C206.728 203.375 208.368 202.005 209.928 200.425C212.458 165.185 202.828 108.985 189.028 79.0152H189.048Z" fill="#94D3D3"/>
<path d="M195.398 204.595C180.298 208.815 164.678 203.755 151.108 197.085C138.688 190.975 127.128 183.155 116.808 173.935C116.938 173.555 117.078 173.175 117.208 172.795C122.418 177.475 127.918 181.815 133.728 185.735C140.008 189.975 146.608 193.745 153.448 196.995C160.528 200.355 167.958 203.145 175.718 204.395C182.728 205.525 189.948 205.255 196.718 203.045C197.878 202.665 199.018 202.215 200.138 201.725L199.918 203.015C198.438 203.635 196.928 204.175 195.388 204.605L195.398 204.595ZM210.178 196.435C210.198 195.905 210.218 195.375 210.238 194.835C207.868 197.255 205.088 199.245 202.068 200.795L202.768 201.675C205.468 200.265 207.968 198.515 210.178 196.435Z" fill="#94D3D3"/>
<path d="M146.178 67.615C146.178 67.615 153.218 63.675 162.648 65.075C172.078 66.475 174.678 69.635 174.678 69.635V74.665L147.048 73.575L146.178 67.615Z" fill="white"/>
<path d="M136.418 38.4451C136.418 38.4451 132.108 16.9851 135.518 13.6251C138.928 10.2651 158.638 4.04505 168.978 7.42505C179.318 10.8051 182.028 11.3151 183.898 16.7051C185.768 22.1051 183.538 36.1851 183.538 36.1851L136.418 38.4351V38.4451Z" fill="#001627"/>
<path d="M178.998 16.8552C174.948 10.8352 167.338 8.8952 159.678 9.0152C152.018 9.1352 144.468 11.2852 140.598 17.4152C132.748 29.8552 136.418 54.1052 147.088 62.0552C150.848 64.8552 155.748 66.1352 160.518 66.0652C165.288 65.9952 170.148 64.5752 173.818 61.6652C184.248 53.3952 187.208 29.0552 178.998 16.8552Z" fill="#FFB99F"/>
<path d="M175.358 60.2451L160.438 61.3651L145.488 60.6851C150.438 63.6351 150.238 73.4351 150.238 73.4351C152.718 76.0751 160.648 75.9551 160.648 75.9551C160.648 75.9551 168.568 75.8351 170.978 73.1351C170.978 73.1351 170.488 63.3351 175.358 60.2451Z" fill="#FFB99F"/>
<path d="M161.598 34.9051C161.568 34.6851 161.368 34.5251 161.138 34.5351C160.898 34.5451 160.708 34.7551 160.718 34.9951C160.788 36.5451 160.628 38.0951 160.288 39.5851C160.098 39.5351 159.858 39.4751 159.558 39.4351C159.238 39.4051 158.888 39.4051 158.508 39.5451C158.128 39.6751 157.708 40.0351 157.548 40.4451C157.388 40.8551 157.398 41.2051 157.438 41.5051C157.478 41.7951 157.548 42.0651 157.658 42.3251C157.858 42.8451 158.178 43.3151 158.588 43.6651C158.718 43.7751 158.908 43.8051 159.078 43.7251C159.298 43.6151 159.398 43.3451 159.288 43.1251V43.1051C159.098 42.7251 158.978 42.3451 158.918 41.9651C158.868 41.5951 158.838 41.1751 158.918 41.1251C158.968 41.0951 158.978 41.1051 159.038 41.0751C159.098 41.0651 159.228 41.0451 159.378 41.0751C159.678 41.0951 160.208 41.2951 160.928 41.1951H161.008C161.298 41.1451 161.548 40.9151 161.588 40.6051C161.888 38.7051 161.888 36.7751 161.588 34.9051H161.598Z" fill="#C16B5B"/>
<path d="M164.678 47.8951C165.338 47.7151 166.048 47.4951 166.688 47.7451C167.458 48.0451 167.818 48.9451 167.888 49.7651C168.018 51.5851 167.018 53.3851 165.528 54.4451C164.038 55.5051 162.138 55.8851 160.318 55.7651C158.438 55.6351 156.518 54.9451 155.308 53.5051C154.378 52.3851 153.098 49.5551 154.588 48.3951C155.218 47.9051 156.078 47.9551 156.818 48.0751C158.058 48.2851 159.258 48.4751 160.508 48.4651C161.918 48.4651 163.328 48.2651 164.688 47.8951H164.678Z" fill="#001627"/>
<path d="M165.948 54.1052C164.978 52.8452 163.348 52.0252 161.508 52.0552C159.428 52.0852 157.668 53.1952 156.828 54.7652C157.868 55.3652 159.098 55.6952 160.308 55.7752C162.128 55.8952 164.028 55.5152 165.518 54.4552C165.668 54.3452 165.808 54.2352 165.938 54.1152L165.948 54.1052Z" fill="#B23850"/>
<path d="M167.178 48.0752C167.038 47.9352 166.868 47.8252 166.678 47.7552C166.038 47.5052 165.328 47.7252 164.668 47.9052C163.308 48.2752 161.898 48.4652 160.488 48.4752C159.228 48.4752 158.028 48.2952 156.798 48.0852C156.058 47.9552 155.198 47.9152 154.568 48.4052C154.528 48.4352 154.498 48.4752 154.458 48.5052C154.948 48.9652 155.648 49.3252 156.098 49.5152C157.068 49.9152 158.128 50.0352 159.178 50.1152C160.918 50.2452 162.678 50.2552 164.408 50.0452C165.138 49.9552 165.908 49.8052 166.448 49.3052C166.798 48.9752 167.008 48.5452 167.168 48.0852L167.178 48.0752Z" fill="white"/>
<path d="M151.388 36.9551C151.368 37.9851 152.188 38.8451 153.218 38.8551C154.248 38.8651 155.108 38.0551 155.118 37.0251C155.138 35.9951 154.318 35.1351 153.288 35.1251C152.258 35.1051 151.408 35.9251 151.388 36.9551Z" fill="#001627"/>
<path d="M153.258 37.2652C153.258 37.6452 153.548 37.9552 153.928 37.9652C154.308 37.9652 154.618 37.6752 154.628 37.2952C154.628 36.9152 154.338 36.6052 153.958 36.5952C153.578 36.5952 153.268 36.8852 153.258 37.2652Z" fill="white"/>
<path d="M165.848 37.2251C165.828 38.2551 166.648 39.1151 167.678 39.1251C168.708 39.1451 169.558 38.3251 169.578 37.2951C169.598 36.2651 168.778 35.4151 167.748 35.3951C166.718 35.3751 165.858 36.1951 165.848 37.2251Z" fill="#001627"/>
<path d="M167.718 37.5352C167.718 37.9152 168.008 38.2252 168.388 38.2352C168.768 38.2352 169.078 37.9452 169.088 37.5652C169.088 37.1852 168.798 36.8752 168.418 36.8652C168.038 36.8652 167.728 37.1552 167.718 37.5352Z" fill="white"/>
<path d="M155.348 30.9151C152.688 29.2351 149.188 29.2551 146.618 31.1251C146.138 31.4751 146.038 32.1951 146.388 32.6651C146.748 33.1451 147.448 33.2451 147.928 32.8951C148.988 32.1251 150.318 31.8151 151.608 31.9251C152.258 31.9851 152.908 32.1451 153.508 32.4051C154.038 32.6351 154.558 33.0451 155.158 32.7551C155.298 32.6851 155.428 32.5851 155.528 32.4551C155.868 32.0351 155.858 31.2251 155.358 30.9051L155.348 30.9151Z" fill="#001627"/>
<path d="M173.538 30.9952C170.878 29.3152 167.378 29.3352 164.808 31.2052C164.328 31.5552 164.228 32.2752 164.578 32.7452C164.938 33.2252 165.638 33.3252 166.118 32.9752C167.178 32.2052 168.508 31.8952 169.798 32.0052C170.448 32.0652 171.098 32.2252 171.698 32.4852C172.228 32.7152 172.748 33.1252 173.348 32.8352C173.488 32.7652 173.618 32.6652 173.718 32.5352C174.058 32.1152 174.048 31.3052 173.548 30.9852L173.538 30.9952Z" fill="#001627"/>
<path d="M182.628 11.8251C182.628 11.8251 185.928 4.65514 174.988 1.88514C169.758 0.555142 164.328 -0.144858 158.928 0.0251423C156.198 0.115142 153.468 0.425142 150.798 1.01514C145.348 2.23514 139.798 5.62514 138.058 11.1951C137.238 13.8051 137.078 16.6051 136.778 19.2951C136.448 22.2651 136.218 25.2351 135.888 28.2051C135.688 29.9751 135.778 31.7951 135.948 33.5751C135.998 34.0751 136.928 38.7651 136.788 38.8451C141.188 36.2051 144.018 30.1151 143.538 23.2351C143.518 23.0151 143.488 22.7951 143.468 22.5851C147.038 21.6651 151.518 19.4951 155.968 17.8251C154.928 19.0151 153.928 20.5151 153.278 22.3451C152.898 23.4151 154.238 24.2751 155.088 23.5151L163.788 15.7151C166.418 15.4251 168.808 15.7751 170.718 17.2351C171.868 18.1151 172.788 18.9451 173.538 19.7151C173.468 20.5351 173.458 21.3751 173.518 22.2351C173.978 28.7951 178.138 34.0751 183.478 35.6651C183.528 35.9951 183.548 36.1951 183.548 36.1951C183.548 36.1951 183.608 36.0351 183.718 35.7351C183.848 35.7751 183.978 35.8151 184.108 35.8451C184.128 35.3951 184.138 34.9351 184.148 34.4851C185.648 29.9051 189.008 17.3151 182.628 11.8251Z" fill="#001627"/>
<path d="M187.578 44.5151C185.078 47.5851 181.078 48.4651 178.648 46.4851C176.208 44.5051 176.268 40.4051 178.758 37.3351C181.258 34.2651 185.258 33.3851 187.688 35.3651C190.128 37.3451 190.078 41.4451 187.578 44.5151Z" fill="#FFB99F"/>
<path d="M185.488 37.415C184.548 37.065 183.378 37.235 182.358 37.875C181.848 38.195 181.498 38.545 181.278 38.955C180.988 39.495 180.968 40.135 181.228 40.625C181.458 41.055 181.858 41.315 182.218 41.535C182.478 41.695 182.718 41.845 182.868 42.045C183.098 42.345 183.108 42.815 182.888 43.125C182.668 43.435 182.228 43.585 181.858 43.475C181.638 43.405 181.418 43.525 181.348 43.745C181.278 43.955 181.398 44.185 181.618 44.255C181.848 44.325 182.098 44.345 182.338 44.315C182.818 44.255 183.278 43.995 183.558 43.595C183.978 42.995 183.958 42.135 183.518 41.545C183.278 41.225 182.948 41.025 182.648 40.835C182.358 40.655 182.078 40.475 181.948 40.235C181.818 39.995 181.838 39.635 181.998 39.335C182.058 39.215 182.158 39.095 182.268 38.985C182.668 38.935 183.188 38.985 183.478 39.235C183.808 39.515 183.998 39.945 183.978 40.375C183.978 40.595 184.148 40.785 184.368 40.795C184.388 40.795 184.408 40.795 184.438 40.795C184.628 40.775 184.788 40.605 184.788 40.405C184.818 39.725 184.518 39.055 183.998 38.615C183.808 38.455 183.578 38.355 183.338 38.275C183.988 38.005 184.648 37.965 185.198 38.165C185.868 38.415 186.458 39.225 186.228 39.965C186.158 40.175 186.278 40.405 186.498 40.475C186.708 40.545 186.938 40.425 187.008 40.205C187.348 39.125 186.658 37.835 185.498 37.395L185.488 37.415Z" fill="#C16B5B"/>
<path d="M132.818 45.3052C135.408 48.2952 139.428 49.0652 141.808 47.0052C144.188 44.9552 144.018 40.8652 141.428 37.8652C138.838 34.8752 134.818 34.1052 132.438 36.1652C130.058 38.2152 130.228 42.3052 132.818 45.3052Z" fill="#FFB99F"/>
<path d="M134.698 38.1553C135.628 37.7753 136.798 37.9053 137.838 38.5253C138.358 38.8253 138.718 39.1753 138.948 39.5753C139.258 40.1053 139.288 40.7453 139.048 41.2453C138.828 41.6853 138.438 41.9453 138.088 42.1853C137.838 42.3553 137.598 42.5153 137.448 42.7153C137.228 43.0253 137.228 43.4953 137.448 43.8053C137.678 44.1153 138.118 44.2453 138.488 44.1253C138.698 44.0553 138.928 44.1653 139.008 44.3753C139.078 44.5853 138.968 44.8153 138.758 44.8953C138.528 44.9753 138.278 45.0053 138.038 44.9753C137.558 44.9253 137.098 44.6853 136.798 44.2953C136.358 43.7053 136.348 42.8453 136.778 42.2453C137.008 41.9253 137.338 41.7053 137.628 41.5153C137.918 41.3253 138.188 41.1453 138.308 40.8953C138.428 40.6453 138.398 40.2953 138.228 39.9953C138.158 39.8753 138.058 39.7653 137.948 39.6553C137.548 39.6153 137.028 39.6853 136.748 39.9453C136.428 40.2353 136.248 40.6753 136.278 41.0953C136.288 41.3153 136.118 41.5153 135.898 41.5253C135.878 41.5253 135.858 41.5253 135.828 41.5253C135.638 41.5053 135.478 41.3453 135.458 41.1453C135.408 40.4653 135.688 39.7853 136.198 39.3353C136.388 39.1653 136.608 39.0653 136.848 38.9753C136.198 38.7253 135.528 38.7053 134.988 38.9253C134.318 39.1953 133.758 40.0153 134.018 40.7553C134.088 40.9653 133.978 41.1953 133.768 41.2753C133.558 41.3453 133.328 41.2353 133.248 41.0253C132.878 39.9553 133.528 38.6453 134.678 38.1753L134.698 38.1553Z" fill="#C16B5B"/>
<path d="M146.178 67.6152C146.178 67.6152 149.438 72.0252 153.618 73.6352C154.748 74.0752 155.628 74.9852 156.058 76.1152L157.398 79.6652C151.338 79.9752 147.368 78.0552 145.488 73.9252L146.168 67.6052L146.178 67.6152Z" fill="white"/>
<path d="M174.678 69.6352C170.908 72.1652 167.118 73.7452 163.278 74.0752C161.948 74.1952 160.798 75.0652 160.418 76.3452L159.428 79.6952C165.938 79.3852 171.518 78.1853 174.678 74.6553V69.6252V69.6352Z" fill="white"/>
<path d="M136.668 169.405L130.818 167.275C130.098 167.015 129.298 167.355 128.988 168.065L128.968 168.105C128.488 169.225 128.998 170.525 130.118 171.015L134.618 173.005L135.798 174.695L132.288 175.625L124.568 178.005C123.898 178.215 123.248 178.475 122.628 178.795L116.818 181.765C116.028 182.275 115.828 183.345 116.398 184.095C116.798 184.615 117.508 184.785 118.098 184.505L124.428 182.025L129.898 181.705L125.118 183.345C124.708 183.485 124.338 183.715 124.038 184.015L118.798 189.225C118.288 189.675 118.268 190.465 118.768 190.935L119.048 191.205C119.818 191.935 121.028 191.945 121.818 191.225L126.338 187.075L132.608 186.195L128.158 187.815C127.548 188.035 126.998 188.365 126.508 188.795L121.738 192.995C121.168 193.495 121.148 194.365 121.688 194.895L121.838 195.045C122.658 195.855 123.938 195.935 124.858 195.255L129.948 191.465L134.558 190.565L130.958 192.395C130.328 192.715 129.758 193.135 129.248 193.625L125.078 197.765C124.488 198.355 124.518 199.325 125.148 199.875C126.048 200.665 127.398 200.625 128.258 199.785L131.578 196.545L138.978 193.275L143.628 192.665C146.748 191.635 149.288 189.345 150.628 186.355L152.508 182.165C152.508 182.165 149.028 175.785 145.108 172.515C142.688 170.495 137.388 169.685 136.648 169.415L136.668 169.405Z" fill="#FFB99F"/>
<path d="M173.548 100.775L191.708 148.045L141.038 174.655L145.658 188.465L203.768 165.655C212.678 162.155 217.178 152.205 213.908 143.205L195.178 91.5552L173.548 100.765V100.775Z" fill="#FFB99F"/>
<path d="M147.748 169.875C149.638 175.605 152.368 180.765 156.088 185.235L161.278 183.285C159.248 177.325 157.228 172.495 153.868 166.655L147.738 169.875H147.748Z" fill="#15324F"/>
<path d="M159.868 175.945C159.868 179.055 157.348 181.585 154.228 181.585C151.108 181.585 148.588 179.065 148.588 175.945C148.588 172.825 151.108 170.305 154.228 170.305C157.348 170.305 159.868 172.825 159.868 175.945Z" fill="white"/>
<path d="M154.328 177.125C154.138 177.125 153.948 177.025 153.848 176.845L152.358 174.225C152.208 173.955 152.298 173.615 152.568 173.465C152.828 173.315 153.168 173.405 153.328 173.675L154.538 175.815L157.198 174.315C157.458 174.165 157.798 174.255 157.958 174.525C158.108 174.795 158.018 175.125 157.748 175.285L154.608 177.055C154.518 177.105 154.428 177.125 154.338 177.125H154.328Z" fill="#15324F"/>
<path d="M189.048 79.0151C189.048 79.0151 175.588 76.0851 169.188 90.0551C165.748 97.5851 182.738 134.845 182.738 134.845C182.738 134.845 204.008 135.675 214.668 127.025C214.668 127.025 207.808 95.9251 189.048 79.0151Z" fill="#15324F"/>
<path d="M211.558 116.405C201.068 121.095 189.768 123.835 178.298 124.475C178.768 125.625 179.228 126.715 179.648 127.725C191.008 126.955 202.188 124.175 212.598 119.565C212.288 118.585 211.938 117.525 211.558 116.405Z" fill="#94D3D3"/>
</g>
</svg>
