<svg width="185" height="177" viewBox="0 0 185 177" fill="none" xmlns="http://www.w3.org/2000/svg">
<g id="Group 57" opacity="0.5">
<path id="Vector" d="M167.973 173.156H30.048C22.4343 173.156 16.2555 166.977 16.2555 159.363V78.8351C16.2555 74.4232 18.3651 70.279 21.931 67.6876L89.8122 18.2786C92.1454 16.5813 94.9519 15.6582 97.837 15.639C100.722 15.6198 103.541 16.5055 105.896 18.1715L175.941 67.6983C179.592 70.279 181.766 74.4768 181.766 78.9636V159.374C181.766 166.977 175.587 173.156 167.973 173.156Z" fill="#787CF5"/>
<path id="Vector_2" d="M3.21255 78.4174C1.43494 78.4174 0 76.9825 0 75.2049V71.3927C0 65.6315 2.78421 60.1595 7.44241 56.7649L21.6847 46.3991C23.1196 45.3496 25.1328 45.6709 26.1716 47.1058C27.2103 48.5408 26.8997 50.5539 25.4648 51.5927L11.2225 61.9585C9.73729 63.043 8.52882 64.4625 7.69525 66.1017C6.86167 67.7409 6.42651 69.5537 6.4251 71.3927V75.2049C6.4251 76.9825 4.99016 78.4174 3.21255 78.4174ZM3.21255 113.734C1.43494 113.734 0 112.299 0 110.522V89.7899C0 88.0123 1.43494 86.5773 3.21255 86.5773C4.99016 86.5773 6.4251 88.0123 6.4251 89.7899V110.522C6.4251 112.299 4.99016 113.734 3.21255 113.734ZM69.6695 18.664C68.6736 18.664 67.6991 18.2036 67.0673 17.3469C66.0286 15.912 66.3391 13.8988 67.7741 12.86L80.6671 3.46869C83.7259 1.24034 87.4065 0.0273508 91.1909 0.000457058C94.9752 -0.0264366 98.6727 1.13412 101.763 3.31877L115.148 12.7851C116.594 13.8131 116.937 15.8156 115.919 17.2612C115.427 17.955 114.679 18.4255 113.84 18.57C113.002 18.7144 112.14 18.5211 111.443 18.0322L98.0577 8.56593C93.9671 5.67464 88.5057 5.71747 84.4579 8.66231L71.5649 18.0537C70.9866 18.4606 70.3227 18.664 69.6695 18.664Z" fill="#333333"/>
<path id="Vector_3" d="M152.457 146.845H43.7978C41.5711 146.845 39.4357 145.96 37.8613 144.386C36.2868 142.811 35.4023 140.676 35.4023 138.449V33.2919C35.4023 31.0653 36.2868 28.9299 37.8613 27.3555C39.4357 25.781 41.5711 24.8965 43.7978 24.8965H152.446C154.673 24.8965 156.808 25.781 158.383 27.3555C159.957 28.9299 160.842 31.0653 160.842 33.2919V138.449C160.852 143.086 157.094 146.845 152.457 146.845Z" fill="#ECD300"/>
<path id="Vector_4" d="M160.552 140.634C160.745 139.938 160.852 139.21 160.852 138.449V33.2919C160.852 31.0653 159.968 28.9299 158.393 27.3555C156.819 25.781 154.683 24.8965 152.457 24.8965H147.242V101.452L53.2748 142.133L59.914 146.845H142.134L160.552 140.634Z" fill="#E8A200"/>
<path id="Vector_5" d="M152.457 150.057H32.0934C25.6897 150.057 20.4854 144.853 20.4854 138.449V29.6297C20.4854 20.3133 28.067 12.7424 37.3727 12.7424H147.167C156.483 12.7424 164.054 20.3133 164.054 29.6297V138.449C164.065 144.853 158.85 150.057 152.457 150.057ZM37.3834 19.1675C31.6115 19.1675 26.9212 23.8579 26.9212 29.6297V138.449C26.9212 141.309 29.2449 143.632 32.1041 143.632H152.457C155.316 143.632 157.64 141.309 157.64 138.449V29.6297C157.64 23.8579 152.949 19.1675 147.178 19.1675H37.3834Z" fill="#333333"/>
<path id="Vector_6" d="M26.1716 170.286H167.256C168.841 170.286 170.351 170.007 171.764 169.515L16.1056 101.045V160.22C16.1056 165.778 20.6139 170.286 26.1716 170.286Z" fill="#8F93FB"/>
<path id="Vector_7" d="M16.1056 159.063V160.22C16.1056 165.777 20.6139 170.286 26.1716 170.286L96.9761 138.075L79.714 131.339L16.1056 159.063Z" fill="#787CF5"/>
<path id="Vector_8" d="M181.766 158.271V100.284L140.356 118.264L132.004 121.894L125.15 124.871L14.7991 172.77C15.8593 173.017 16.9623 173.145 18.0974 173.145H166.892C175.105 173.156 181.766 166.495 181.766 158.271Z" fill="#8F93FB"/>
<path id="Vector_9" d="M168.209 155.379C168.209 162.319 168.048 173.038 151.022 173.038C151.065 173.081 151.108 173.113 151.14 173.156H166.881C175.095 173.156 181.755 166.495 181.755 158.281V100.295L168.809 105.917L168.198 106.517C168.209 106.506 168.209 148.44 168.209 155.379Z" fill="#787CF5"/>
<path id="Vector_10" d="M3.21255 128.555C4.99016 128.555 6.4251 127.12 6.4251 125.342V121.005C6.4251 119.228 4.99016 117.793 3.21255 117.793C1.43494 117.793 0 119.228 0 121.005V125.342C0 127.12 1.44565 128.555 3.21255 128.555Z" fill="#333333"/>
<path id="Vector_11" d="M177.333 56.7543L163.658 47.0845C163.313 46.8411 162.924 46.6679 162.513 46.5749C162.102 46.4819 161.676 46.4708 161.26 46.5424C160.844 46.614 160.447 46.7669 160.09 46.9922C159.734 47.2175 159.425 47.5109 159.182 47.8555C158.937 48.1996 158.763 48.5887 158.67 49.0003C158.576 49.4119 158.565 49.838 158.636 50.254C158.708 50.67 158.861 51.0677 159.087 51.4243C159.313 51.7809 159.607 52.0893 159.953 52.3317L173.628 62.0015C176.712 64.186 178.553 67.7412 178.553 71.532V98.1855L143.151 113.552C142.369 113.892 141.754 114.528 141.441 115.321C141.127 116.115 141.142 117 141.481 117.782C141.821 118.564 142.457 119.179 143.25 119.492C144.043 119.806 144.928 119.791 145.711 119.453L178.564 105.189V158.282C178.564 164.717 173.328 169.943 166.903 169.943H29.3841L132.507 125.182C133.289 124.842 133.904 124.205 134.217 123.412C134.531 122.619 134.516 121.734 134.177 120.952C133.838 120.17 133.201 119.554 132.408 119.241C131.615 118.928 130.73 118.942 129.948 119.281L94.3311 134.744L4.50828 95.2406C2.88059 94.5232 0.985187 95.262 0.278427 96.8897C-0.439042 98.5174 0.299845 100.413 1.92754 101.12L86.3105 138.235L14.5421 169.386C9.84111 167.876 6.43581 163.475 6.43581 158.282V137.882C6.43581 136.104 5.00087 134.669 3.22326 134.669C1.44565 134.669 0.0107146 136.104 0.0107146 137.882V158.282C0.0107146 166.848 6.00747 174.034 14.0174 175.886C14.0496 175.897 14.071 175.908 14.0924 175.908C14.1138 175.908 14.1245 175.908 14.1459 175.918C14.7777 176.058 15.4202 176.175 16.0842 176.25C16.0949 176.25 16.1056 176.25 16.127 176.261C16.7802 176.336 17.4441 176.379 18.1188 176.379H166.913C176.894 176.379 185 168.262 185 158.292V71.5213C184.988 68.6275 184.287 65.7783 182.953 63.21C181.62 60.6418 179.693 58.4286 177.333 56.7543Z" fill="#333333"/>
<path id="Vector_12" d="M119.871 59.0564C114.056 52.8347 104.622 52.8347 98.8073 59.0564L94.5989 63.5646L94.5453 63.5111V63.479L94.5239 63.5004L94.5025 63.479V63.5111L94.449 63.5646L90.2405 59.0564C84.4258 52.8347 74.9916 52.8347 69.1769 59.0564C63.3622 65.278 63.3622 75.3654 69.1769 81.587L91.4827 105.446C92.2751 106.292 93.3353 106.763 94.449 106.763C94.4704 106.763 94.4918 106.763 94.5239 106.752C94.5453 106.752 94.5667 106.763 94.5989 106.763C95.7126 106.763 96.7834 106.292 97.5651 105.446L119.871 81.587C125.686 75.3654 125.686 65.278 119.871 59.0564Z" fill="#FF6339"/>
<path id="Vector_13" d="M119.871 59.0566C118.322 57.3874 116.404 56.1038 114.27 55.3086C118.072 59.2065 120.674 66.6917 115.063 72.742C108.049 80.3022 90.7973 97.6393 86.2676 102.008L91.4827 105.446C92.2751 106.292 93.3353 106.763 94.4489 106.763C94.4704 106.763 94.4918 106.763 94.5239 106.752C94.5453 106.752 94.5667 106.763 94.5989 106.763C95.7125 106.763 96.7834 106.292 97.5651 105.446L119.871 81.5872C125.686 75.3656 125.686 65.2782 119.871 59.0566Z" fill="#F94A21"/>
<path id="Vector_14" d="M91.9432 110.168H91.7825C89.6408 110.168 87.6276 109.333 86.1177 107.823L70.4191 92.1243C69.8175 91.522 69.4796 90.7055 69.4796 89.8541C69.4796 89.0028 69.8175 88.1863 70.4191 87.5839C71.0214 86.9823 71.838 86.6444 72.6893 86.6444C73.5406 86.6444 74.3571 86.9823 74.9595 87.5839L90.6581 103.283C90.9366 103.561 91.3007 103.722 91.6862 103.743C91.804 103.732 91.9217 103.743 92.0288 103.743C92.4143 103.722 92.7784 103.561 93.0568 103.283L118.532 77.8071C121.135 75.2049 122.569 71.7353 122.569 68.0516C122.569 64.3679 121.135 60.8984 118.532 58.2962C117.254 57.0121 115.733 55.9941 114.059 55.3012C112.384 54.6082 110.589 54.254 108.777 54.2591C105.093 54.2591 101.624 55.694 99.0215 58.2962L94.2134 63.1043C93.4316 63.886 92.3608 64.1859 91.3542 63.9931C90.6796 63.9074 90.0156 63.6183 89.5016 63.1043L84.6935 58.2962C83.4148 57.0121 81.8943 55.9941 80.2199 55.3012C78.5454 54.6082 76.7502 54.254 74.9381 54.2591C71.2543 54.2591 67.7848 55.694 65.1826 58.2962C62.5805 60.8984 61.1455 64.3679 61.1455 68.0516C61.1455 71.7353 62.5805 75.2049 65.1826 77.8071L67.6135 80.2379C68.2151 80.8402 68.553 81.6568 68.553 82.5081C68.553 83.3594 68.2151 84.1759 67.6135 84.7783C67.0111 85.3799 66.1946 85.7178 65.3433 85.7178C64.4919 85.7178 63.6754 85.3799 63.0731 84.7783L60.6422 82.3475C56.8193 78.5245 54.7204 73.4487 54.7204 68.0516C54.7204 62.6545 56.8193 57.568 60.6422 53.7558C64.4652 49.9328 69.541 47.834 74.9381 47.834C80.3351 47.834 85.4217 49.9328 89.2339 53.7558L91.8575 56.3794L94.4811 53.7558C98.304 49.9328 103.38 47.834 108.777 47.834C114.174 47.834 119.261 49.9328 123.073 53.7558C126.896 57.5787 128.995 62.6545 128.995 68.0516C128.995 73.4487 126.896 78.5352 123.073 82.3475L97.5972 107.823C96.8576 108.569 95.9767 109.161 95.006 109.564C94.0352 109.967 92.9941 110.172 91.9432 110.168Z" fill="#333333"/>
<path id="Vector_15" d="M25.3149 140.505C24.9633 140.505 24.6152 140.436 24.2904 140.302C23.9656 140.167 23.6705 139.97 23.4219 139.721C23.1733 139.473 22.9761 139.178 22.8415 138.853C22.707 138.528 22.6378 138.18 22.6378 137.828V126.981C22.6378 126.271 22.9198 125.59 23.4219 125.088C23.9239 124.586 24.6049 124.303 25.3149 124.303C26.0249 124.303 26.7058 124.586 27.2079 125.088C27.7099 125.59 27.992 126.271 27.992 126.981V137.828C27.992 138.538 27.7099 139.219 27.2079 139.721C26.7058 140.223 26.0249 140.505 25.3149 140.505ZM76.8763 81.0947C76.2873 81.0947 75.6984 80.9019 75.1951 80.5057C72.111 78.0213 70.3977 75.1515 70.0978 71.9603C69.6588 67.345 72.4001 63.9932 72.7107 63.6184C73.6744 62.494 75.3557 62.3548 76.4801 63.3186C77.0189 63.7758 77.355 64.4276 77.4152 65.1317C77.4754 65.8358 77.2547 66.5352 76.8013 67.0772C76.7478 67.1522 75.1843 69.1119 75.4306 71.5106C75.602 73.1918 76.6514 74.8195 78.5575 76.3401C79.714 77.2717 79.8961 78.953 78.9644 80.0988C78.429 80.752 77.658 81.0947 76.8763 81.0947ZM45.1791 53.3597C44.8276 53.3597 44.4795 53.2904 44.1547 53.1559C43.8298 53.0213 43.5347 52.8241 43.2861 52.5756C43.0375 52.327 42.8403 52.0318 42.7058 51.707C42.5713 51.3822 42.502 51.0341 42.502 50.6825V49.6866C42.502 48.9766 42.7841 48.2957 43.2861 47.7936C43.7882 47.2916 44.4691 47.0095 45.1791 47.0095C45.8892 47.0095 46.5701 47.2916 47.0722 47.7936C47.5742 48.2957 47.8563 48.9766 47.8563 49.6866V50.6825C47.8563 51.0341 47.787 51.3822 47.6525 51.707C47.5179 52.0318 47.3207 52.327 47.0722 52.5756C46.8236 52.8241 46.5284 53.0213 46.2036 53.1559C45.8788 53.2904 45.5307 53.3597 45.1791 53.3597Z" fill="white"/>
<path id="Vector_16" d="M45.1791 44.4501C44.4691 44.4501 43.7882 44.1681 43.2861 43.666C42.7841 43.164 42.502 42.483 42.502 41.773V41.2162C42.502 36.74 46.1429 33.0991 50.6191 33.0991H66.821C67.531 33.0991 68.212 33.3812 68.714 33.8832C69.2161 34.3853 69.4981 35.0662 69.4981 35.7762C69.4981 36.4863 69.2161 37.1672 68.714 37.6693C68.212 38.1713 67.531 38.4534 66.821 38.4534H50.6191C49.0984 38.4534 47.8563 39.6956 47.8563 41.2162V41.773C47.8563 43.2615 46.6569 44.4501 45.1791 44.4501Z" fill="white"/>
</g>
</svg>
