<svg width="31" height="29" viewBox="0 0 31 29" fill="none" xmlns="http://www.w3.org/2000/svg">
<g id="Group">
<g id="Group_2">
<path id="Vector" d="M7.28993 6.75793e-05L5.59886 8.85132H0V9.96276H1.11151V17.1554V18.267V18.8228H2.21444V18.267H3.76496L1.65861 28.7878H29.3413L27.235 18.267H28.7855V18.8228H29.8971V9.96276H31V8.85132H25.4401L23.7187 0L7.28993 6.75793e-05Z" fill="#5A3392"/>
<path id="Vector_2" d="M8.20464 1.10303H22.804L24.3112 8.85142H6.73412L8.20464 1.10303Z" fill="#29A3EC"/>
<path id="Vector_3" d="M8.7862 1.70459H22.2254L23.6128 8.83716H7.43256L8.7862 1.70459Z" fill="#3CDEF6"/>
<path id="Vector_4" d="M11.6215 4.63525C10.7108 4.63525 9.96278 5.38325 9.96278 6.29394C9.96278 7.20463 10.7107 7.96127 11.6215 7.96127C12.5321 7.96127 13.2888 7.20463 13.2888 6.29394C13.2888 5.38325 12.5321 4.63525 11.6215 4.63525Z" fill="#5A3392"/>
<path id="Vector_5" d="M11.6214 5.74707C11.9337 5.74707 12.1772 5.98187 12.1772 6.29418C12.1772 6.60627 11.9337 6.84993 11.6214 6.84993C11.3091 6.84993 11.0743 6.60634 11.0743 6.29418C11.0743 5.98194 11.3091 5.74707 11.6214 5.74707Z" fill="white"/>
<g id="Group_3">
<path id="Vector_6" d="M2.21443 9.9624H3.87312V11.6234H2.21443V9.9624Z" fill="#EE746C"/>
<path id="Vector_7" d="M4.98466 9.9624H6.64334V11.6234H4.98466V9.9624Z" fill="#EE746C"/>
<path id="Vector_8" d="M7.74841 9.9624H9.41574V11.6234H7.74841V9.9624Z" fill="#EE746C"/>
<path id="Vector_9" d="M10.5186 9.9624H12.1773V11.6234H10.5186V9.9624Z" fill="#EE746C"/>
<path id="Vector_10" d="M13.2888 9.9624H14.9475V11.6234H13.2888V9.9624Z" fill="#EE746C"/>
<path id="Vector_11" d="M16.0526 9.9624H17.7199V11.6234H16.0526V9.9624Z" fill="#EE746C"/>
<path id="Vector_12" d="M18.8228 9.9624H20.4814V11.6234H18.8228V9.9624Z" fill="#EE746C"/>
<path id="Vector_13" d="M21.5929 9.9624H23.2516V11.6234H21.5929V9.9624Z" fill="#EE746C"/>
<path id="Vector_14" d="M24.3567 9.9624H26.024V11.6234H24.3567V9.9624Z" fill="#EE746C"/>
<path id="Vector_15" d="M27.1269 9.9624H28.7856V11.6234H27.1269V9.9624Z" fill="#EE746C"/>
<path id="Vector_16" d="M2.21445 12.7266H3.87313V14.3939H2.21445V12.7266Z" fill="#EE746C"/>
<path id="Vector_17" d="M4.98466 12.7266H6.64334V14.3939H4.98466V12.7266Z" fill="#EE746C"/>
<path id="Vector_18" d="M7.74841 12.7266H9.41574V14.3939H7.74841V12.7266Z" fill="#EE746C"/>
<path id="Vector_19" d="M10.5186 12.7266H12.1773V14.3939H10.5186V12.7266Z" fill="#EE746C"/>
<path id="Vector_20" d="M13.2888 12.7266H14.9475V14.3939H13.2888V12.7266Z" fill="#EE746C"/>
<path id="Vector_21" d="M16.0526 12.7266H17.7199V14.3939H16.0526V12.7266Z" fill="#EE746C"/>
<path id="Vector_22" d="M18.8228 12.7266H20.4814V14.3939H18.8228V12.7266Z" fill="#EE746C"/>
<path id="Vector_23" d="M21.5929 12.7266H23.2516V14.3939H21.5929V12.7266Z" fill="#EE746C"/>
<path id="Vector_24" d="M24.3567 12.7266H26.024V14.3939H24.3567V12.7266Z" fill="#EE746C"/>
<path id="Vector_25" d="M27.1269 12.7266H28.7856V14.3939H27.1269V12.7266Z" fill="#EE746C"/>
<path id="Vector_26" d="M2.21445 15.4966H3.87313V17.1553H2.21445V15.4966Z" fill="#EE746C"/>
<path id="Vector_27" d="M4.98466 15.4966H6.64334V17.1553H4.98466V15.4966Z" fill="#EE746C"/>
<path id="Vector_28" d="M7.74841 15.4966H9.41574V17.1553H7.74841V15.4966Z" fill="#EE746C"/>
<path id="Vector_29" d="M10.5186 15.4966H12.1773V17.1553H10.5186V15.4966Z" fill="#EE746C"/>
<path id="Vector_30" d="M13.2888 15.4966H14.9475V17.1553H13.2888V15.4966Z" fill="#EE746C"/>
<path id="Vector_31" d="M16.0526 15.4966H17.7199V17.1553H16.0526V15.4966Z" fill="#EE746C"/>
<path id="Vector_32" d="M18.8228 15.4966H20.4814V17.1553H18.8228V15.4966Z" fill="#EE746C"/>
<path id="Vector_33" d="M21.5929 15.4966H23.2516V17.1553H21.5929V15.4966Z" fill="#EE746C"/>
<path id="Vector_34" d="M24.3567 15.4966H26.024V17.1553H24.3567V15.4966Z" fill="#EE746C"/>
<path id="Vector_35" d="M27.1269 15.4966H28.7856V17.1553H27.1269V15.4966Z" fill="#EE746C"/>
</g>
<path id="Vector_36" d="M4.89598 18.2671H26.104L27.9941 27.6763H3.00589L4.89598 18.2671Z" fill="#29A3EC"/>
<path id="Vector_37" d="M5.6008 18.3721H25.3992L27.1636 27.1559H3.8363L5.6008 18.3721Z" fill="#3CDEF6"/>
</g>
<path id="Vector_38" d="M2.78972 10.5156H28.2558V16.6053H2.78972V10.5156Z" fill="#FB9761"/>
<g id="Group_4">
<path id="Vector_39" d="M14.9464 9.68701V17.7144H16.0536V9.68701H14.9464Z" fill="#5A3392"/>
<path id="Vector_40" d="M3.87416 9.68701V17.7144H4.98138V9.68701H3.87416Z" fill="#5A3392"/>
<path id="Vector_41" d="M6.6422 9.68701V17.7144H7.74942V9.68701H6.6422Z" fill="#5A3392"/>
<path id="Vector_42" d="M9.41026 9.68701V17.7144H10.5175V9.68701H9.41026Z" fill="#5A3392"/>
<path id="Vector_43" d="M12.1783 9.68701V17.7144H13.2855V9.68701H12.1783Z" fill="#5A3392"/>
<path id="Vector_44" d="M17.7144 9.68701V17.7144H18.8216V9.68701H17.7144Z" fill="#5A3392"/>
<path id="Vector_45" d="M20.4825 9.68701V17.7144H21.5897V9.68701H20.4825Z" fill="#5A3392"/>
<path id="Vector_46" d="M23.2505 9.68701V17.7144H24.3577V9.68701H23.2505Z" fill="#5A3392"/>
<path id="Vector_47" d="M26.0185 9.68701V17.7144H27.1258V9.68701H26.0185Z" fill="#5A3392"/>
<path id="Vector_48" d="M1.38292 11.625V12.7322H29.617V11.625H1.38292Z" fill="#5A3392"/>
<path id="Vector_49" d="M1.38292 14.3931V15.5003H29.617V14.3931H1.38292Z" fill="#5A3392"/>
</g>
</g>
</svg>
