<svg width="127" height="101" viewBox="0 0 127 101" fill="none" xmlns="http://www.w3.org/2000/svg">
<g id="court">
<path id="Vector" d="M0 58.1782L72.5477 100.161L127 68.8789L55.2636 27.4636L0 58.1782Z" fill="#94E155"/>
<path id="Vector_2" opacity="0.41" d="M69.9232 60.6729L51.2965 71.8359C51.7549 72.0417 52.1206 72.4103 52.3228 72.8703C54.3063 77.024 58.2207 79.9729 62.058 82.3418C65.3031 84.37 66.3699 84.1631 69.9273 84.7756C80.2466 78.4599 93.4176 71.6493 96.2611 69.0898L96.2164 62.7375L69.9232 60.6729Z" fill="url(#paint0_linear_8_375)"/>
<g id="Group">
<path id="Vector_3" d="M6.11288 61.0054L60.9343 29.7554" stroke="white" stroke-width="3.53997" stroke-miterlimit="10"/>
<path id="Vector_4" d="M65.4288 95.9914L120.25 64.7373" stroke="white" stroke-width="3.53997" stroke-miterlimit="10"/>
<path id="Vector_5" d="M4.29974 60.8474V31.4105" stroke="#754C24" stroke-width="2.12398" stroke-miterlimit="10"/>
<path id="Vector_6" d="M72.7748 70.1808V99.6136" stroke="#754C24" stroke-width="2.12398" stroke-miterlimit="10"/>
<path id="Vector_7" d="M3.35864 30.2258L69.4283 68.3554V85.6922L3.39921 47.3111L3.35864 30.2258Z" stroke="#F2F2F2" stroke-width="1.41599" stroke-miterlimit="10"/>
<path id="Vector_8" d="M8.08832 32.9518C8.21001 33.0207 8.08832 50.0371 8.08832 50.0371" stroke="#F2F2F2" stroke-width="1.41599" stroke-miterlimit="10"/>
<path id="Vector_9" d="M13.5401 36.2292C13.6618 36.2982 13.5401 53.3146 13.5401 53.3146" stroke="#F2F2F2" stroke-width="1.41599" stroke-miterlimit="10"/>
<path id="Vector_10" d="M19.584 39.8475C19.7057 39.9165 19.584 56.9328 19.584 56.9328" stroke="#F2F2F2" stroke-width="1.41599" stroke-miterlimit="10"/>
<path id="Vector_11" d="M25.0439 43.1332C25.1655 43.2021 25.0439 60.2185 25.0439 60.2185" stroke="#F2F2F2" stroke-width="1.41599" stroke-miterlimit="10"/>
<path id="Vector_12" d="M30.7633 46.3093C30.885 46.3783 30.7633 63.3946 30.7633 63.3946" stroke="#F2F2F2" stroke-width="1.41599" stroke-miterlimit="10"/>
<path id="Vector_13" d="M36.2272 49.5829C36.3489 49.6518 36.2272 66.6682 36.2272 66.6682" stroke="#F2F2F2" stroke-width="1.41599" stroke-miterlimit="10"/>
<path id="Vector_14" d="M42.6524 53.0874C42.7741 53.1564 42.6524 70.1727 42.6524 70.1727" stroke="#F2F2F2" stroke-width="1.41599" stroke-miterlimit="10"/>
<path id="Vector_15" d="M48.1122 56.3611C48.2339 56.43 48.1122 73.4464 48.1122 73.4464" stroke="#F2F2F2" stroke-width="1.41599" stroke-miterlimit="10"/>
<path id="Vector_16" d="M53.4139 59.4844C53.5356 59.5533 53.4139 76.5697 53.4139 76.5697" stroke="#F2F2F2" stroke-width="1.41599" stroke-miterlimit="10"/>
<path id="Vector_17" d="M58.7034 62.2305V79.7458" stroke="#F2F2F2" stroke-width="1.41599" stroke-miterlimit="10"/>
<path id="Vector_18" d="M64.2444 65.4025C64.3661 65.4714 64.2444 82.4878 64.2444 82.4878" stroke="#F2F2F2" stroke-width="1.41599" stroke-miterlimit="10"/>
<path id="Vector_19" d="M3.35864 34.0389L68.6982 71.7305" stroke="#F2F2F2" stroke-width="1.41599" stroke-miterlimit="10"/>
<path id="Vector_20" d="M3.35864 38.7767L68.6982 76.4683" stroke="#F2F2F2" stroke-width="1.41599" stroke-miterlimit="10"/>
<path id="Vector_21" d="M3.35864 42.9873L68.6982 80.6748" stroke="#F2F2F2" stroke-width="1.41599" stroke-miterlimit="10"/>
</g>
<path id="Vector_22" d="M49.5523 37.7505C48.9868 37.7407 48.4305 37.8943 47.95 38.1926C46.7331 39.1013 46.1734 40.9266 46.5547 42.6303C46.8629 44.0135 47.7432 44.9546 48.9682 45.2101C49.8403 45.3927 50.9233 45.1047 51.2276 44.3056C51.3886 43.8074 51.4734 43.2877 51.4791 42.7641C51.4798 42.128 51.6052 41.4983 51.8482 40.9104C52.0789 40.4442 52.4168 40.0394 52.8342 39.7292C53.2516 39.4189 53.7367 39.2121 54.2495 39.1256C54.4524 39.0972 54.6268 39.0769 54.7809 39.0648C54.2189 38.0512 53.3251 37.2619 52.2498 36.8297C51.6508 37.2838 50.9456 37.577 50.2013 37.6815C49.9904 37.714 49.7673 37.7343 49.5523 37.7505Z" fill="#68E1FD"/>
<path id="Vector_23" d="M52.1646 41.0643C51.942 41.6117 51.829 42.1974 51.8319 42.7883C51.8235 43.3467 51.7305 43.9006 51.5561 44.4311C51.2438 45.2424 50.3392 45.6156 49.4955 45.6156C49.2952 45.6158 49.0954 45.5954 48.8992 45.5547C47.5363 45.2708 46.5587 44.2323 46.218 42.7153C45.8123 40.8818 46.437 38.9104 47.7432 37.9247C48.2745 37.5849 48.8933 37.4073 49.5239 37.4136C49.7308 37.4136 49.9295 37.3771 50.1486 37.3447C50.7571 37.2556 51.3387 37.0341 51.8522 36.6957C50.7505 36.3588 49.5666 36.4101 48.4982 36.8409C47.4297 37.2716 46.5413 38.0559 45.9813 39.0626C45.4213 40.0694 45.2236 41.2378 45.4211 42.3727C45.6186 43.5077 46.1995 44.5406 47.0667 45.299C47.9339 46.0573 49.035 46.4953 50.1861 46.5398C51.3373 46.5843 52.4689 46.2326 53.392 45.5434C54.3152 44.8541 54.974 43.8692 55.2585 42.7528C55.543 41.6365 55.436 40.4563 54.9553 39.4093C54.785 39.4093 54.574 39.4377 54.3023 39.4743C53.8467 39.5545 53.4162 39.74 53.0451 40.0161C52.6739 40.2921 52.3724 40.6511 52.1646 41.0643Z" fill="#68E1FD"/>
<path id="Vector_24" d="M54.2536 39.1255C53.7407 39.212 53.2557 39.4189 52.8383 39.7291C52.4208 40.0394 52.0829 40.4442 51.8522 40.9103C51.6092 41.4982 51.4838 42.128 51.4831 42.7641C51.4775 43.2876 51.3927 43.8073 51.2316 44.3055C50.9274 45.1167 49.8443 45.3926 48.9722 45.21C47.7553 44.9545 46.871 44.0134 46.5587 42.6302C46.1774 40.9265 46.7534 39.1012 47.9541 38.1926C48.4345 37.8942 48.9908 37.7407 49.5563 37.7504C49.7713 37.7504 49.9904 37.7139 50.2054 37.6774C50.9497 37.5729 51.6548 37.2796 52.2538 36.8256C52.124 36.7728 51.9901 36.7242 51.8482 36.6836C51.3346 37.022 50.753 37.2435 50.1445 37.3326C49.9417 37.3651 49.7389 37.3813 49.5198 37.4016C48.8892 37.3953 48.2704 37.5729 47.7391 37.9127C46.4289 38.9024 45.8042 40.8697 46.2139 42.7032C46.5546 44.2243 47.5322 45.2628 48.8952 45.5426C49.0913 45.5833 49.2911 45.6037 49.4914 45.6035C50.3473 45.6035 51.2397 45.2384 51.5521 44.419C51.7264 43.8885 51.8194 43.3346 51.8279 42.7762C51.825 42.1854 51.938 41.5997 52.1605 41.0523C52.3688 40.6386 52.6709 40.2793 53.0428 40.0032C53.4147 39.7271 53.846 39.5418 54.3023 39.4622C54.57 39.4216 54.785 39.4054 54.9553 39.3973C54.9012 39.281 54.8445 39.1674 54.785 39.0566C54.6349 39.0768 54.4605 39.0931 54.2536 39.1255Z" fill="white"/>
<path id="Vector_25" d="M80.4697 32.6475C80.4089 34.6027 81.8732 44.2243 83.009 47.4937C84.1447 50.7631 90.862 61.8572 91.8112 61.9424C92.7604 62.0276 94.46 61.5124 94.2694 60.3969C94.0787 59.2814 87.9658 46.9867 87.8522 45.8509C87.7387 44.7151 87.9658 29.9744 87.1424 29.0617C86.319 28.149 80.5711 29.0049 80.4697 32.6475Z" fill="#F18D69"/>
<path id="Vector_26" d="M93.9043 59.4479L95.3362 62.628L94.9874 64.2749L92.1114 62.8714L90.0833 59.959C90.0833 59.959 92.9308 60.174 93.9043 59.4479Z" fill="#F18D69"/>
<path id="Vector_27" d="M72.2637 16.5357C71.5092 17.5377 69.6312 20.6976 67.6841 21.594C65.7371 22.4905 64.0334 24.2509 63.8549 24.3969C63.6764 24.543 62.4879 25.6138 62.7841 25.8856C63.0802 26.1574 63.498 26.0033 64.1551 25.5246L64.4593 25.2325C64.8734 25.3393 65.3084 25.334 65.7197 25.2171C66.131 25.1002 66.5038 24.8759 66.7998 24.5673C66.7998 24.5673 67.3961 24.5673 67.4083 24.4862C67.4205 24.4051 74.4866 19.6591 74.9774 18.4625C75.4682 17.2659 76.3728 11.0962 76.3728 11.0962C76.3728 11.0962 74.872 9.06802 73.8132 9.30735C72.7545 9.54667 72.2637 16.5357 72.2637 16.5357Z" fill="#F18D69"/>
<path id="Vector_28" d="M74.6205 30.311C74.296 31.1547 72.5274 40.6952 72.1867 42.0987C71.7364 43.9038 69.3472 60.6808 70.0368 61.0865C70.7264 61.4921 69.9719 63.4432 71.8378 61.0865C73.7037 58.7297 78.762 40.8048 79.3299 39.8272C79.8978 38.8496 83.5647 27.8245 83.5647 27.8245" fill="#F18D69"/>
<path id="Vector_29" d="M92.5373 63.1391C92.5373 63.1391 91.8356 61.979 92.2412 61.6261C92.6469 61.2732 94.3749 60.896 94.5655 61.1921C94.7562 61.4882 94.5655 63.0012 94.6994 62.9769C94.8256 62.8709 94.9273 62.7387 94.9973 62.5895C95.0674 62.4403 95.1041 62.2777 95.105 62.1129C95.4402 62.7793 95.6857 63.4872 95.8351 64.2181C95.9447 65.0821 95.8067 65.3539 96.1312 66.3517C96.4558 67.3496 96.4842 68.1893 96.2408 68.6192C95.9974 69.0492 93.3486 69.1871 92.8659 68.9721C92.3832 68.7572 92.1358 67.6741 92.2453 67.2685C92.3548 66.8628 92.1276 64.8631 92.1195 64.5386C92.1114 64.214 92.1195 62.8633 92.1195 62.8633L92.5373 63.1391Z" fill="#68E1FD"/>
<path id="Vector_30" d="M77.4193 20.4297C77.4193 20.4297 71.6107 37.5556 71.1685 47.2016C71.1685 47.2016 74.0404 49.5827 77.0543 48.4185L80.4048 37.438C80.4048 37.438 81.7556 45.2829 82.7331 47.4815C83.447 49.0088 84.2797 50.4777 85.2237 51.8745C85.2237 51.8745 88.4242 52.199 89.7425 50.252C89.7425 50.252 88.2457 45.3844 88.335 43.9849C88.4242 42.5855 88.8826 28.4856 85.678 23.9709C84.7615 22.6769 83.5052 21.6614 82.0477 21.0365C80.5903 20.4115 78.9886 20.2016 77.4193 20.4297Z" fill="#68E1FD"/>
<path id="Vector_31" d="M85.4225 19.3426C85.4225 19.3142 85.4225 19.2899 85.4225 19.2737C85.244 16.8804 85.9782 13.1892 84.6112 11.0636C83.0698 8.66634 77.9183 7.79423 75.3668 8.5122C75.0594 8.5941 74.7584 8.6985 74.4663 8.82454C72.714 9.63581 72.7505 15.1524 72.5558 15.6635L77.4234 20.4257L76.4134 23.9101C80.1452 27.0172 84.3881 25.9382 86.3068 25.1757C86.4244 25.127 85.5198 20.158 85.4225 19.3426Z" fill="#E96968"/>
<path id="Vector_32" d="M92.01 11.368C92.534 11.1088 93.0188 10.777 93.45 10.3823C94.3181 9.62375 95.2916 8.97474 96.0704 8.11885C96.0952 8.09633 96.1123 8.0665 96.1191 8.03366C96.1183 7.99408 96.1023 7.95632 96.0745 7.9282C95.5713 7.36164 94.8669 7.0138 94.1112 6.95873C93.3932 6.85327 92.4359 7.02364 91.7666 6.73969C91.6321 6.67581 91.5195 6.57355 91.443 6.44578C91.3665 6.31802 91.3295 6.17047 91.3367 6.02172C91.3365 5.80756 91.3486 5.59357 91.3732 5.38082C91.4551 4.48898 91.181 3.60093 90.6106 2.9105C89.7547 2.00594 88.481 2.50487 87.4872 2.9105C86.5623 3.27557 85.3698 3.68932 84.4693 3.05653C84.0838 2.7289 83.8019 2.29623 83.658 1.81124C83.424 1.28603 83.0891 0.811927 82.6723 0.415854C81.1187 -1.03226 78.5754 1.76662 78.5754 1.76662L79.0622 2.21281C80.3886 1.68143 81.496 2.05056 82.0963 3.34048C82.6966 4.63039 82.7453 6.47603 84.3719 6.91411C84.9045 7.03346 85.4544 7.05408 85.9945 6.97496C86.8585 6.88572 88.0713 6.56932 88.8664 7.06825C89.1702 7.28319 89.3987 7.58831 89.5194 7.94037C89.7177 8.49214 89.8644 9.06111 89.9575 9.63998C90.0427 10.0943 90.0386 10.7311 90.3347 11.1043C90.7728 11.6884 91.4218 11.6398 92.01 11.368Z" fill="#842626"/>
<path id="Vector_33" d="M61.1291 25.906C61.1291 25.8208 60.0136 26.2183 59.0644 25.7964C58.1152 25.3746 54.3956 23.3018 51.617 23.7683C48.8384 24.2348 47.7148 26.0195 48.2786 28.0234C48.8424 30.0272 51.0815 32.1203 53.3896 32.534C55.6976 32.9478 58.0179 31.8201 58.7926 30.2625C59.5674 28.7048 59.7215 27.423 61.2264 26.8349" fill="#912C31"/>
<path id="Vector_34" d="M58.7074 26.5183H58.6669C58.899 27.0209 59.0759 27.5473 59.1942 28.0881C59.7043 27.4463 60.3372 26.9126 61.0561 26.5183V26.3763C60.288 26.5641 59.4925 26.6122 58.7074 26.5183Z" fill="white"/>
<path id="Vector_35" d="M60.8897 25.7355C60.7844 25.9521 60.7408 26.1935 60.7637 26.4332C60.7866 26.6729 60.8751 26.9017 61.0195 27.0944C61.5063 27.9057 67.5502 26.1858 67.5502 26.1858C67.5502 26.1858 68.3615 24.5632 67.3555 24.1576C66.3496 23.752 60.8897 25.7355 60.8897 25.7355Z" fill="#FEBD59"/>
<path id="Vector_36" d="M57.7826 30.8953C58.2366 30.4809 58.5248 29.916 58.5939 29.3052C58.7723 27.561 57.596 25.9101 56.1195 25.115C54.7586 24.4054 53.2012 24.1659 51.69 24.4335C51.3116 24.4978 50.9396 24.5956 50.5785 24.7256C49.6496 25.0623 48.7694 25.8573 48.7451 26.9201C48.7167 28.137 49.4793 29.2768 50.2703 30.1165C52.1646 32.1406 55.6003 32.9924 57.7826 30.8953Z" fill="white"/>
<path id="Vector_37" d="M67.3839 25.9466C67.013 25.9974 66.6387 26.0191 66.2644 26.0115C66.2167 25.9942 66.1726 25.968 66.1346 25.9344C66.1085 25.9089 66.0737 25.8944 66.0372 25.8939C65.9878 25.8559 65.9363 25.8207 65.8831 25.7884C65.7249 25.6911 65.4409 25.6545 65.3395 25.8574C65.3282 25.8816 65.3213 25.9077 65.3193 25.9344C65.2496 25.8461 65.1576 25.778 65.0527 25.7374C64.9478 25.6967 64.834 25.6849 64.723 25.7032C64.4877 25.7844 64.5445 26.0115 64.7027 26.263C64.5972 26.1819 64.4958 26.1007 64.3863 26.0237C64.2038 25.8979 63.936 25.8776 63.8427 26.121C63.7494 26.3644 63.9888 26.62 64.151 26.7782C64.2596 26.8762 64.3846 26.9544 64.5202 27.0094C64.987 27.2891 65.533 27.4074 66.0737 27.346C66.1173 27.3394 66.1565 27.3161 66.1833 27.2811C66.355 27.3212 66.5355 27.2967 66.6903 27.2122C66.7185 27.1919 66.7413 27.165 66.7569 27.1339C66.7724 27.1028 66.7802 27.0685 66.7795 27.0337L66.9134 26.9566C67.0797 26.9282 67.2947 26.8674 67.2906 26.6808C67.2924 26.666 67.2924 26.651 67.2906 26.6362C67.407 26.4987 67.4989 26.3423 67.5624 26.1738C67.5722 26.1466 67.5749 26.1174 67.5703 26.0889C67.5657 26.0603 67.5539 26.0335 67.5361 26.0107C67.5182 25.988 67.4949 25.9702 67.4683 25.959C67.4417 25.9478 67.4127 25.9435 67.3839 25.9466Z" fill="#F18D69"/>
<path id="Vector_38" d="M74.9896 6.01763C74.5725 5.44476 74.356 4.75032 74.3736 4.0419C74.3912 3.33349 74.6419 2.65066 75.087 2.0992C76.6324 -0.0425441 80.486 1.28794 80.8632 3.9854C81.2404 6.68287 79.3623 7.99713 78.4821 8.04175" fill="#842626"/>
<path id="Vector_39" d="M74.6205 4.96298C74.7016 5.31588 75.8982 9.73729 78.3807 9.1694C81.1309 8.54067 79.6787 2.33041 77.1638 2.31418C74.6489 2.29796 74.4623 4.30179 74.6205 4.96298Z" fill="#FFB087"/>
<path id="Vector_40" d="M74.6692 5.61603C74.6935 5.70121 74.2919 4.21659 75.5453 3.83935C76.7987 3.46211 77.1679 3.5189 77.468 4.1882C77.5835 4.46241 77.7954 4.68481 78.0638 4.81337C78.3321 4.94193 78.6382 4.96773 78.9243 4.88589C79.2731 4.71147 79.7355 4.1882 79.8653 5.06031C79.9951 5.93243 79.4191 6.25693 79.4597 6.34212L80.0032 7.15338C80.0032 7.15338 81.1187 5.09682 80.6807 4.31395C80.2426 3.53107 78.3199 1.51507 76.6892 1.6611C75.0586 1.80713 73.9796 3.166 74.6692 5.61603Z" fill="#842626"/>
<path id="Vector_41" d="M76.6081 19.789C75.5575 20.4988 72.7505 22.8475 70.6128 23.0624C68.4751 23.2774 66.2725 24.3605 66.0778 24.4335C65.8831 24.5065 64.3904 25.119 64.577 25.4841C64.7635 25.8492 65.2097 25.8329 65.9926 25.5936L66.3739 25.4151C66.7303 25.6531 67.1437 25.7917 67.5715 25.8166C67.9993 25.8416 68.4261 25.752 68.8077 25.5571C68.8077 25.5571 69.3675 25.764 69.4081 25.6828C69.4486 25.6017 77.683 23.464 78.5389 22.4986C79.3948 21.5332 82.2869 16.0085 82.2869 16.0085C82.2869 16.0085 81.5325 13.6152 80.4616 13.4733C79.3907 13.3313 76.6081 19.789 76.6081 19.789Z" fill="#F18D69"/>
<path id="Vector_42" d="M69.976 58.9368C69.9192 58.6244 69.5703 57.1195 69.9151 57.156C70.2599 57.1926 72.0082 57.1885 72.0366 57.655C72.065 58.1215 71.631 58.7826 72.0366 58.7786C72.4422 58.7745 73.0385 57.3954 73.3022 57.8984C73.5658 58.4013 74.2189 61.8979 73.7849 62.5834C73.3508 63.269 72.6937 63.269 71.9757 63.4555C71.2578 63.6421 71.6026 64.5792 70.3532 64.8915C69.1038 65.2038 66.4226 64.8915 66.0494 64.4534C65.6762 64.0153 65.9886 63.2365 66.3293 63.0175C66.67 62.7984 68.7915 61.7722 69.1038 61.0826C69.4162 60.393 69.976 58.9368 69.976 58.9368Z" fill="#68E1FD"/>
</g>
<defs>
<linearGradient id="paint0_linear_8_375" x1="62.1391" y1="77.8271" x2="89.057" y2="61.0623" gradientUnits="userSpaceOnUse">
<stop offset="0.01" stop-color="#39B54A" stop-opacity="0"/>
<stop offset="0.99" stop-color="#009245"/>
</linearGradient>
</defs>
</svg>
