<svg width="20" height="22" viewBox="0 0 20 22" fill="none" xmlns="http://www.w3.org/2000/svg">
<path id="Icon" d="M5.88626 18.9868C5.62407 19.0734 5.48176 19.3562 5.56841 19.6184C5.65506 19.8806 5.93786 20.0229 6.20005 19.9363L5.88626 18.9868ZM11.8622 19.8462L11.8172 19.3482L11.8622 19.8462ZM15.3536 19.0769L15.5714 19.527L15.3536 19.0769ZM18.6897 16.0681L18.3025 15.7517L18.6897 16.0681ZM16.408 14.1854L16.76 14.5405L16.408 14.1854ZM14.8715 15.7087L15.2236 16.0638V16.0638L14.8715 15.7087ZM10.6984 15.8846C10.4222 15.8846 10.1984 16.1085 10.1984 16.3846C10.1984 16.6608 10.4222 16.8846 10.6984 16.8846V15.8846ZM18.335 13.9962L18.0593 14.4133L18.335 13.9962ZM7.22402 13.4915L7.44609 13.9395H7.44609L7.22402 13.4915ZM11.4001 13.1128L11.5306 12.6301L11.4001 13.1128ZM13.0309 13.5538L12.9004 14.0364L13.0309 13.5538ZM13.5476 15.4829L13.1956 15.1278L13.5476 15.4829ZM12.286 16.0295C12.0899 16.224 12.0886 16.5405 12.283 16.7366C12.4774 16.9327 12.794 16.9341 12.9901 16.7397L12.286 16.0295ZM6.20005 19.9363C6.39431 19.8721 6.70089 19.852 7.13533 19.8828C7.5596 19.9128 8.04832 19.9858 8.58479 20.0694C9.62859 20.2319 10.8622 20.4385 11.9072 20.3441L11.8172 19.3482C10.9225 19.429 9.8285 19.251 8.73866 19.0813C8.2083 18.9987 7.67869 18.9187 7.20586 18.8853C6.7432 18.8525 6.27391 18.8587 5.88626 18.9868L6.20005 19.9363ZM11.9072 20.3441C13.4273 20.2068 14.0865 20.2454 15.5714 19.527L15.1358 18.6268C13.8437 19.252 13.3743 19.2075 11.8172 19.3482L11.9072 20.3441ZM15.5714 19.527C16.8906 18.8887 18.2387 17.4105 19.0769 16.3844L18.3025 15.7517C17.4594 16.7838 16.2339 18.0956 15.1358 18.6268L15.5714 19.527ZM16.056 13.8303L14.5195 15.3536L15.2236 16.0638L16.76 14.5405L16.056 13.8303ZM13.2257 15.8846H10.6984V16.8846H13.2257V15.8846ZM14.5195 15.3536C14.1771 15.6931 13.7118 15.8846 13.2257 15.8846V16.8846C13.9742 16.8846 14.693 16.5898 15.2236 16.0638L14.5195 15.3536ZM18.6107 13.5791C17.8079 13.0485 16.7393 13.1529 16.056 13.8303L16.76 14.5405C17.1062 14.1972 17.6506 14.1432 18.0593 14.4133L18.6107 13.5791ZM19.0769 16.3844C19.8151 15.4807 19.5443 14.1962 18.6107 13.5791L18.0593 14.4133C18.541 14.7317 18.6349 15.3448 18.3025 15.7517L19.0769 16.3844ZM1.77587 13.0385H4.87935V12.0385H1.77587V13.0385ZM5.15522 13.3077V20.2308H6.15522V13.3077H5.15522ZM4.87935 20.5H1.77587V21.5H4.87935V20.5ZM1.5 20.2308V13.3077H0.5V20.2308H1.5ZM1.77587 20.5C1.61945 20.5 1.5 20.3754 1.5 20.2308H0.5C0.5 20.9358 1.07529 21.5 1.77587 21.5V20.5ZM5.15522 20.2308C5.15522 20.3754 5.03577 20.5 4.87935 20.5V21.5C5.57993 21.5 6.15522 20.9358 6.15522 20.2308H5.15522ZM4.87935 13.0385C5.03577 13.0385 5.15522 13.163 5.15522 13.3077H6.15522C6.15522 12.6027 5.57994 12.0385 4.87935 12.0385V13.0385ZM1.77587 12.0385C1.07529 12.0385 0.5 12.6027 0.5 13.3077H1.5C1.5 13.163 1.61945 13.0385 1.77587 13.0385V12.0385ZM6.26523 14.5249L7.44609 13.9395L7.00195 13.0436L5.82109 13.6289L6.26523 14.5249ZM9.65288 13.4231H9.97106V12.4231H9.65288V13.4231ZM11.2696 13.5955L12.9004 14.0364L13.1614 13.0711L11.5306 12.6301L11.2696 13.5955ZM13.1956 15.1278L12.286 16.0295L12.9901 16.7397L13.8996 15.8379L13.1956 15.1278ZM12.9004 14.0364C13.3946 14.1701 13.5508 14.7756 13.1956 15.1278L13.8996 15.8379C14.8082 14.9371 14.3914 13.4037 13.1614 13.0711L12.9004 14.0364ZM9.97106 13.4231C10.4097 13.4231 10.8464 13.4811 11.2696 13.5955L11.5306 12.6301C11.0223 12.4927 10.4978 12.4231 9.97106 12.4231V13.4231ZM7.44609 13.9395C8.13108 13.6 8.88663 13.4231 9.65288 13.4231V12.4231C8.73282 12.4231 7.82523 12.6354 7.00195 13.0436L7.44609 13.9395ZM15.2415 7.15385C15.2415 8.573 14.08 9.73077 12.6381 9.73077V10.7308C14.6241 10.7308 16.2415 9.13337 16.2415 7.15385H15.2415ZM12.6381 9.73077C11.1961 9.73077 10.0346 8.573 10.0346 7.15385H9.03458C9.03458 9.13337 10.652 10.7308 12.6381 10.7308V9.73077ZM10.0346 7.15385C10.0346 5.73469 11.1961 4.57692 12.6381 4.57692V3.57692C10.652 3.57692 9.03458 5.17432 9.03458 7.15385H10.0346ZM12.6381 4.57692C14.08 4.57692 15.2415 5.73469 15.2415 7.15385H16.2415C16.2415 5.17432 14.6241 3.57692 12.6381 3.57692V4.57692ZM9.53458 6.65385C8.09265 6.65385 6.93109 5.49608 6.93109 4.07692H5.93109C5.93109 6.05645 7.54849 7.65385 9.53458 7.65385V6.65385ZM6.93109 4.07692C6.93109 2.65777 8.09265 1.5 9.53458 1.5V0.5C7.54849 0.5 5.93109 2.0974 5.93109 4.07692H6.93109ZM9.53458 1.5C10.9765 1.5 12.1381 2.65777 12.1381 4.07692H13.1381C13.1381 2.0974 11.5207 0.5 9.53458 0.5V1.5Z" fill="#15324F"/>
</svg>
