<svg width="179" height="179" viewBox="0 0 179 179" fill="none" xmlns="http://www.w3.org/2000/svg">
<g id="Group 37" opacity="0.5">
<path id="Vector" d="M97.5793 12.468L175.807 89.8873C177.229 91.2949 177.241 93.5907 175.834 95.0127L95.9513 175.729C94.5436 177.151 92.2481 177.163 90.8259 175.756L12.5983 98.3365C11.1762 96.9291 11.1641 94.6333 12.5716 93.2111L36.8575 68.6716L36.851 68.6651C35.4489 67.2775 35.4372 65.0217 36.8248 63.6196L40.4365 59.9702L39.437 58.981C35.8614 55.4424 35.6056 49.891 38.872 46.5905L46.1621 39.2243C49.4284 35.9239 54.9822 36.1219 58.5578 39.6605L59.5573 40.6497L63.116 37.0539C64.4968 35.6587 66.7526 35.647 68.1547 37.0345L68.1612 37.041L92.4539 12.4947C93.8611 11.0727 96.1574 11.0608 97.5793 12.468Z" fill="#27323A"/>
<path id="Vector_2" d="M141.246 109.943L150.694 100.397L146.28 96.0285C145.084 101.02 143.3 105.681 141.246 109.943Z" fill="white"/>
<path id="Vector_3" d="M141.161 96.1276C138.324 97.2901 135.166 98.2011 132.377 98.4022C132.482 104.455 131.29 112.784 129.52 120.087C133.893 113.965 138.635 105.658 141.161 96.1276Z" fill="#F4CE73"/>
<path id="Vector_4" d="M141.168 90.9684L92.4373 42.7416L82.9102 52.3682C83.2364 53.5546 82.9967 54.8707 82.0673 55.8098L55.7762 82.3754C54.8465 83.3148 53.5264 83.5749 52.3368 83.2608L42.8096 92.8875L101.066 150.542L120.638 130.766C123.154 128.076 128.551 107.085 127.494 96.2653C127.416 95.4449 127.752 94.6487 128.39 94.1386C129.028 93.6279 129.882 93.4765 130.664 93.7329C132.322 94.2849 138.005 92.4196 141.168 90.9684Z" fill="white"/>
<path id="Vector_5" d="M53.2208 74.8405L74.506 53.3332L65.6776 44.5961L62.1193 48.1916C60.7382 49.5871 58.4823 49.5989 57.0871 48.2181L53.5517 44.7192C52.7401 43.916 51.6514 43.7945 51.2201 44.2303L43.9301 51.5965C43.4987 52.0324 43.6311 53.1199 44.4428 53.9232L47.9782 57.4221C49.3734 58.8029 49.3855 61.0584 48.0044 62.4539L44.3926 66.1033L53.2208 74.8405Z" fill="#F4CE73"/>
<path id="Vector_6" d="M95.0565 20.1702L73.3132 42.1406L79.8406 48.6005L90.7022 37.6254C91.6449 36.6729 93.1733 36.6715 94.1193 37.6076L155.811 98.6616C156.037 98.8843 156.217 99.1496 156.341 99.4421C156.464 99.7347 156.529 100.049 156.53 100.366C156.532 100.684 156.471 100.999 156.35 101.293C156.23 101.586 156.053 101.854 155.828 102.079L125.594 132.629C124.77 133.501 124.193 134.071 124.033 134.219L123.987 134.265C123.974 134.279 123.96 134.279 123.947 134.293L102.801 155.659C101.865 156.605 100.337 156.62 99.3844 155.677L37.6929 94.6231C36.747 93.687 36.739 92.1521 37.6752 91.2061L48.5369 80.2311L42.0095 73.7712L20.273 95.7346L93.3485 168.055L168.132 92.4907L95.0564 20.1703L95.0565 20.1702Z" fill="#79CCBF"/>
<path id="Vector_7" d="M66.6653 95.9269C65.7193 94.9908 65.7113 93.4559 66.6475 92.5099L81.5923 77.4091C82.5285 76.4631 84.0633 76.4552 85.0093 77.3913C85.9618 78.334 85.9632 79.8624 85.0271 80.8083L70.0823 95.9092C69.1461 96.8551 67.6176 96.8695 66.6653 95.9269ZM76.6567 102.416L91.6015 87.3148C92.5376 86.3689 92.5362 84.8404 91.5837 83.8978C90.6377 82.9616 89.1029 82.9696 88.1667 83.9155L73.2219 99.0164C72.2857 99.9623 72.2937 101.497 73.2397 102.433C74.1921 103.376 75.7205 103.362 76.6567 102.416ZM109.188 82.2246L83.1224 108.562C82.1794 109.515 82.1941 111.043 83.1401 111.979C83.3651 112.203 83.6322 112.381 83.9261 112.501C84.2199 112.622 84.5347 112.683 84.8523 112.681C85.1699 112.679 85.484 112.615 85.7766 112.492C86.0692 112.368 86.3344 112.188 86.5571 111.961L112.623 85.6238C113.559 84.6778 113.557 83.1494 112.605 82.2068C111.659 81.2707 110.124 81.2787 109.188 82.2246ZM115.722 88.691L89.6562 115.029C89.4321 115.254 89.2547 115.521 89.1343 115.815C89.0138 116.108 88.9526 116.423 88.9543 116.741C88.9559 117.058 89.0204 117.372 89.1439 117.665C89.2674 117.958 89.4476 118.223 89.674 118.446C90.6199 119.382 92.148 119.381 93.091 118.428L119.156 92.0902C120.093 91.1442 120.085 89.6093 119.139 88.6731C118.186 87.7306 116.658 87.7451 115.722 88.691Z" fill="#27323A"/>
</g>
</svg>
