<svg width="26" height="26" viewBox="0 0 26 26" fill="none" xmlns="http://www.w3.org/2000/svg">
<g id="Vector">
<path d="M13 26C5.8203 26 -3.13835e-07 20.1797 0 13C3.13835e-07 5.8203 5.8203 -3.13835e-07 13 0C20.1797 3.13835e-07 26 5.8203 26 13C26 20.1797 20.1797 26 13 26Z" fill="#FFDB44"/>
<path d="M25.1815 8.45C23.3372 3.51433 18.579 2.43865e-07 13 0C7.42101 -2.43865e-07 2.66285 3.51433 0.818492 8.45L25.1815 8.45Z" fill="#D90026"/>
<path d="M0.818491 17.55C2.66285 22.4857 7.42101 26 13 26C18.579 26 23.3372 22.4857 25.1815 17.55L0.818491 17.55Z" fill="#D90026"/>
</g>
</svg>
