<svg width="81" height="104" viewBox="0 0 81 104" fill="none" xmlns="http://www.w3.org/2000/svg">
<g id="face">
<g id="Layer 2">
<g id="Layer 1">
<path id="Vector" d="M41.2245 103.078C58.4488 103.078 72.4119 98.9706 72.4119 93.9041C72.4119 88.8376 58.4488 84.7305 41.2245 84.7305C24.0003 84.7305 10.0372 88.8376 10.0372 93.9041C10.0372 98.9706 24.0003 103.078 41.2245 103.078Z" fill="#DFE7EA"/>
<path id="Vector_2" d="M6.27268 47.2712C4.12195 49.2501 2.78302 51.9574 2.51571 54.8677C2.24841 57.778 3.07179 60.6839 4.82609 63.0214C5.58407 64.0366 6.52817 64.9333 7.68375 65.4442C8.83934 65.9552 10.2216 66.0297 11.3468 65.4442" fill="#F0D7C2"/>
<path id="Vector_3" d="M4.20176 62.5985C4.81424 63.7321 5.61621 64.7895 6.68213 65.5154C7.13726 65.8267 7.86648 65.781 8.56524 65.7303C7.56701 65.0095 6.80564 63.9943 6.22023 62.9081C3.57236 58.0015 4.63828 51.3793 8.68875 47.5539H12.79V47.2426H6.66859C2.61812 51.0714 1.5522 57.6953 4.20176 62.5985Z" fill="#D7AD8C"/>
<path id="Vector_4" d="M72.0481 47.1174C74.5961 48.548 76.522 50.874 77.4521 53.6442C78.3821 56.4144 78.2501 59.4313 77.0816 62.1096C76.574 63.2669 75.8651 64.3633 74.8584 65.1246C73.8517 65.886 72.5201 66.2785 71.2952 65.9706" fill="#D7AD8C"/>
<path id="Vector_5" d="M70.7656 66.0264C71.8948 66.1651 73.0376 65.9151 74.0057 65.3175C75.1426 64.6407 76.0004 63.5968 76.6467 62.4801C78.1274 59.9351 78.5692 56.917 77.8802 54.0543C77.1831 51.2491 74.7264 48.7265 72.2139 47.1174L72.0447 49.3998C73.3796 50.8295 74.811 52.5705 75.2763 54.435C75.9645 57.2966 75.5227 60.3133 74.0429 62.8574C73.3966 63.9741 72.5371 65.013 71.4018 65.6948C71.1977 65.82 70.9851 65.9308 70.7656 66.0264Z" fill="#C4987A"/>
<path id="Vector_6" d="M77.6924 20.6318C76.2068 15.5441 72.2105 10.9878 67.0467 9.85925C66.7269 8.74389 66.1661 7.71235 65.4039 6.83747C64.4886 5.80032 63.3144 5.02372 62.086 4.38756C55.9663 1.22365 48.6758 1.51128 41.8421 2.38262C39.1096 2.73285 36.3822 3.16599 33.7208 3.89013C22.8705 6.84931 13.5074 14.8657 8.92394 25.1374C4.3405 35.4091 5.1594 47.7314 10.203 57.7916L45.5457 32.0438V57.1588H71.3206C69.8232 52.6346 70.5355 44.7874 72.6335 40.4561C74.1918 37.2414 76.4589 35.0267 77.4504 31.477C78.4774 27.8191 78.7684 24.3252 77.6924 20.6318Z" fill="#8376A5"/>
<path id="Vector_7" d="M78.0798 32.1217C77.6314 33.7511 76.9073 35.0843 76.1087 36.3719C75.97 28.1491 74.2476 19.8197 69.9992 12.7898C69.5764 12.0696 69.0966 11.3844 68.5644 10.7408C73.3018 12.1671 76.9225 16.4934 78.3201 21.2832C79.3978 24.97 79.1017 28.4638 78.0798 32.1217Z" fill="#655A8E"/>
<path id="Vector_8" d="M10.2403 56.6294C12.7951 54.753 13.8593 51.4927 14.6477 48.4218C16.2924 42.0209 17.3916 35.4921 17.9335 28.9055L33.33 33.5007C35.0219 34.0083 36.7342 34.5159 38.4971 34.5802C42.9249 34.7494 46.9111 32.159 51.0597 30.6041C55.1106 29.0915 59.4573 28.5395 63.7576 28.9917C63.7576 28.9917 65.0266 49.5825 72.0193 56.8189C72.1564 69.17 64.6527 80.0761 56.4028 89.2667C54.496 91.3901 52.5114 93.51 50.0496 94.955L50.0141 94.9753C48.145 96.0877 46.0137 96.6833 43.8386 96.701L38.7865 96.7264C36.6017 96.7377 34.4546 96.1584 32.572 95.0497L32.4028 94.955C29.9411 93.51 27.9564 91.3918 26.0496 89.2667C17.8167 80.0761 9.95432 69.1683 10.0863 56.8189" fill="#EBCBAC"/>
<path id="Vector_9" d="M25.8889 89.9754C17.7152 80.839 9.98477 70.0107 10.1134 57.7527L10.2673 57.5615C12.8204 55.6851 13.8864 52.4248 14.6663 49.3539C16.3136 42.9538 17.415 36.4255 17.9588 29.8392L22.7267 31.2621C21.1989 38.2887 15.1993 69.8212 25.8889 89.9754Z" fill="#F0D7C2"/>
<path id="Vector_10" d="M55.8919 89.4746C54.8669 90.6486 53.7826 91.7696 52.6434 92.8331C56.4434 86.0417 58.6294 78.3163 59.4111 70.5453C60.4821 59.8692 59.0321 49.0697 56.501 38.6423C56.4079 38.2599 56.303 37.859 56.0357 37.5696C55.6178 37.1179 54.9359 37.0621 54.3218 37.0401C50.8093 36.8979 47.2563 36.7338 43.8944 35.7085C42.8774 35.4027 41.8899 35.0063 40.9437 34.5242C44.2311 33.8356 47.3341 32.0235 50.5369 30.8222C54.5916 29.3035 58.9439 28.748 63.2501 29.1997C63.2501 29.1997 64.5173 49.7887 71.5117 57.0251C71.6437 69.3762 64.14 80.279 55.8919 89.4746Z" fill="#D7AD8C"/>
<path id="Vector_11" d="M67.2379 9.80176C72.5337 10.8169 76.6451 15.4545 78.156 20.6301C79.2337 24.3219 78.9359 27.8157 77.914 31.4754C76.9225 35.0284 74.6554 37.2381 73.0971 40.4544C70.9991 44.7858 70.5964 52.479 72.0938 57.0032" stroke="#42565E" stroke-width="2.7807" stroke-miterlimit="10" stroke-linecap="round"/>
<path id="Vector_12" d="M5.8074 47.2712C3.65641 49.2499 2.31716 51.957 2.04955 54.8674C1.78193 57.7777 2.60503 60.6837 4.35911 63.0214C5.1171 64.0366 6.06119 64.9333 7.21678 65.4442C8.37237 65.9552 9.75467 66.0297 10.8798 65.4442" stroke="#42565E" stroke-width="2.7807" stroke-miterlimit="10" stroke-linecap="round"/>
<path id="Vector_13" d="M72.62 47.0123C75.1684 48.4429 77.0946 50.7692 78.0246 53.5398C78.9547 56.3103 78.8225 59.3277 77.6535 62.0062C77.1459 63.1635 76.437 64.2598 75.4303 65.0212C74.4236 65.7826 73.092 66.1751 71.8671 65.8672" stroke="#42565E" stroke-width="2.7807" stroke-miterlimit="10" stroke-linecap="round"/>
<path id="Vector_14" d="M41.2838 60.3668V73.7212H45.9433L41.2838 60.3668Z" fill="#D7AD8C"/>
<path id="Vector_15" d="M41.3091 61.0656L41.1179 72.2441L41.1044 73.0207" stroke="#42565E" stroke-width="2.7807" stroke-miterlimit="10" stroke-linecap="square"/>
<path id="Vector_16" d="M59.4043 52.7989C59.5007 53.6449 59.3349 54.3217 59.2199 54.3098C59.1048 54.298 59.0676 53.633 58.9746 52.8463C58.8815 52.0595 58.7715 51.4048 58.8883 51.3659C59.005 51.3269 59.3096 51.953 59.4043 52.7989Z" fill="#DCB79B"/>
<path id="Vector_17" d="M28.3287 35.2315C29.6257 35.5203 30.8878 35.948 32.0932 36.5072C33.0221 36.9657 33.528 37.4005 33.4467 37.6188C33.3655 37.837 32.7124 37.8184 31.7294 37.6712C30.7464 37.524 29.4115 37.2635 27.9311 36.9115C26.6469 36.6263 25.3879 36.2376 24.1665 35.7492C23.2241 35.3465 22.6844 34.9591 22.7521 34.734C22.8197 34.509 23.4694 34.4718 24.4694 34.5648C25.769 34.702 27.0583 34.9247 28.3287 35.2315Z" fill="white"/>
<path id="Vector_18" d="M68.3766 22.2764C68.5573 23.0542 68.665 23.8472 68.6981 24.6451C68.6981 25.0122 68.7099 25.3607 68.6828 25.6873C68.671 25.8565 68.6659 26.0071 68.6473 26.1576L68.5881 26.5891C68.4189 27.6855 68.111 28.3132 67.9452 28.281C67.7794 28.2489 67.7354 27.5789 67.6728 26.5434L67.6491 26.1373C67.6491 25.9969 67.622 25.8497 67.6102 25.6991C67.5915 25.398 67.5459 25.0765 67.5086 24.7398C67.4173 24.063 67.2938 23.3372 67.1161 22.5775C66.9385 21.8178 66.7117 21.1123 66.4918 20.4711C66.3717 20.1547 66.2685 19.8484 66.1534 19.5693C66.0959 19.4288 66.0468 19.2901 65.9842 19.1615L65.8235 18.7876C65.4123 17.835 65.1332 17.226 65.2838 17.1126C65.4343 16.9992 65.969 17.4358 66.6204 18.3342L66.8674 18.6912C66.952 18.8164 67.0281 18.9534 67.111 19.0938C67.2802 19.373 67.4325 19.686 67.5932 20.0176C67.9242 20.7445 68.1864 21.5007 68.3766 22.2764Z" fill="#40565A"/>
<path id="Vector_19" d="M74.7772 20.5961C74.7337 21.6392 74.6012 22.6768 74.3813 23.6974C74.2679 24.1644 74.163 24.6094 74.026 25.0137C73.96 25.2168 73.9025 25.4147 73.8331 25.5991L73.6267 26.1372C73.5063 26.4402 73.3702 26.7367 73.2189 27.0254C73.1529 27.154 73.0937 27.2724 73.0311 27.379C72.9685 27.4856 72.9059 27.5804 72.8484 27.665C72.6217 28.0034 72.4592 28.1726 72.3763 28.1336C72.2071 28.0541 72.4406 27.2082 72.7502 25.8597L72.8704 25.3301C72.9127 25.1474 72.9431 24.9528 72.9837 24.7549C73.07 24.3589 73.1292 23.9309 73.2054 23.4842C73.3468 22.5127 73.4394 21.5346 73.4829 20.5538C73.5111 19.5726 73.4902 18.5906 73.4203 17.6115C73.3763 17.1615 73.3475 16.73 73.29 16.3291C73.2629 16.1294 73.2477 15.9331 73.2189 15.747L73.1377 15.2107C72.9262 13.8436 72.7486 12.9824 72.9279 12.9164C73.0125 12.886 73.1614 13.0636 73.3644 13.424C73.4152 13.5131 73.4716 13.6124 73.5336 13.7218C73.5878 13.8335 73.6385 13.9553 73.7028 14.0889C73.8315 14.3879 73.9444 14.6935 74.0412 15.0043L74.2104 15.5474C74.2662 15.7369 74.3102 15.9382 74.361 16.1463C74.4693 16.5609 74.5403 17.0109 74.6198 17.4846C74.7604 18.5155 74.813 19.5564 74.7772 20.5961Z" fill="#40565A"/>
<path id="Vector_20" d="M70.0178 40.8353C70.101 40.0612 70.2713 39.299 70.5253 38.563C70.6397 38.2437 70.7725 37.9313 70.923 37.6274C70.9957 37.4853 71.0583 37.3465 71.1344 37.2196L71.3561 36.8576C71.4842 36.6515 71.6267 36.4548 71.7824 36.2688C71.8501 36.1859 71.9127 36.108 71.9753 36.0421C72.0379 35.9761 72.1022 35.9185 72.1598 35.8729C72.3882 35.6698 72.5455 35.5869 72.6183 35.6394C72.7722 35.751 72.5134 36.3415 72.1784 37.2704L72.0481 37.6359C72.0024 37.7627 71.9669 37.8981 71.9229 38.0352C71.8281 38.3076 71.7537 38.607 71.6708 38.9166C71.3281 40.2686 71.1867 41.6636 71.2512 43.0568C71.2732 43.3783 71.2816 43.6862 71.3189 43.9704C71.3358 44.1142 71.3425 44.2547 71.3612 44.3866L71.4153 44.7707C71.5557 45.7503 71.6894 46.3797 71.5151 46.4626C71.4339 46.4982 71.2952 46.3848 71.1141 46.1412C71.069 46.0803 71.0211 46.0109 70.9703 45.9331C70.9213 45.8552 70.8773 45.7639 70.8282 45.6725C70.7114 45.4567 70.6102 45.2328 70.5253 45.0025L70.3815 44.6032C70.3342 44.4628 70.3003 44.3139 70.258 44.1616C70.1723 43.8336 70.1056 43.5008 70.0584 43.1651C69.9573 42.3925 69.9436 41.6109 70.0178 40.8353Z" fill="#40565A"/>
<path id="Vector_21" d="M58.3536 2.45034C54.6346 2.63306 50.9316 3.05864 47.2681 3.72436C45.6709 4.01537 44.0704 4.35376 42.5679 4.96285C41.277 5.49581 40.0706 6.2098 38.7628 6.6937L38.5936 6.75291C36.0337 7.66148 32.9764 7.84928 31.2828 9.96758L31.5789 9.38724C31.7266 9.10187 31.8733 8.81594 32.0188 8.52944C29.5281 8.69737 27.1698 9.71233 25.3356 11.4057C25.1935 11.5394 25.0429 11.6663 24.8907 11.7898C23.3679 13.0147 21.4611 13.7017 20.0061 15.1415C19.9553 14.6542 19.9051 14.1664 19.8555 13.678C19.6299 13.8167 19.4077 13.9588 19.1889 14.1043C17.6035 15.1516 16.1434 16.3935 14.9912 17.9095C13.7544 19.5507 12.9084 21.5302 12.8103 23.5808C12.7775 23.463 12.6997 23.3628 12.5937 23.3017C12.5565 23.3575 12.5193 23.415 12.4838 23.4709C10.0162 27.2949 8.52215 31.6649 8.13211 36.1992C7.97533 35.6849 7.81911 35.1717 7.66345 34.6596C7.64991 34.8575 7.63638 35.0606 7.62792 35.2737C7.50573 38.527 7.69268 41.7845 8.18626 45.0023C7.13799 43.8652 6.37332 42.4965 5.9546 41.0077C5.79448 37.6167 6.09673 34.2197 6.85302 30.9103C7.34589 28.7762 8.04454 26.695 8.93916 24.6958C9.82563 22.7146 10.8855 20.8156 12.1065 19.0211C12.1814 18.5073 12.3014 18.0012 12.4651 17.5085C15.9817 12.7252 20.5395 8.80382 25.7942 6.04061C25.1313 6.57189 24.4961 7.13659 23.8907 7.73254C26.2676 6.26395 28.8001 5.06379 31.4418 4.15411C32.1964 3.89355 32.9589 3.65781 33.7293 3.44688C35.7497 2.91346 37.8 2.50046 39.8693 2.21009C40.5275 2.11195 41.1873 2.02397 41.8455 1.93768C43.6051 1.71097 45.3985 1.52655 47.1852 1.43011C50.9887 1.22369 54.7904 1.4098 58.3536 2.45034Z" fill="#A699D6"/>
<path id="Vector_22" d="M9.76144 57.4246C4.70934 47.3695 3.89552 35.0471 8.48234 24.7754C13.0692 14.5038 22.4289 6.48401 33.2843 3.52822C35.9423 2.80407 38.6697 2.37094 41.4056 2.02071C48.2393 1.14429 55.5298 0.861736 61.6495 4.02564C62.8778 4.66011 64.052 5.4384 64.9674 6.47555C66.9368 8.71059 67.4799 12.064 66.4647 14.8692C65.4496 17.6744 62.9912 19.8705 60.1369 20.7351" stroke="#42565E" stroke-width="2.7807" stroke-miterlimit="10" stroke-linecap="round"/>
<path id="Vector_23" d="M21.3664 10.0149C21.9594 9.27865 22.6021 8.58389 23.2901 7.93554C23.6133 7.64283 23.9178 7.36536 24.224 7.1251C24.5303 6.88485 24.8128 6.6649 25.0819 6.47709C26.163 5.72588 26.9244 5.41118 27.0208 5.55161C27.2374 5.86462 24.7553 7.81879 22.3798 10.8237C19.9739 13.8048 18.6153 16.6625 18.2617 16.5153C18.1043 16.451 18.2414 15.6406 18.7354 14.419C18.8606 14.1145 19.0028 13.7845 19.1787 13.4394C19.3547 13.0942 19.5476 12.7305 19.7624 12.3498C20.2431 11.5357 20.779 10.7556 21.3664 10.0149Z" fill="#40565A"/>
<path id="Vector_24" d="M27.0293 8.15903C27.6947 7.36363 28.4065 6.60827 29.1611 5.89692C29.5147 5.57376 29.8497 5.26922 30.1762 5.00189C30.5028 4.73457 30.8158 4.49431 31.1068 4.27606C32.2759 3.43009 33.0931 3.04433 33.1946 3.18307C33.418 3.48931 30.7244 5.70743 28.0207 8.98808C25.2967 12.2467 23.6099 15.3091 23.2681 15.1399C23.1141 15.0655 23.3392 14.1924 23.9601 12.8863C24.1158 12.5614 24.2985 12.2095 24.5032 11.8373C24.7079 11.4651 24.9448 11.0776 25.1969 10.6715C25.7576 9.79864 26.3695 8.95967 27.0293 8.15903Z" fill="#40565A"/>
<path id="Vector_25" d="M33.8105 6.02218C34.5701 5.23186 35.415 4.52823 36.3298 3.92419C37.076 3.43185 37.8695 3.01527 38.6985 2.68062C40.1146 2.12059 41.0672 2.0343 41.1078 2.19504C41.1484 2.35577 40.338 2.7686 39.1029 3.5029C37.5025 4.44221 36.0364 5.59356 34.7445 6.92567C33.2319 8.48732 32.056 10.1166 31.1643 11.279C30.2727 12.4414 29.6788 13.152 29.5232 13.0572C29.3675 12.9625 29.6924 12.0979 30.3928 10.7833C31.3106 9.04845 32.4604 7.44671 33.8105 6.02218Z" fill="#40565A"/>
<path id="Vector_26" d="M42.82 3.18131C43.72 2.63367 44.6687 2.17037 45.654 1.79732C46.4608 1.48955 47.2962 1.26284 48.1479 1.12055C49.608 0.888752 50.5166 1.03426 50.5301 1.20007C50.5437 1.36588 49.6842 1.57229 48.3645 2.0105C46.6589 2.58374 45.0232 3.34709 43.4883 4.28614C41.683 5.38421 40.1502 6.57194 39.0166 7.41959C37.883 8.26725 37.1453 8.77314 37.0201 8.64117C36.8949 8.5092 37.4126 7.77828 38.4092 6.73436C39.7219 5.36676 41.2042 4.17272 42.82 3.18131Z" fill="#40565A"/>
<path id="Vector_27" d="M7.65161 33.1521C7.77964 33.9394 7.95364 34.7184 8.17272 35.4853C8.28439 35.8355 8.37914 36.1756 8.49588 36.4835C8.55171 36.6375 8.59739 36.7915 8.65492 36.9353L8.81565 37.3464C9.22848 38.3971 9.53641 39.0553 9.38076 39.1669C9.308 39.2194 9.13881 39.1179 8.8901 38.8844C8.82806 38.8257 8.76095 38.7592 8.68876 38.6847C8.61939 38.6086 8.55171 38.5155 8.47558 38.4276C8.30339 38.2172 8.1446 37.9963 8.00014 37.766L7.75481 37.3616C7.67022 37.2195 7.59577 37.0656 7.51287 36.9082C7.33943 36.5708 7.18356 36.2246 7.0459 35.8711C6.41636 34.2391 6.14739 32.4902 6.25746 30.7445C6.28245 30.3657 6.32706 29.9885 6.39112 29.6143C6.42327 29.4451 6.44695 29.2759 6.48587 29.1067L6.60261 28.6465C6.67094 28.3837 6.7557 28.1255 6.8564 27.8733C6.90039 27.7616 6.9393 27.6584 6.9816 27.5637C7.0239 27.4689 7.07127 27.3945 7.11357 27.3133C7.28277 27.0155 7.41135 26.8683 7.49595 26.8954C7.67699 26.9546 7.58393 27.6754 7.50441 28.8005L7.47565 29.2421C7.46549 29.3944 7.47565 29.5551 7.46042 29.7192C7.44181 30.0474 7.46042 30.396 7.46042 30.7682C7.47758 31.5659 7.54142 32.3619 7.65161 33.1521Z" fill="#40565A"/>
<path id="Vector_28" d="M7.25739 43.0144C7.52053 43.5109 7.80969 43.9932 8.12365 44.4593C8.27593 44.6708 8.41297 44.8789 8.55679 45.0599C8.62785 45.153 8.69214 45.246 8.75982 45.3306L8.95608 45.5759C9.46366 46.2036 9.80205 46.6097 9.69207 46.7603C9.5821 46.9109 9.05421 46.7603 8.32838 46.2392L8.04921 46.0294C7.95277 45.9549 7.8631 45.8602 7.76497 45.7807C7.55844 45.5937 7.36297 45.3948 7.17956 45.1851C6.33673 44.2157 5.73753 43.0591 5.4318 41.8114C5.36627 41.541 5.31655 41.267 5.28291 40.9908C5.26768 40.8605 5.25076 40.737 5.24399 40.6152C5.23722 40.4934 5.24399 40.3783 5.23384 40.2667C5.23384 39.3767 5.42503 38.8471 5.59422 38.8522C5.76341 38.8573 5.91738 39.3682 6.14071 40.1398L6.22869 40.4409C6.25915 40.5458 6.29806 40.6524 6.33359 40.7641C6.39789 40.9874 6.48925 41.2192 6.57385 41.4645C6.77412 41.9929 7.00229 42.5102 7.25739 43.0144Z" fill="#40565A"/>
<path id="Vector_29" d="M12.6496 21.5099C12.692 22.0403 12.7608 22.5683 12.856 23.0918C12.9084 23.3338 12.9473 23.5672 13.0032 23.7804C13.0302 23.8887 13.0489 23.9953 13.0759 24.0951L13.1504 24.3844C13.3416 25.1238 13.4769 25.6128 13.3196 25.7126C13.1622 25.8124 12.7528 25.4707 12.3044 24.7448L12.1352 24.4555C12.0794 24.354 12.032 24.244 11.9796 24.1307C11.8692 23.8889 11.7732 23.6409 11.6919 23.3879C11.3205 22.2189 11.234 20.978 11.4398 19.7689C11.4856 19.5072 11.5466 19.2485 11.6226 18.994C11.6598 18.8738 11.6902 18.7588 11.7308 18.6556L11.8544 18.3459C12.1927 17.566 12.5667 17.1768 12.7206 17.2479C12.8746 17.3189 12.8255 17.8265 12.7392 18.5862L12.7054 18.884C12.6936 18.9872 12.6885 19.0955 12.6766 19.2054C12.6513 19.4254 12.6445 19.6623 12.6259 19.9093C12.607 20.4429 12.6149 20.9771 12.6496 21.5099Z" fill="#40565A"/>
<path id="Vector_30" d="M61.3314 30.0813C57.8799 30.0396 54.4505 30.638 51.2171 31.846C49.4185 32.5228 47.6522 33.3857 45.8655 34.1403V33.4432L43.8216 34.9355C43.036 35.211 42.232 35.4315 41.4157 35.5953C41.1535 35.6461 40.8895 35.6901 40.6222 35.7273C39.9697 35.8154 39.3109 35.8482 38.6528 35.8254C36.8881 35.7594 35.1759 35.2502 33.4874 34.746L23.9635 31.9035L21.5034 31.1692L18.0959 30.1541C17.7857 33.9192 17.2933 37.6634 16.6188 41.3868C16.1304 44.095 15.5445 46.7846 14.8609 49.4556C14.844 49.525 14.8254 49.5943 14.8085 49.6637C14.02 52.7329 12.9558 55.9949 10.4094 57.8695L10.2538 58.0607C10.2538 58.2502 10.2538 58.4414 10.2538 58.6292C9.90638 57.9152 9.58097 57.1911 9.27755 56.4568C11.1759 54.9087 12.4787 52.6652 13.125 50.2914C13.8559 47.6046 13.8018 44.7537 13.3619 42.001C13.3896 42.0375 13.4268 42.0658 13.4694 42.0828C13.5121 42.0998 13.5585 42.1049 13.6038 42.0974C13.8474 42.0619 14.1114 41.6981 14.1791 41.3902C14.7889 38.6575 15.0369 35.8565 14.9167 33.0591C14.9167 32.9474 14.9066 32.8375 14.9015 32.7207L15.448 33.296C16.4632 31.3553 16.1671 27.9715 16.5139 25.8092C18.864 27.9884 24.7655 28.0426 27.6942 26.7415C26.9616 27.3793 26.8482 28.9173 25.9853 29.3809C26.2442 29.3809 24.5844 30.2268 24.8433 30.2167C28.8157 30.029 32.6625 28.7659 35.9728 26.5621C35.0862 28.4232 33.5347 31.0762 31.5738 31.709C31.8597 31.7699 32.0221 30.6397 32.3081 30.6938C33.7146 30.9769 35.1297 31.2121 36.5531 31.3993C38.5936 31.6717 40.7136 31.8426 42.6728 31.2115C45.1244 30.4231 47.0109 28.4909 48.7908 26.6281C48.7908 26.9552 48.7711 27.2823 48.7316 27.6094C48.6172 28.7351 48.3319 29.8368 47.8857 30.8765L53.403 28.5281C53.4115 28.6127 53.4183 28.6973 53.4233 28.7836C53.4654 29.6552 53.257 30.5206 52.8227 31.2775C55.6595 29.9465 58.4563 28.5366 61.213 27.0477C61.5873 28.0179 61.629 29.0849 61.3314 30.0813Z" fill="#655A8E"/>
<path id="Vector_31" d="M70.8197 54.5974C69.4154 52.7616 68.2734 50.3675 67.3462 47.7755C67.3327 47.7383 67.3192 47.7011 67.3073 47.6655C65.4039 42.0669 64.4581 35.6664 64.0267 31.8392C65.8387 36.3956 68.2565 41.9214 70.7098 46.2968C70.3359 49.1561 70.3426 52.161 70.8197 54.5974Z" fill="#655A8E"/>
<path id="Vector_32" d="M46.7758 30.4857C50.8804 28.1745 54.1898 26.2373 54.3979 26.5384C54.606 26.8396 51.5758 29.2692 47.4136 31.6142C43.2515 33.9592 39.6003 35.2925 39.4615 34.9744C39.3228 34.6563 42.6762 32.807 46.7758 30.4857Z" fill="#485D63"/>
<path id="Vector_33" d="M44.6693 29.9696C45.4154 29.1914 46.0888 28.4165 46.6827 27.6923C46.972 27.3235 47.2546 26.98 47.5016 26.6433C47.6268 26.4741 47.7537 26.3185 47.867 26.1611L48.1953 25.7077C49.0294 24.5504 49.5488 23.8059 49.718 23.8889C49.8872 23.9718 49.6486 24.8583 48.9854 26.1831L48.7164 26.6907C48.6216 26.8683 48.51 27.0477 48.4 27.2355C48.1834 27.6145 47.9195 27.9985 47.6437 28.4046C46.4147 30.147 44.9227 31.688 43.221 32.9728C42.8251 33.2621 42.4495 33.5379 42.079 33.768C41.8945 33.8848 41.7203 34.0015 41.546 34.1064L41.0384 34.3923C39.7356 35.0996 38.8389 35.3517 38.7695 35.2011C38.7002 35.0505 39.4091 34.4972 40.5376 33.6242L40.9792 33.2858C41.1332 33.1674 41.2854 33.0354 41.4496 32.9051C41.7778 32.648 42.1128 32.3536 42.4647 32.0592C43.1635 31.4399 43.9164 30.7429 44.6693 29.9696Z" fill="#485D63"/>
<path id="Vector_34" d="M29.4842 29.4384C30.6946 29.1251 31.8755 28.7073 33.0136 28.1898C33.5212 27.9309 34.0288 27.7025 34.4687 27.4318C34.6903 27.3015 34.9136 27.1882 35.115 27.0579L35.6919 26.6806C36.0709 26.4539 36.3789 26.2001 36.6699 26.0038C36.812 25.9006 36.9524 25.8092 37.0725 25.7196C37.1927 25.6299 37.301 25.5402 37.4008 25.4658C37.8035 25.1663 38.0623 25.0242 38.1283 25.0834C38.1943 25.1426 38.0623 25.3998 37.7578 25.8228C37.6811 25.9277 37.5942 26.0405 37.4972 26.1612C37.3957 26.283 37.2773 26.4048 37.1588 26.5385C36.8773 26.8475 36.5754 27.1375 36.2553 27.4064L35.6936 27.8751C35.4957 28.0358 35.2723 28.1779 35.049 28.337C34.5692 28.6714 34.0704 28.9776 33.555 29.254C32.3638 29.8752 31.1052 30.3577 29.804 30.6921C28.4975 31.0048 27.1595 31.1666 25.8161 31.1743C25.2313 31.1711 24.6472 31.1338 24.0667 31.0627C23.7943 31.0254 23.5304 31.0051 23.2816 30.9561L22.566 30.8038C22.1573 30.7178 21.7549 30.6048 21.3613 30.4654C21.1921 30.4045 21.0229 30.3538 20.8791 30.2962C20.7353 30.2387 20.6033 30.1693 20.4866 30.1118C20.0196 29.8817 19.7827 29.7159 19.8098 29.6313C19.8369 29.5467 20.1347 29.5518 20.6321 29.6313C20.7556 29.6499 20.8926 29.6753 21.0415 29.7024C21.1904 29.7294 21.3562 29.7413 21.5305 29.765C21.8807 29.8073 22.2716 29.8868 22.7148 29.9105L23.4018 29.9748C23.6403 29.9968 23.8907 29.9917 24.1479 30.0035C24.6555 30.0374 25.2121 30.0035 25.7874 29.9934C27.0334 29.9155 28.2703 29.7298 29.4842 29.4384Z" fill="#40565A"/>
<path id="Vector_35" d="M23.62 28.506C24.292 28.2469 24.9469 27.9457 25.581 27.6042C25.8686 27.435 26.1495 27.2878 26.3982 27.1237C26.5234 27.0442 26.6503 26.9731 26.7653 26.8936L27.1037 26.6686C27.9497 26.0916 28.4691 25.6822 28.6146 25.804C28.6823 25.8615 28.6366 26.0392 28.4894 26.3116C28.4522 26.3804 28.4093 26.456 28.3608 26.5383C28.31 26.6178 28.2474 26.699 28.1815 26.787C28.0346 26.9884 27.874 27.1795 27.701 27.3589L27.3812 27.66C27.2729 27.7666 27.1511 27.8648 27.0276 27.9731C26.7628 28.2 26.4855 28.4119 26.1968 28.6075C24.8629 29.5061 23.3362 30.0781 21.7403 30.2775C21.3944 30.3197 21.0465 30.3422 20.6981 30.3451C20.5289 30.3451 20.3766 30.3451 20.226 30.3451L19.7912 30.3113C19.5429 30.2899 19.2965 30.2515 19.0535 30.1963C18.9452 30.1726 18.8454 30.1523 18.7557 30.1269C18.6661 30.1015 18.5865 30.0694 18.5104 30.0423C18.2177 29.9306 18.0671 29.8274 18.0806 29.7377C18.1094 29.5499 18.7726 29.5144 19.7878 29.3994L20.1854 29.3503C20.3225 29.3334 20.4646 29.3046 20.6118 29.2826C20.9062 29.2437 21.2175 29.1709 21.544 29.1134C22.2481 28.9549 22.9415 28.752 23.62 28.506Z" fill="#40565A"/>
<path id="Vector_36" d="M13.3822 43.395C12.7155 40.3174 11.6818 37.9334 12.0117 37.7541C12.164 37.6729 12.6309 38.1771 13.1673 39.1279C13.301 39.3665 13.4414 39.6355 13.5734 39.9215C13.7053 40.2074 13.8458 40.5187 13.9726 40.8571C14.2502 41.5906 14.4764 42.3425 14.6494 43.1074C14.816 43.8729 14.929 44.6491 14.9878 45.4304C15.0081 45.7908 15.0284 46.1325 15.0216 46.454C15.0149 46.7755 15.0098 47.0732 14.9895 47.3456C14.9049 48.4352 14.6951 49.0883 14.5225 49.0799C14.1469 49.0613 14.0775 46.4625 13.3822 43.395Z" fill="#40565A"/>
<path id="Vector_37" d="M15.1384 36.2078C14.981 35.3432 14.8152 34.5277 14.6528 33.7867C14.5648 33.4195 14.4836 33.0659 14.4041 32.7393L14.2873 32.2639L14.1723 31.8274C13.8813 30.7141 13.6884 30.0069 13.8559 29.9223C14.0234 29.8377 14.4988 30.4299 15.0301 31.5076L15.2314 31.9357C15.2991 32.0863 15.36 32.2453 15.426 32.4094C15.5614 32.7377 15.6798 33.0963 15.805 33.4736C16.0581 34.2948 16.2615 35.1304 16.4141 35.976C16.684 37.4997 16.8198 39.0442 16.8202 40.5916C16.8202 41.7759 16.7102 42.5102 16.5325 42.5255C16.3549 42.5407 16.1332 41.8301 15.9082 40.6779C15.6832 39.5257 15.4463 37.937 15.1384 36.2078Z" fill="#40565A"/>
<path id="Vector_38" d="M59.3739 26.7363C59.6344 26.3979 59.8662 26.0595 60.0743 25.7516C60.1724 25.5926 60.274 25.4454 60.3586 25.2999C60.4432 25.1544 60.5277 25.0207 60.6056 24.8972C60.9084 24.3981 61.1301 24.0665 61.3111 24.1037C61.4921 24.1409 61.5751 24.5554 61.4668 25.2102C61.4376 25.3878 61.3958 25.5631 61.3416 25.7347C61.2819 25.9329 61.2101 26.1273 61.1267 26.3167C60.7386 27.1881 60.1432 27.9514 59.3925 28.5399C59.2305 28.6668 59.061 28.7838 58.8849 28.8901C58.7315 28.985 58.5715 29.0686 58.4061 29.1405C57.7987 29.4062 57.3689 29.4146 57.2962 29.2607C57.2234 29.1067 57.484 28.7971 57.8934 28.3826C57.9949 28.2777 58.1083 28.1677 58.2318 28.0442C58.3553 27.9207 58.4704 27.7921 58.6006 27.6584C58.8409 27.3792 59.1082 27.073 59.3739 26.7363Z" fill="#40565A"/>
<path id="Vector_39" d="M10.2656 56.9932C12.8221 55.1168 13.8847 51.8548 14.6748 48.7856C16.3189 42.3846 17.4175 35.8558 17.9588 29.2692L33.3554 33.8645C35.0473 34.3721 36.7595 34.8797 38.5225 34.944C42.9503 35.1132 46.9365 32.5228 51.0851 30.9679C55.1378 29.4531 59.4869 28.8999 63.7898 29.3521C63.7898 29.3521 65.0587 49.9429 72.0515 57.1793C72.1885 69.5304 64.6848 80.4365 56.435 89.6271C54.5282 91.7505 52.5435 93.8704 50.0818 95.3154L50.053 95.3373C48.1839 96.4498 46.0526 97.0454 43.8775 97.0631L38.8254 97.0885C36.6407 97.0998 34.4935 96.5205 32.6109 95.4118L32.4417 95.317C29.98 93.8721 27.9954 91.7538 26.0885 89.6288C17.8421 80.4484 9.97462 69.5321 10.1117 57.1827" stroke="#42565E" stroke-width="2.7807" stroke-miterlimit="10" stroke-linecap="round"/>
<path id="Vector_40" d="M63.2145 14.6323C63.8169 13.0774 64.0097 11.5006 64.1637 10.3365C64.3177 9.17247 64.4463 8.4111 64.6899 8.3908C64.9335 8.37049 65.2228 9.09464 65.3853 10.3348C65.4782 11.0688 65.4947 11.8105 65.4343 12.5479C65.3618 13.4749 65.1561 14.3866 64.8235 15.2549C64.4765 16.1476 63.9684 16.9688 63.3245 17.6778C62.7983 18.2591 62.1668 18.7356 61.4634 19.0821C60.9949 19.3213 60.4825 19.4624 59.9576 19.4966C59.5836 19.5068 59.3739 19.4306 59.3502 19.3173C59.296 19.0669 59.9796 18.764 60.8069 18.05C61.2902 17.6388 61.7245 17.1733 62.1012 16.6626C62.5572 16.036 62.9314 15.3537 63.2145 14.6323Z" fill="#796F9C"/>
<path id="Vector_41" d="M67.7709 14.5443C67.9181 13.7203 67.9688 12.8947 68.0771 12.2619C68.1854 11.6291 68.3512 11.2112 68.5847 11.1875C68.8182 11.1638 69.0804 11.5259 69.2902 12.1671C69.4105 12.5466 69.4894 12.9381 69.5254 13.3346C69.5744 13.8425 69.5545 14.3547 69.4662 14.8573C69.3729 15.3819 69.1891 15.8862 68.9231 16.3479C68.7038 16.7331 68.4119 17.0721 68.0636 17.3461C67.8282 17.5387 67.5495 17.6711 67.2515 17.7319C67.0298 17.7657 66.8843 17.7183 66.8234 17.6185C66.6999 17.4053 66.9148 17.0517 67.1381 16.5492C67.4331 15.9104 67.6457 15.2367 67.7709 14.5443Z" fill="#796F9C"/>
<path id="Vector_42" d="M62.6579 20.2715C63.2873 19.857 63.8642 19.4898 64.3363 19.2462C64.8083 19.0025 65.1822 18.8976 65.3514 19.0567C65.5206 19.2157 65.4766 19.6133 65.1822 20.1226C64.7719 20.7583 64.2331 21.3012 63.6005 21.7164C62.968 22.1316 62.2556 22.41 61.5091 22.5336C60.9237 22.603 60.5328 22.4913 60.4635 22.2663C60.3941 22.0412 60.6326 21.7384 61.0455 21.4034C61.4583 21.0684 62.0268 20.6843 62.6579 20.2715Z" fill="#796F9C"/>
<path id="Vector_43" d="M69.7217 34.7664C70.0293 34.2116 70.4686 33.741 71.0008 33.3959C71.4272 33.1404 71.7842 33.1015 71.9483 33.269C72.1124 33.4365 72.0769 33.7766 71.928 34.1911C71.7314 34.6894 71.4938 35.1704 71.2174 35.6292C70.9583 36.0982 70.6606 36.5447 70.3274 36.9642C70.0448 37.3026 69.7725 37.5039 69.5407 37.443C69.3089 37.3821 69.1684 37.0572 69.1752 36.5598C69.2077 35.9262 69.3953 35.3104 69.7217 34.7664Z" fill="#796F9C"/>
<path id="Vector_44" d="M8.94762 28.2489C9.11288 27.8264 9.32154 27.4221 9.57025 27.0426C9.77446 26.7342 10.0135 26.4503 10.2826 26.1966C10.7529 25.7601 11.1607 25.6061 11.3434 25.7516C11.5261 25.8971 11.4787 26.31 11.3079 26.8598C11.137 27.4097 10.8578 28.1102 10.5566 28.8902C10.2555 29.6701 9.98985 30.3655 9.74452 30.8883C9.49919 31.4111 9.26401 31.7478 9.02207 31.7343C8.78012 31.7208 8.59232 31.3282 8.53987 30.6887C8.51399 30.318 8.53103 29.9456 8.59062 29.5788C8.66269 29.1242 8.78235 28.6785 8.94762 28.2489Z" fill="white"/>
<path id="Vector_45" d="M14.2637 19.067C14.5646 18.7867 14.9467 18.609 15.355 18.5595C15.6933 18.5324 15.9488 18.6424 16.0605 18.8522C16.1102 18.9708 16.1317 19.0993 16.1232 19.2276C16.1146 19.356 16.0764 19.4806 16.0114 19.5915C15.7081 20.1747 15.2029 20.6275 14.5902 20.8656C14.473 20.9181 14.3452 20.9427 14.2169 20.9374C14.0886 20.9321 13.9633 20.8971 13.8508 20.8351C13.6546 20.7014 13.5734 20.4324 13.636 20.1025C13.7296 19.6993 13.9495 19.3366 14.2637 19.067Z" fill="white"/>
<path id="Vector_46" d="M38.2606 38.1753C38.2883 37.6986 37.6483 37.2736 36.8312 37.2261C36.014 37.1785 35.3291 37.5264 35.3013 38.0031C35.2736 38.4798 35.9135 38.9048 36.7307 38.9523C37.5479 38.9999 38.2328 38.652 38.2606 38.1753Z" fill="white"/>
<path id="Vector_47" d="M39.1875 75.5061H43.0687" stroke="#42565E" stroke-width="2.7807" stroke-miterlimit="10" stroke-linecap="square"/>
<path id="Vector_48" d="M4.68735 58.1148C4.94294 57.2303 5.39819 56.4163 6.01801 55.7354C6.63783 55.0546 7.40568 54.5251 8.26239 54.1879" stroke="#42565E" stroke-width="2.7807" stroke-miterlimit="10" stroke-linecap="square"/>
<path id="Vector_49" d="M75.9717 58.1148C75.715 57.2293 75.2582 56.4146 74.6366 55.7337C74.0149 55.0527 73.2451 54.5239 72.3865 54.1879" stroke="#42565E" stroke-width="2.7807" stroke-miterlimit="10" stroke-linecap="square"/>
<path id="Vector_50" d="M7.36736 61.3684C7.65019 61.7643 7.90353 62.1805 8.12535 62.6136C8.30469 63.0011 8.35207 63.3327 8.18795 63.5087C8.02383 63.6846 7.69391 63.6779 7.27938 63.4951C6.72834 63.2388 6.25963 62.8339 5.92584 62.326C5.50455 61.7034 5.35397 60.9725 5.45041 60.4497C5.47838 60.2355 5.56439 60.0331 5.69912 59.8643C5.73931 59.8102 5.79245 59.7672 5.85366 59.7391C5.91487 59.711 5.98217 59.6987 6.04935 59.7035C6.28961 59.7391 6.46218 59.9928 6.66014 60.2839C6.85809 60.5749 7.0865 60.9488 7.36736 61.3684Z" fill="white"/>
<path id="Vector_51" d="M53.0545 48.1577C51.9078 48.2782 50.7948 48.6171 49.7755 49.156C48.9533 49.5705 48.422 49.9207 48.2071 49.7515C48.1073 49.672 48.1073 49.469 48.224 49.1746C48.4022 48.7716 48.6541 48.4055 48.9668 48.0951C49.1757 47.8764 49.4021 47.675 49.6436 47.4928C49.9271 47.2842 50.2277 47.0997 50.542 46.9412C52.0178 46.1977 53.7227 46.0493 55.3048 46.5267C55.6415 46.6283 55.9692 46.7579 56.2844 46.9142C56.5563 47.0506 56.8166 47.2091 57.0627 47.3879C57.4244 47.6393 57.736 47.956 57.9814 48.3218C58.1506 48.5926 58.181 48.7922 58.0981 48.8869C57.9171 49.09 57.3317 48.8379 56.4502 48.5722C55.355 48.2191 54.2025 48.0784 53.0545 48.1577Z" fill="#D7AD8C"/>
<path id="Vector_52" d="M59.0879 48.0241C58.2416 47.287 57.2554 46.7281 56.1882 46.3806C55.1211 46.0331 53.9948 45.9042 52.8767 46.0016C51.7587 46.0991 50.6717 46.4208 49.6807 46.9477C48.6898 47.4745 47.8151 48.1957 47.1091 49.0681" stroke="#42565E" stroke-width="2.7807" stroke-miterlimit="10" stroke-linecap="square"/>
<path id="Vector_53" d="M45.8435 55.3198C48.0176 54.3571 50.2239 53.4062 52.5621 52.9781C54.9004 52.5501 57.4146 52.6871 59.5092 53.8139" stroke="#42565E" stroke-width="3.05877" stroke-miterlimit="10"/>
<path id="Vector_54" d="M56.347 54.9307C56.3283 55.7213 56.0011 56.4733 55.4353 57.0258C54.8696 57.5784 54.1101 57.8877 53.3193 57.8877C52.5285 57.8877 51.769 57.5784 51.2032 57.0258C50.6375 56.4733 50.3103 55.7213 50.2916 54.9307C50.2916 53.2591 51.6451 52.601 53.3201 52.601C54.9951 52.601 56.347 53.2591 56.347 54.9307Z" fill="#325560"/>
<path id="Vector_55" d="M29.4724 48.1579C30.6191 48.2785 31.7321 48.6173 32.7514 49.1562C33.5736 49.5707 34.1049 49.9209 34.3198 49.7517C34.4196 49.6722 34.4196 49.4692 34.3029 49.1748C34.1247 48.7718 33.8728 48.4057 33.5601 48.0953C33.3512 47.8766 33.1248 47.6752 32.8833 47.493C32.5998 47.2844 32.2992 47.0999 31.9849 46.9414C30.5063 46.1952 28.7971 46.0468 27.212 46.5269C26.8752 46.6286 26.5475 46.7582 26.2324 46.9144C25.9605 47.0509 25.7002 47.2093 25.4541 47.3881C25.0923 47.6395 24.7808 47.9562 24.5354 48.3221C24.3662 48.5928 24.3357 48.7924 24.4186 48.8872C24.5997 49.0902 25.1851 48.8381 26.0666 48.5725C27.1649 48.2181 28.3211 48.0773 29.4724 48.1579Z" fill="#D7AD8C"/>
<path id="Vector_56" d="M23.4373 48.0241C24.2836 47.287 25.2698 46.7281 26.337 46.3806C27.4041 46.0331 28.5304 45.9042 29.6485 46.0016C30.7665 46.0991 31.8535 46.4208 32.8445 46.9477C33.8354 47.4745 34.7101 48.1957 35.4161 49.0681" stroke="#42565E" stroke-width="2.7807" stroke-miterlimit="10" stroke-linecap="square"/>
<path id="Vector_57" d="M36.6868 55.3198C34.5127 54.3571 32.3064 53.4062 29.9681 52.9781C27.6299 52.5501 25.1157 52.6871 23.0211 53.8139" stroke="#42565E" stroke-width="3.05877" stroke-miterlimit="10"/>
<path id="Vector_58" d="M26.1799 54.9307C26.1986 55.7213 26.5258 56.4733 27.0916 57.0258C27.6573 57.5784 28.4168 57.8877 29.2076 57.8877C29.9984 57.8877 30.7579 57.5784 31.3237 57.0258C31.8894 56.4733 32.2166 55.7213 32.2353 54.9307C32.2353 53.2591 30.8818 52.601 29.2068 52.601C27.5318 52.601 26.1799 53.2591 26.1799 54.9307Z" fill="#325560"/>
<path id="Vector_59" d="M36.01 84.8947C37.6038 85.5974 39.3532 85.8727 41.0858 85.6933C43.4985 85.4378 46.0178 84.0014 46.5592 81.6327" stroke="#42565E" stroke-width="2.7807" stroke-miterlimit="10" stroke-linecap="square"/>
<path id="Vector_60" d="M42.7205 91.0876C43.3049 90.2936 43.1349 89.1763 42.3409 88.592C41.5469 88.0077 40.4296 88.1777 39.8453 88.9717C39.2609 89.7656 39.4309 90.883 40.2249 91.4673C41.0189 92.0516 42.1362 91.8816 42.7205 91.0876Z" fill="#F0D7C2"/>
</g>
</g>
</g>
</svg>
