<svg width="21" height="21" viewBox="0 0 21 21" fill="none" xmlns="http://www.w3.org/2000/svg">
<path id="Icon" d="M1.72915 4.16667L16.9297 19.0065M1.72915 4.16667C2.2947 3.521 3.13942 3.11111 4.08316 3.11111H9.22177M1.72915 4.16667C1.27429 4.68596 1 5.35777 1 6.0915V17.0196C1 18.6656 2.38038 20 4.08316 20H15.3881C17.0909 20 18.4713 18.6656 18.4713 17.0196V12.549M9.22177 12.549L2.54158 19.0065M16.5057 4.37778V4.31428M20 4.30435C20 6.50725 16.5057 9.44444 16.5057 9.44444C16.5057 9.44444 13.0115 6.50725 13.0115 4.30435C13.0115 2.47941 14.5759 1 16.5057 1C18.4356 1 20 2.47941 20 4.30435Z" stroke="#15324F" stroke-linecap="round" stroke-linejoin="round"/>
</svg>
