<svg width="16" height="15" viewBox="0 0 16 15" fill="none" xmlns="http://www.w3.org/2000/svg">
<g id="find">
<path id="Vector" d="M7.25566 3.06033L7.24121 3.37929L7.24126 3.37929L7.24141 3.3793L7.24188 3.37932L7.24356 3.3794L7.24979 3.37967L7.25566 3.37992V3.38417H7.25566H7.25567H7.25568H7.25569H7.25569H7.2557H7.25571H7.25572H7.25572H7.25573H7.25573H7.25574H7.25575H7.25575H7.25576H7.25577H7.25578H7.25579H7.2558H7.2558H7.25582H7.25582H7.25584H7.25586H7.25588H7.25591H7.25593H7.25594H7.25596H7.25596H7.25598H7.25599H7.25601H7.25602H7.25604H7.25606H7.25607H7.25609H7.2561H7.25613H7.25616H7.25619H7.2562H7.25622H7.25624H7.25626H7.25628H7.25629H7.25632H7.25633H7.25636H7.25637H7.25641H7.25644H7.25645H7.25648H7.2565H7.25653H7.25655H7.25657H7.2566H7.25661H7.25665H7.2567H7.25671H7.25674H7.25676H7.25679H7.25682H7.25684H7.25688H7.25688H7.25693H7.25694H7.25698H7.257H7.25703H7.25706H7.25708H7.25713H7.25713H7.25719H7.25719H7.25724H7.25726H7.25729H7.25733H7.25735H7.2574H7.2574H7.25746H7.25747H7.25752H7.25755H7.25757H7.25762H7.25763H7.25769H7.2577H7.25775H7.25778H7.25781H7.25786H7.25787H7.25793H7.25794H7.258H7.25803H7.25806H7.25811H7.25812H7.25819H7.2582H7.25825H7.25829H7.25832H7.25838H7.25838H7.25845H7.25847H7.25852H7.25857H7.25859H7.25865H7.25866H7.25872H7.25876H7.25879H7.25886H7.25886H7.25893H7.25896H7.259H7.25906H7.25908H7.25915H7.25917H7.25922H7.25927H7.25929H7.25937H7.25938H7.25944H7.25949H7.25952H7.25959H7.2596H7.25967H7.25972H7.25974H7.25982H7.25983H7.2599H7.25995H7.25997H7.26005H7.26007H7.26013H7.26019H7.26021H7.26029H7.26031H7.26037H7.26044H7.26045H7.26053H7.26056H7.26061H7.26069H7.26069H7.26077H7.26082H7.26085H7.26093H7.26095H7.26102H7.26109H7.2611H7.26118H7.26122H7.26126H7.26135H7.26136H7.26143H7.2615H7.26152H7.2616H7.26164H7.26168H7.26177H7.26179H7.26185H7.26193H7.26194H7.26202H7.26208H7.26211H7.2622H7.26223H7.26228H7.26237H7.26238H7.26245H7.26254H7.26254H7.26263H7.26269H7.26272H7.2628H7.26285H7.26289H7.26298H7.26301H7.26306H7.26315H7.26317H7.26324H7.26333H7.26333H7.26342H7.2635H7.2635H7.26359H7.26367H7.26368H7.26377H7.26383H7.26386H7.26395H7.26402H7.26403H7.26412H7.2642H7.26421H7.2643H7.26438H7.26439H7.26448H7.26455H7.26456H7.26465H7.26473H7.26474H7.26483H7.2649H7.26492H7.26501H7.26507H7.26509H7.26518H7.26523H7.26527H7.26536H7.2654H7.26545H7.26554H7.26556H7.26562H7.26571H7.26573H7.2658H7.26589H7.26597H7.26604H7.26606H7.26615H7.2662H7.26623H7.26632H7.26635H7.26641H7.26649H7.2665H7.26658H7.26665H7.26666H7.26675H7.2668H7.26684H7.26692H7.26695H7.26701H7.26709H7.26718H7.26723H7.26726H7.26734H7.26737H7.26743H7.26751H7.26759H7.26765H7.26768H7.26776H7.26778H7.26784H7.26792H7.26792H7.268H7.26805H7.26809H7.26817H7.26817H7.26825H7.2683H7.26833H7.26841H7.26843H7.26849H7.26855H7.26856H7.26864H7.26867H7.26872H7.26879H7.2688H7.26888H7.26891H7.26895H7.26902H7.26903H7.26911H7.26914H7.26918H7.26925H7.26926H7.26933H7.26936H7.2694H7.26947H7.26948H7.26955H7.26958H7.26962H7.26968H7.2697H7.26977H7.26978H7.26984H7.26988H7.26991H7.26998H7.26998H7.27005H7.27008H7.27012H7.27018H7.27019H7.27025H7.27027H7.27032H7.27037H7.27039H7.27045H7.27052H7.27055H7.27058H7.27063H7.27065H7.27071H7.27072H7.27077H7.2708H7.27084H7.27089H7.2709H7.27096H7.27097H7.27102H7.27105H7.27108H7.27112H7.27114H7.2712H7.2712H7.27125H7.27128H7.27131H7.27135H7.27137H7.27142H7.27148H7.27149H7.27153H7.27156H7.27158H7.27162H7.27164H7.27169H7.27174H7.27175H7.27179H7.27181H7.27184H7.27187H7.27188H7.27193H7.27198H7.27199H7.27202H7.27204H7.27207H7.2721H7.27211H7.27215H7.27216H7.2722H7.27224H7.27225H7.27228H7.2723H7.27232H7.27235H7.27236H7.27239H7.2724H7.27244H7.27247H7.27248H7.27251H7.27252H7.27254H7.27256H7.27258H7.27259H7.27261H7.27263H7.27264H7.27267H7.27267H7.2727H7.27273H7.27276H7.27276H7.27278H7.27279H7.27281H7.27282H7.27283H7.27285H7.27286H7.27287H7.27288H7.27289H7.2729H7.27292H7.27292H7.27294H7.27296H7.27298H7.27299H7.27301H7.27302H7.27304H7.27305H7.27306H7.27307H7.27308H7.27308L7.2731 3.38067L7.27343 3.38068L7.36255 3.38422C7.43947 3.38714 7.55004 3.39101 7.68557 3.39488C7.95638 3.40261 8.32805 3.41036 8.73066 3.41036H9.23066V2.91036V0.668213C9.24663 0.643356 9.27264 0.610088 9.30707 0.575334C9.34053 0.541554 9.37242 0.515978 9.39643 0.5H11.6958C11.7198 0.515943 11.7517 0.541485 11.7852 0.575228C11.8195 0.609807 11.8454 0.642892 11.8613 0.667626V2.91036V3.41036H12.3613H13.4091C13.423 3.41036 13.4304 3.41164 13.4333 3.41229C13.434 3.41278 13.4351 3.41361 13.4367 3.41492C13.4434 3.42044 13.4574 3.43369 13.4788 3.46223C13.4905 3.47775 13.503 3.496 13.5169 3.51778L13.557 3.5861C15.5163 6.92592 15.7562 10.0685 15.3075 14.0055L15.3074 14.0065C15.3065 14.0148 15.3054 14.0218 15.3043 14.0278H10.9418C10.9406 14.0276 10.939 14.0273 10.9371 14.0269C10.926 14.0247 10.9087 14.0202 10.8867 14.0126C10.8415 13.9971 10.7913 13.9736 10.7473 13.9455C10.7197 13.9279 10.7005 13.9123 10.688 13.9006L10.6866 10.1934L10.6864 9.69355H10.1866H5.81811H5.3184L5.31811 10.1933L5.31595 13.9111C5.30547 13.9217 5.28869 13.9364 5.26387 13.9532C5.22558 13.9792 5.18173 14.0008 5.14234 14.0149C5.12318 14.0218 5.10859 14.0256 5.09974 14.0275C5.09916 14.0276 5.09862 14.0277 5.09813 14.0278H0.724977C0.725173 14.0278 0.722585 14.0278 0.718081 14.0274C0.713524 14.0271 0.707943 14.0264 0.701994 14.0253C0.699422 14.0248 0.696998 14.0243 0.694743 14.0238C0.693805 14.0192 0.692836 14.0134 0.692003 14.0064C0.24416 10.0683 0.484111 6.92659 2.44177 3.58631C2.47341 3.53253 2.49874 3.49364 2.52098 3.46421C2.54289 3.4352 2.55716 3.42168 2.56414 3.41596C2.56592 3.41449 2.56715 3.4136 2.5679 3.41309L7.25566 3.06033ZM7.25566 3.06033L7.25566 3.06033L7.25566 3.06033ZM8.72073 9.42015L9.23138 9.43104V8.92026V4.16764V3.66764H8.73138H8.00379V3.6717L7.28708 3.63835L6.76383 3.614V4.13781V8.88897V9.37843L7.25318 9.38886L8.72073 9.42015Z" stroke="#15324F"/>
</g>
</svg>
