<svg width="42" height="36" viewBox="0 0 42 36" fill="none" xmlns="http://www.w3.org/2000/svg">
<g id="Group 114">
<g id="Group">
<path id="Vector" d="M9.33046 15.6357L0 28.2744L8.8214 26.5241L9.60243 35.0805L18.1533 23.3888" fill="#E04F5F"/>
<path id="Vector_2" d="M32.0528 15.6357L41.3832 28.2744L32.5618 26.5241L31.7808 35.0805L23.23 23.3888" fill="#E04F5F"/>
</g>
<path id="Vector_3" d="M20.5144 24.6441C27.3667 24.6441 32.9216 19.1274 32.9216 12.3221C32.9216 5.51678 27.3667 0 20.5144 0C13.6622 0 8.1073 5.51678 8.1073 12.3221C8.1073 19.1274 13.6622 24.6441 20.5144 24.6441Z" fill="#F2B851"/>
<path id="Vector_4" d="M20.5144 20.2272C24.9103 20.2272 28.4739 16.6879 28.4739 12.3221C28.4739 7.95622 24.9103 4.41699 20.5144 4.41699C16.1185 4.41699 12.5549 7.95622 12.5549 12.3221C12.5549 16.6879 16.1185 20.2272 20.5144 20.2272Z" fill="#D89D3D"/>
<g id="Group_2">
<path id="Vector_5" d="M19.0207 16.5187H17.4252V10.509C16.8436 11.0543 16.156 11.4574 15.3652 11.7168V10.2705C15.7809 10.1339 16.2327 9.87583 16.7223 9.49508C17.2104 9.11573 17.5451 8.67082 17.7264 8.16455H19.0207V16.5187Z" fill="white"/>
<path id="Vector_6" d="M20.4755 11.3083L21.0863 11.2497C21.1226 11.4547 21.1979 11.6053 21.3109 11.7016C21.4225 11.7978 21.5745 11.8466 21.7656 11.8466C21.9692 11.8466 22.1212 11.8034 22.223 11.7183C22.3248 11.6332 22.3764 11.5328 22.3764 11.4184C22.3764 11.3445 22.3541 11.2818 22.3109 11.2302C22.269 11.1785 22.1923 11.1339 22.0849 11.0949C22.011 11.0698 21.8437 11.0237 21.5828 10.9596C21.2467 10.8759 21.0096 10.7727 20.8729 10.6514C20.6819 10.4798 20.587 10.272 20.587 10.0251C20.587 9.86615 20.6317 9.71831 20.7223 9.58024C20.813 9.44216 20.9413 9.33756 21.11 9.26504C21.2788 9.19251 21.4838 9.15625 21.7223 9.15625C22.1128 9.15625 22.4071 9.24272 22.6038 9.41287C22.8018 9.58442 22.9064 9.81315 22.9162 10.0991L22.2872 10.127C22.2607 9.96656 22.2021 9.8522 22.1142 9.78107C22.0264 9.70994 21.8939 9.67647 21.7167 9.67647C21.534 9.67647 21.3918 9.71412 21.2872 9.78944C21.2202 9.83825 21.1882 9.90241 21.1882 9.9833C21.1882 10.0572 21.2188 10.12 21.2816 10.1716C21.3611 10.2385 21.5522 10.3083 21.859 10.3794C22.1644 10.4519 22.3904 10.5258 22.5368 10.6025C22.6819 10.6806 22.7976 10.7852 22.8799 10.9191C22.9622 11.053 23.004 11.2176 23.004 11.4142C23.004 11.5928 22.9552 11.7601 22.8562 11.9149C22.7572 12.0698 22.6177 12.1855 22.4364 12.2622C22.2551 12.3389 22.0291 12.3766 21.7586 12.3766C21.3653 12.3766 21.064 12.2859 20.8534 12.1032C20.6428 11.9219 20.5159 11.6569 20.4755 11.3083Z" fill="white"/>
<path id="Vector_7" d="M24.2354 12.3205V9.73478H23.3121V9.20898H25.7835V9.73478H24.863V12.3205H24.2354Z" fill="white"/>
</g>
</g>
</svg>
