<svg width="115" height="73" viewBox="0 0 115 73" fill="none" xmlns="http://www.w3.org/2000/svg">
<g id="Group">
<path id="Vector" d="M32.4308 14.5861H65.5756V11.1312H37.1756L46.6653 4.22119H67.5795L90.9352 21.2197C90.083 21.1276 89.2307 21.0815 88.3785 21.0815C82.5281 21.0815 77.0001 23.0854 72.5547 26.5174H58.8499V18.0411H55.3949V26.5174H41.6902C37.2447 23.0854 31.7168 21.0815 25.8663 21.0815C24.9911 21.0815 24.1388 21.1276 23.3096 21.2197L32.4308 14.5861Z" fill="#4CC3F2"/>
<path id="Vector_2" d="M88.3555 69.3361C79.004 69.3361 70.5508 63.4395 67.3262 54.6639L66.9116 53.5353H47.3103L46.8957 54.6639C43.671 63.4395 35.2178 69.3361 25.8663 69.3361C13.5205 69.3361 3.47803 59.2936 3.47803 46.9477C3.47803 34.6019 13.5205 24.5594 25.8663 24.5594C35.2178 24.5594 43.671 30.456 46.8957 39.2316L47.3103 40.3602H66.9116L67.3262 39.2316C70.5508 30.456 79.004 24.5594 88.3555 24.5594C100.701 24.5594 110.744 34.6019 110.744 46.9477C110.767 59.2936 100.724 69.3361 88.3555 69.3361Z" fill="#CFF1FF"/>
<path id="Vector_3" d="M57.1224 41.604C54.1741 41.604 51.7787 43.9995 51.7787 46.9477C51.7787 49.896 54.1741 52.2914 57.1224 52.2914C60.0707 52.2914 62.4661 49.896 62.4661 46.9477C62.4661 43.9995 60.0707 41.604 57.1224 41.604ZM57.1224 48.8364C56.0859 48.8364 55.2337 47.9842 55.2337 46.9477C55.2337 45.9112 56.0859 45.059 57.1224 45.059C58.1589 45.059 59.0111 45.9112 59.0111 46.9477C59.0111 47.9842 58.1589 48.8364 57.1224 48.8364Z" fill="#0A557F"/>
<path id="Vector_4" d="M88.3555 62.4262C79.8102 62.4262 72.8772 55.4701 72.8772 46.9478C72.8772 38.4025 79.8332 31.4695 88.3555 31.4695C96.9009 31.4695 103.834 38.4255 103.834 46.9478C103.857 55.4931 96.9009 62.4262 88.3555 62.4262Z" fill="#4CC3F2"/>
<path id="Vector_5" d="M88.3555 27.9915C77.9214 27.9915 69.4222 36.4907 69.4222 46.9248C69.4222 57.3588 77.9214 65.8581 88.3555 65.8581C98.7896 65.8581 107.289 57.3588 107.289 46.9248C107.312 36.4907 98.8126 27.9915 88.3555 27.9915ZM88.3555 62.4261C79.8102 62.4261 72.8772 55.4701 72.8772 46.9478C72.8772 38.4025 79.8332 31.4695 88.3555 31.4695C96.9008 31.4695 103.834 38.4255 103.834 46.9478C103.857 55.4931 96.9008 62.4261 88.3555 62.4261Z" fill="#0A557F"/>
<path id="Vector_6" d="M105.17 27.3235L105.101 27.2774C104.087 26.4252 68.6851 0.789185 68.6851 0.789185H45.5367C45.5367 0.789185 10.1346 26.4252 9.12116 27.2774L9.05206 27.3235C3.52408 32.0683 0 39.1165 0 46.9478C0.0230332 61.2054 11.6318 72.7911 25.8663 72.7911C36.2543 72.7911 45.6749 66.48 49.6827 56.9903H64.5161C68.5239 66.503 77.9445 72.7911 88.3325 72.7911C102.59 72.7911 114.176 61.1823 114.176 46.9478C114.222 39.0935 110.698 32.0683 105.17 27.3235ZM32.4308 14.5861H65.5756V11.1311H37.1756L46.6653 4.22114H67.5795L90.9352 21.2197C90.083 21.1275 89.2308 21.0815 88.3785 21.0815C82.5281 21.0815 77.0001 23.0854 72.5547 26.5173H58.8499V18.0411H55.3949V26.5173H41.6902C37.2447 23.0854 31.7168 21.0815 25.8663 21.0815C24.9911 21.0815 24.1388 21.1275 23.3096 21.2197L32.4308 14.5861ZM68.8694 29.9723C67.0958 31.9992 65.6217 34.3256 64.5391 36.9053H49.7057C48.6232 34.3486 47.149 32.0223 45.3755 29.9723H68.8694ZM88.3555 69.3361C79.004 69.3361 70.5508 63.4396 67.3261 54.6639L66.9116 53.5353H47.3103L46.8957 54.6639C43.671 63.4396 35.2178 69.3361 25.8663 69.3361C13.5205 69.3361 3.47802 59.2936 3.47802 46.9478C3.47802 34.602 13.5205 24.5595 25.8663 24.5595C35.2178 24.5595 43.671 30.456 46.8957 39.2317L47.3103 40.3603H66.9116L67.3261 39.2317C70.5508 30.456 79.004 24.5595 88.3555 24.5595C100.701 24.5595 110.744 34.602 110.744 46.9478C110.767 59.2936 100.724 69.3361 88.3555 69.3361Z" fill="#0A557F"/>
<path id="Vector_7" d="M25.8663 62.4262C17.321 62.4262 10.388 55.4701 10.388 46.9478C10.388 38.4025 17.344 31.4695 25.8663 31.4695C34.4117 31.4695 41.3447 38.4255 41.3447 46.9478C41.3677 55.4931 34.4117 62.4262 25.8663 62.4262Z" fill="#4CC3F2"/>
<path id="Vector_8" d="M25.8663 27.9915C15.4322 27.9915 6.93298 36.4907 6.93298 46.9248C6.93298 57.3588 15.4322 65.8581 25.8663 65.8581C36.3004 65.8581 44.7996 57.3588 44.7996 46.9248C44.8227 36.4907 36.3234 27.9915 25.8663 27.9915ZM25.8663 62.4261C17.321 62.4261 10.388 55.4701 10.388 46.9478C10.388 38.4025 17.344 31.4695 25.8663 31.4695C34.4116 31.4695 41.3446 38.4255 41.3446 46.9478C41.3677 55.4931 34.4116 62.4261 25.8663 62.4261Z" fill="#0A557F"/>
<path id="Vector_9" d="M14.534 50.9786C15.0638 52.4758 15.8699 53.8348 16.9525 55.0095L19.5092 52.6831C18.7491 51.8309 18.1732 50.8635 17.7817 49.804L14.534 50.9786Z" fill="white"/>
<path id="Vector_10" d="M13.843 46.9477H17.2979C17.2979 42.2259 21.1445 38.3794 25.8663 38.3794V34.9244C19.2327 34.9014 13.843 40.3142 13.843 46.9477Z" fill="white"/>
<path id="Vector_11" d="M94.7357 52.683L97.2924 55.0094C98.3519 53.8347 99.1811 52.4757 99.7109 50.9786L96.4632 49.8269C96.0716 50.8864 95.4958 51.8538 94.7357 52.683Z" fill="white"/>
<path id="Vector_12" d="M100.402 46.9478C100.402 40.3142 95.0121 34.9244 88.3785 34.9244V38.3794C93.1004 38.3794 96.9469 42.226 96.9469 46.9478H100.402Z" fill="white"/>
<path id="Vector_13" d="M85.7834 0.0059847L83.7283 2.78345L96.1899 12.0037L98.2449 9.2262L85.7834 0.0059847Z" fill="#0A557F"/>
<path id="Vector_14" d="M101.017 11.2728L98.9615 14.0499L101.739 16.105L103.794 13.3278L101.017 11.2728Z" fill="#0A557F"/>
<path id="Vector_15" d="M28.4492 9.17441e-07L15.9892 9.22021L18.0442 11.9973L30.5042 2.77712L28.4492 9.17441e-07Z" fill="#0A557F"/>
<path id="Vector_16" d="M13.2104 11.2787L10.433 13.3337L12.488 16.1112L15.2655 14.0562L13.2104 11.2787Z" fill="#0A557F"/>
<path id="Vector_17" d="M72.4856 11.1311H69.0306V14.5861H72.4856V11.1311Z" fill="white"/>
</g>
</svg>
