<svg width="20" height="20" viewBox="0 0 20 20" fill="none" xmlns="http://www.w3.org/2000/svg">
<path id="Icon" d="M7.75 4.9375L4.9375 4.9375M7.75 8.3125L4.9375 8.3125M15.0625 4.9375H12.25M15.0625 8.3125L12.25 8.3125M7.75 11.6875H4.9375M7.75 15.0625H4.9375M1 4.375L1 15.625C1 17.489 2.51104 19 4.375 19C6.23896 19 13.761 19 15.625 19C17.489 19 19 17.489 19 15.625V4.375C19 2.51104 17.489 1 15.625 1L4.375 1C2.51104 1 1 2.51104 1 4.375Z" stroke="black" stroke-linecap="round" stroke-linejoin="round"/>
</svg>
