<svg width="30" height="31" viewBox="0 0 30 31" fill="none" xmlns="http://www.w3.org/2000/svg">
<path id="loading" d="M9.2726 13.7747C9.1806 13.7747 9.0886 13.7397 9.0186 13.6698C8.8776 13.5288 8.8776 13.3017 9.0186 13.1607L16.6086 5.57075C16.7496 5.42975 16.9776 5.42975 17.1186 5.57075C17.2596 5.71175 17.2596 5.93875 17.1186 6.07975L9.5276 13.6698C9.4566 13.7397 9.3646 13.7747 9.2726 13.7747ZM15.1146 11.9317C15.0226 11.9317 14.9306 11.8967 14.8606 11.8267C14.7196 11.6858 14.7196 11.4587 14.8606 11.3177L18.6076 7.57075C18.7486 7.42975 18.9766 7.42975 19.1176 7.57075C19.2586 7.71175 19.2586 7.93875 19.1176 8.07975L15.3696 11.8267C15.2996 11.8967 15.2076 11.9317 15.1146 11.9317ZM27.7166 30.6868C27.4826 30.6868 27.2666 30.6017 27.1106 30.4457L21.0886 24.4237C19.0876 22.4228 16.8466 22.4207 14.4726 22.4198H14.2166C10.6236 23.2397 6.5236 22.1238 3.5406 19.1418C-0.888398 14.7118 -1.2054 7.82175 2.8336 3.78275C6.0366 0.57675 11.2686 0.0397499 15.5546 2.47575L15.1996 3.10175C11.1296 0.78875 6.3646 1.26675 3.3406 4.29075C-0.417398 8.04875 -0.100398 14.4818 4.0476 18.6308C8.1976 22.7798 14.6316 23.0968 18.3876 19.3377C20.6516 17.0728 21.5256 13.7257 20.7256 10.3837L21.4266 10.2157C21.8306 11.9078 21.8346 13.6027 21.4696 15.1768V15.4217C21.4706 17.7947 21.4726 20.0357 23.4736 22.0367L29.4946 28.0578C29.8596 28.4248 29.8086 29.0497 29.3786 29.4807L28.5306 30.3277C28.3376 30.5208 28.0926 30.6447 27.8416 30.6777C27.8006 30.6838 27.7576 30.6868 27.7166 30.6868ZM21.8856 24.2038L27.6186 29.9357C27.6756 29.9947 27.8666 29.9748 28.0206 29.8188L28.8686 28.9718C29.0276 28.8137 29.0436 28.6267 28.9846 28.5677L23.2546 22.8368L21.8856 24.2038ZM16.2166 21.7307C17.9866 21.8237 19.7516 22.1967 21.3736 23.6987L22.7486 22.3228C21.2476 20.7008 20.8746 18.9347 20.7816 17.1658C20.3156 18.1538 19.6836 19.0617 18.8976 19.8487C18.1006 20.6437 17.1936 21.2708 16.2166 21.7307ZM21.3646 6.68675C20.4676 6.68675 19.6236 6.33675 18.9886 5.70275C17.6786 4.39275 17.6786 2.26175 18.9886 0.95175C20.2596 -0.31825 22.4726 -0.31625 23.7416 0.95175C24.3766 1.58575 24.7256 2.42975 24.7256 3.32675C24.7256 4.22375 24.3756 5.06775 23.7416 5.70175C23.1066 6.33675 22.2626 6.68675 21.3646 6.68675ZM18.7346 3.54075C18.7836 4.14375 19.0386 4.73275 19.4986 5.19275C19.9586 5.65275 20.5486 5.90775 21.1506 5.95575C21.0996 5.33675 20.8306 4.74875 20.3856 4.30475C19.9426 3.86175 19.3546 3.59175 18.7346 3.54075ZM18.7746 2.82175C19.5696 2.88275 20.3256 3.22675 20.8956 3.79675C21.4646 4.36675 21.8086 5.12175 21.8696 5.91775C22.3696 5.82075 22.8466 5.57975 23.2316 5.19375C23.6046 4.82075 23.8526 4.35575 23.9546 3.84975C23.1526 3.79175 22.3916 3.44775 21.8176 2.87375C21.2436 2.29975 20.8996 1.53975 20.8416 0.73775C20.3356 0.83875 19.8706 1.08675 19.4976 1.45975C19.1126 1.84675 18.8716 2.32275 18.7746 2.82175ZM21.5606 0.69375C21.6076 1.32075 21.8766 1.91575 22.3276 2.36475C22.7756 2.81375 23.3716 3.08375 23.9986 3.13075C23.9526 2.49975 23.6846 1.91175 23.2316 1.45975C22.7786 1.00775 22.1926 0.73975 21.5606 0.69375Z" fill="white"/>
</svg>
