<svg width="20" height="20" viewBox="0 0 20 20" fill="none" xmlns="http://www.w3.org/2000/svg">
<path id="Icon" d="M9.78049 18.561C4.93116 18.561 1 14.6298 1 9.78048C1 4.93116 4.93116 1 9.78049 1C13.4654 1 16.6202 3.26994 17.9227 6.4878M2.09756 13.0732H4.65854C5.66881 13.0732 6.4878 12.2542 6.4878 11.2439V8.86585C6.4878 7.85557 7.3068 7.03658 8.31707 7.03658H10.1463C11.1566 7.03658 11.9756 6.21759 11.9756 5.20732V2.09756M15.4878 13.2927V13.2267M19 13.2163C19 15.5069 15.4878 18.561 15.4878 18.561C15.4878 18.561 11.9756 15.5069 11.9756 13.2163C11.9756 11.3188 13.5481 9.78049 15.4878 9.78049C17.4275 9.78049 19 11.3188 19 13.2163Z" stroke="#515151" stroke-linecap="round" stroke-linejoin="round"/>
</svg>
