<svg width="31" height="32" viewBox="0 0 31 32" fill="none" xmlns="http://www.w3.org/2000/svg">
<g id="Group 60">
<g id="Group">
<path id="Vector" d="M9.87845 23.8738C12.1958 21.5565 15.1694 20.3592 17.9494 20.3723C16.0589 20.1875 14.2963 19.4263 12.935 18.065C11.5737 16.7037 10.8125 14.9412 10.6277 13.0508C10.6407 15.8307 9.44345 18.8042 7.12616 21.1215L9.87845 23.8738Z" fill="#D9E021"/>
<path id="Vector_2" d="M1.88186 29.9826L1.01738 29.1181C0.496119 28.5968 0.496119 27.7516 1.01738 27.2304L7.12616 21.1216L9.87846 23.8739L3.76967 29.9827C3.24835 30.5039 2.40319 30.5039 1.88186 29.9826Z" fill="#999999"/>
<path id="Vector_3" d="M23.4167 25.5245C22.8106 24.3153 21.5607 23.4849 20.1161 23.4849C18.0777 23.4849 16.4253 25.1372 16.4253 27.1756C16.4253 29.214 18.0777 30.8663 20.1161 30.8663C21.5607 30.8663 22.8106 30.0359 23.4167 28.8267C23.6658 28.3298 23.8068 27.7693 23.8068 27.1756C23.8068 26.5819 23.6658 26.0214 23.4167 25.5245Z" fill="#D9E021"/>
<g id="Group_2">
<path id="Vector_4" d="M28.4631 2.5368C26.6201 0.693778 24.0516 -0.194419 21.2309 0.0356919C18.4486 0.262728 15.749 1.55512 13.6294 3.67474C11.5097 5.79441 10.2173 8.49401 9.99031 11.2763C9.9395 11.8993 9.94339 12.51 9.99991 13.1032C9.9979 15.8114 8.79102 18.5694 6.68257 20.6779L0.573786 26.7867C-0.191262 27.5517 -0.191262 28.7966 0.573786 29.5617L1.43827 30.4262C1.80884 30.7968 2.30162 31.0009 2.82577 31.0009C3.34986 31.0009 3.84264 30.7968 4.21327 30.4262L10.3221 24.3174C12.4299 22.2096 15.1868 21.0023 17.8942 20.9995C18.2098 21.0297 18.5302 21.0453 18.855 21.0453C19.1414 21.0453 19.4314 21.0335 19.7237 21.0096C22.5059 20.7825 25.2056 19.4901 27.3253 17.3705C29.4449 15.2508 30.7373 12.5512 30.9643 9.76897C31.1944 6.94829 30.3062 4.37981 28.4631 2.5368ZM28.127 14.3564L26.9044 13.1338L29.1576 10.8806L29.4646 11.1876C29.2021 12.2697 28.7549 13.3437 28.127 14.3564ZM11.2188 11.7843L13.3975 13.963L11.8976 15.4628C11.3935 14.3336 11.1696 13.0764 11.2188 11.7843ZM12.6684 6.95306L13.8385 8.12319L13.0206 8.94106C12.7757 9.18604 12.7757 9.58327 13.0206 9.82831C13.1432 9.95083 13.3037 10.0121 13.4642 10.0121C13.6248 10.0121 13.7854 9.95077 13.9078 9.82831L14.7257 9.01044L16.5378 10.8225L14.2846 13.0757L11.412 10.2031C11.6395 9.09858 12.06 7.99634 12.6684 6.95306ZM22.4316 1.26429C23.4789 1.30456 24.4915 1.52896 25.4179 1.94257L23.7059 3.65454L21.8938 1.84245L22.3192 1.41705C22.3654 1.37087 22.4029 1.31924 22.4316 1.26429ZM19.8782 1.60136L20.1193 1.84245L17.8661 4.09562L16.6437 2.87318C17.6589 2.24382 18.7355 1.79552 19.8202 1.53336C19.8379 1.55694 19.8568 1.5799 19.8782 1.60136ZM21.0066 2.7297L22.8187 4.54179L20.5655 6.79497L18.7534 4.98288L21.0066 2.7297ZM19.6783 7.68216L17.4251 9.93534L15.613 8.12325L17.8662 5.87007L19.6783 7.68216ZM18.3123 10.8226L20.5655 8.56942L22.4305 10.4345L20.1773 12.6876L18.3123 10.8226ZM19.2902 13.5748L17.037 15.828L15.1719 13.963L17.4251 11.7098L19.2902 13.5748ZM14.2847 14.8502L16.1497 16.7153L14.3982 18.4667C14.0372 18.2199 13.6959 17.9385 13.3787 17.6213C13.0615 17.3041 12.7801 16.9627 12.5332 16.6017L14.2847 14.8502ZM18.6435 19.6201C18.5951 19.6685 18.5566 19.7231 18.5274 19.7812C17.4786 19.7414 16.4647 19.5165 15.5371 19.1024L17.037 17.6025L17.5182 18.0837C17.6407 18.2063 17.8013 18.2675 17.9618 18.2675C18.1224 18.2675 18.2829 18.2063 18.4054 18.0837C18.6504 17.8388 18.6504 17.4415 18.4054 17.1965L17.9242 16.7153L20.1773 14.4621L21.9894 16.2742L18.6435 19.6201ZM22.8767 17.1614L24.0469 18.3316C22.8702 19.0179 21.6183 19.4648 20.3726 19.6655L22.8767 17.1614ZM21.0646 13.5748L23.3178 11.3216L25.1299 13.1337L22.8767 15.3869L21.0646 13.5748ZM24.205 10.4345L29.0569 5.5825C29.4705 6.50877 29.6953 7.52118 29.7355 8.56841C29.6806 8.59715 29.629 8.6346 29.5829 8.68077L29.1575 9.10618L28.4896 8.4383C28.2446 8.19332 27.8474 8.19332 27.6024 8.4383C27.3573 8.68328 27.3574 9.08052 27.6024 9.32556L28.2702 9.99343L26.0171 12.2466L24.205 10.4345ZM28.4214 4.44361L23.3178 9.5472L21.4527 7.68216L23.7059 5.42899L24.4267 6.14981C24.5493 6.27233 24.7098 6.33356 24.8703 6.33356C25.0309 6.33356 25.1915 6.27233 25.3139 6.14981C25.5589 5.90483 25.5589 5.50759 25.3139 5.26255L24.5931 4.54173L26.5566 2.57826C26.9176 2.82506 27.2588 3.1068 27.5759 3.42399C27.8931 3.74124 28.1746 4.08258 28.4214 4.44361ZM14.5166 4.56199C14.8632 4.21545 15.2251 3.89581 15.599 3.60284L16.9789 4.98282L14.7258 7.23599L13.3743 5.8845C13.7156 5.42503 14.0964 4.98225 14.5166 4.56199ZM3.32608 29.539C3.19245 29.6726 3.01479 29.7462 2.82577 29.7462C2.63681 29.7462 2.45915 29.6726 2.32552 29.539L1.46104 28.6745C1.32742 28.5409 1.25377 28.3632 1.25377 28.1742C1.25377 27.9852 1.32735 27.8075 1.46104 27.6739L7.12616 22.0087L8.9912 23.8738L3.32608 29.539ZM9.88887 22.997L8.00294 21.1111C9.33781 19.6443 10.301 17.9267 10.8183 16.1299C11.2335 17.0095 11.7939 17.811 12.4914 18.5085C13.189 19.2061 13.9907 19.7663 14.8704 20.1814C13.0738 20.6988 11.3557 21.6621 9.88887 22.997ZM26.438 16.4833C26.0178 16.9036 25.575 17.2843 25.1154 17.6257L23.7639 16.2742L26.0171 14.021L27.3968 15.4007C27.1039 15.7747 26.7846 16.1368 26.438 16.4833Z" fill="black"/>
<path id="Vector_5" d="M23.9703 25.2293C23.9692 25.2273 23.9683 25.2253 23.9672 25.2234C23.2262 23.7635 21.7528 22.8574 20.1161 22.8574C17.7351 22.8574 15.798 24.7945 15.798 27.1755C15.798 29.5565 17.7351 31.4936 20.1161 31.4936C21.7603 31.4936 23.2399 30.5794 23.9776 29.1077C24.2806 28.5033 24.4342 27.8532 24.4342 27.1755C24.4342 26.4978 24.2806 25.8477 23.9776 25.2433C23.9752 25.2385 23.9726 25.234 23.9703 25.2293ZM22.8559 28.5455C22.3323 29.59 21.2825 30.2389 20.1161 30.2389C18.4269 30.2389 17.0527 28.8647 17.0527 27.1755C17.0527 25.4864 18.4269 24.1121 20.1161 24.1121C20.8908 24.1121 21.614 24.3987 22.1658 24.897H19.8247C18.5684 24.897 17.5463 25.9191 17.5463 27.1755C17.5463 28.1337 18.1518 28.9954 19.0531 29.3198C19.1233 29.3451 19.1951 29.3571 19.2656 29.3571C19.5227 29.3571 19.7638 29.1978 19.8559 28.942C19.9732 28.616 19.804 28.2566 19.478 28.1393C19.0731 27.9936 18.801 27.6062 18.801 27.1756C18.801 26.6111 19.2603 26.1518 19.8248 26.1518H23.0034C23.1201 26.479 23.1795 26.8219 23.1795 27.1756C23.1795 27.6562 23.0706 28.1171 22.8559 28.5455Z" fill="black"/>
<path id="Vector_6" d="M21.2168 28.1992H21.0873C20.7408 28.1992 20.46 28.4801 20.46 28.8266C20.46 29.173 20.7408 29.4539 21.0873 29.4539H21.2168C21.5633 29.4539 21.8441 29.173 21.8441 28.8266C21.8441 28.4801 21.5633 28.1992 21.2168 28.1992Z" fill="black"/>
<path id="Vector_7" d="M5.3435 25.3722C5.09852 25.1272 4.70129 25.1272 4.45624 25.3722L2.06053 27.7679C1.81556 28.0129 1.81556 28.4101 2.06053 28.6552C2.18306 28.7777 2.34359 28.8389 2.50413 28.8389C2.66467 28.8389 2.82527 28.7777 2.94773 28.6552L5.34344 26.2595C5.58854 26.0144 5.58854 25.6172 5.3435 25.3722Z" fill="black"/>
</g>
</g>
</g>
</svg>
