<svg width="110" height="68" viewBox="0 0 110 68" fill="none" xmlns="http://www.w3.org/2000/svg">
<g id="notification">
<g id="Group">
<path id="Vector" d="M11.8632 8.15601V54.3728H103.803V8.15601H11.8632ZM64.2587 46.9584H23.7263V44.4869H21.2548V18.7834H61.7872V21.2549H64.2587V46.9584Z" fill="#4DE0F9"/>
<g id="Group_2">
<g id="Group_3">
<path id="Vector_2" d="M59.81 4.20154H56.1028V7.16732H59.81V4.20154Z" fill="#0D5FC3"/>
</g>
</g>
<g id="Group_4">
<g id="Group_5">
<path id="Vector_3" d="M105.285 57.3385H102.32V2.96579H13.346V26.9392H10.3802V0H105.285V57.3385Z" fill="#0D5FC3"/>
</g>
</g>
<g id="Group_6">
<g id="Group_7">
<path id="Vector_4" d="M13.346 49.6769H10.3802V57.3385H13.346V49.6769Z" fill="#0D5FC3"/>
</g>
</g>
<g id="Group_8">
<g id="Group_9">
<path id="Vector_5" d="M105.038 67.2246H10.6274C7.90875 67.2246 5.43726 65.0002 5.43726 62.0344V55.8557H50.9126V58.8215H64.5058V55.8557H109.981V62.0344C110.228 64.7531 108.004 67.2246 105.038 67.2246ZM8.40304 58.8215V62.0344C8.40304 63.2702 9.39164 64.2588 10.6274 64.2588H105.038C106.274 64.2588 107.263 63.2702 107.263 62.0344V58.8215H67.7188C67.7188 60.5515 66.483 61.7873 64.753 61.7873H51.1598C49.4298 61.7873 48.194 60.5515 48.194 58.8215H8.40304Z" fill="#0D5FC3"/>
</g>
</g>
</g>
<g id="Group_10">
<g id="Group_11">
<g id="Group_12">
<g id="Group_13">
<path id="Vector_6" d="M63.27 45.9697H19.7719V17.3004H63.27V45.9697ZM22.7376 43.0039H60.3043V20.2662H22.7376V43.0039Z" fill="#0D5FC3"/>
</g>
</g>
<g id="Group_14">
<g id="Group_15">
<path id="Vector_7" d="M41.521 33.3651L20.5133 20.0191L21.9962 17.5476L41.521 29.9051L60.7986 17.5476L62.5286 20.0191L41.521 33.3651Z" fill="#0D5FC3"/>
</g>
</g>
</g>
<g id="Group_16">
<g id="Group_17">
<path id="Vector_8" d="M21.2548 29.658H16.0647V32.6237H21.2548V29.658Z" fill="#0D5FC3"/>
</g>
</g>
<g id="Group_18">
<g id="Group_19">
<path id="Vector_9" d="M21.2547 36.3309H7.90869V39.2967H21.2547V36.3309Z" fill="#0D5FC3"/>
</g>
</g>
<g id="Group_20">
<g id="Group_21">
<path id="Vector_10" d="M21.2548 43.0039H0V45.9697H21.2548V43.0039Z" fill="#0D5FC3"/>
</g>
</g>
</g>
</g>
</svg>
