<svg width="42" height="36" viewBox="0 0 42 36" fill="none" xmlns="http://www.w3.org/2000/svg">
<g id="Group 114">
<g id="Group">
<path id="Vector" d="M9.33046 15.6357L0 28.2744L8.8214 26.5241L9.60243 35.0805L18.1533 23.3888" fill="#E04F5F"/>
<path id="Vector_2" d="M32.0528 15.6357L41.3832 28.2744L32.5618 26.5241L31.7808 35.0805L23.23 23.3888" fill="#E04F5F"/>
</g>
<path id="Vector_3" d="M20.5144 24.6441C27.3667 24.6441 32.9216 19.1274 32.9216 12.3221C32.9216 5.51678 27.3667 0 20.5144 0C13.6622 0 8.1073 5.51678 8.1073 12.3221C8.1073 19.1274 13.6622 24.6441 20.5144 24.6441Z" fill="#F2B851"/>
<path id="Vector_4" d="M20.5144 20.2272C24.9103 20.2272 28.4739 16.6879 28.4739 12.3221C28.4739 7.95622 24.9103 4.41699 20.5144 4.41699C16.1185 4.41699 12.5549 7.95622 12.5549 12.3221C12.5549 16.6879 16.1185 20.2272 20.5144 20.2272Z" fill="#D89D3D"/>
<g id="Group_2">
<path id="2" d="M16 14.94C16.288 14.688 16.504 14.502 16.648 14.382C17.254 13.86 17.731 13.431 18.079 13.095C18.433 12.759 18.727 12.408 18.961 12.042C19.195 11.67 19.312 11.307 19.312 10.953C19.312 10.575 19.213 10.272 19.015 10.044C18.823 9.816 18.514 9.702 18.088 9.702C17.68 9.702 17.365 9.831 17.143 10.089C16.921 10.341 16.801 10.677 16.783 11.097H16C16.024 10.425 16.225 9.909 16.603 9.549C16.987 9.183 17.479 9 18.079 9C18.697 9 19.189 9.174 19.555 9.522C19.927 9.864 20.113 10.332 20.113 10.926C20.113 11.358 19.993 11.781 19.753 12.195C19.519 12.603 19.237 12.975 18.907 13.311C18.583 13.641 18.178 14.019 17.692 14.445C17.368 14.727 17.221 14.856 17.251 14.832H20.311V15.525H16V14.94Z" fill="white"/>
<g id="nd">
<path d="M21.9408 8.72897C22.0779 8.72897 22.2022 8.76502 22.3137 8.83712C22.4275 8.90654 22.5169 9.01202 22.582 9.15354C22.6493 9.29239 22.683 9.46195 22.683 9.66222V10.964H22.3694V9.7223C22.3694 9.50067 22.323 9.33244 22.23 9.21762C22.1371 9.1028 22.0082 9.04539 21.8433 9.04539C21.6806 9.04539 21.5517 9.1028 21.4565 9.21762C21.3636 9.33244 21.3171 9.50067 21.3171 9.7223V10.964H21V8.76502H21.3171V9.1215C21.3798 8.99332 21.4658 8.89586 21.5749 8.82911C21.6841 8.76235 21.8061 8.72897 21.9408 8.72897Z" fill="white"/>
<path d="M23.9755 8.72897C24.1382 8.72897 24.2799 8.77303 24.4007 8.86115C24.5238 8.94927 24.6167 9.06409 24.6794 9.20561V8H25V10.964H24.6794V10.5154C24.6167 10.6595 24.5238 10.777 24.4007 10.8678C24.2799 10.9559 24.1382 11 23.9755 11C23.8036 11 23.648 10.9519 23.5086 10.8558C23.3716 10.757 23.2624 10.6208 23.1811 10.4473C23.1021 10.271 23.0626 10.0721 23.0626 9.85047C23.0626 9.62884 23.1021 9.43391 23.1811 9.26569C23.2624 9.09479 23.3716 8.96262 23.5086 8.86916C23.648 8.7757 23.8036 8.72897 23.9755 8.72897ZM24.0313 9.04539C23.9175 9.04539 23.8106 9.07744 23.7107 9.14152C23.6132 9.20561 23.5342 9.29907 23.4738 9.4219C23.4157 9.54206 23.3867 9.68491 23.3867 9.85047C23.3867 10.016 23.4157 10.1629 23.4738 10.2911C23.5342 10.4166 23.6132 10.514 23.7107 10.5834C23.8106 10.6529 23.9175 10.6876 24.0313 10.6876C24.1475 10.6876 24.2543 10.6542 24.3519 10.5874C24.4518 10.5207 24.5307 10.4259 24.5888 10.3031C24.6492 10.1776 24.6794 10.032 24.6794 9.86649C24.6794 9.70093 24.6492 9.55674 24.5888 9.43391C24.5307 9.30841 24.4518 9.21228 24.3519 9.14553C24.2543 9.07877 24.1475 9.04539 24.0313 9.04539Z" fill="white"/>
</g>
</g>
</g>
</svg>
