<svg width="21" height="21" viewBox="0 0 21 21" fill="none" xmlns="http://www.w3.org/2000/svg">
<path id="Icon" d="M2.8 18.4003C3.14436 18.0146 5.45785 16.1976 6.60775 15.3019C7.02656 14.9757 7.54027 14.8003 8.07114 14.8003C9.3548 14.8003 11.8284 14.8003 13.1182 14.8003C13.6553 14.8003 14.1741 14.9832 14.6066 15.3017C16.0913 16.3955 17.4833 17.2106 19 18.4003M4.6 20.2H16.6C18.5882 20.2 20.2 18.5882 20.2 16.6V4.6C20.2 2.61177 18.5882 1 16.6 1H4.6C2.61177 1 1 2.61177 1 4.6V16.6C1 18.5882 2.61177 20.2 4.6 20.2ZM14.0385 7.87204C14.0385 6.04053 12.4924 4.54408 10.6 4.54408C8.70762 4.54408 7.16145 6.04053 7.16145 7.87204C7.16145 9.70355 8.70762 11.2 10.6 11.2C12.4924 11.2 14.0385 9.70355 14.0385 7.87204Z" stroke="black"/>
</svg>
