<svg width="171" height="193" viewBox="0 0 171 193" fill="none" xmlns="http://www.w3.org/2000/svg">
<g id="Group 378" opacity="0.5">
<path id="Vector" d="M141.615 116.493C140.506 112.692 138.725 109.24 136.271 106.138C134.439 103.837 132.327 109.79 134.294 107.626C134.461 107.454 126.376 97.3826 126.543 97.2107C124.707 96.8364 133.229 100.071 131.489 99.3236C130.655 100.183 130.013 100.295 128.986 99.6369C124.778 97.0384 120.145 95.4951 115.189 94.9716C114.576 94.8471 113.863 94.7576 113.252 94.6329C113.115 94.5677 112.913 94.6388 112.776 94.5736C112.78 92.6464 112.785 90.7194 112.789 88.7921C111.191 88.4475 110.218 97.9645 108.656 97.7207C108.519 97.6555 108.656 97.7207 107.305 98.0821C107.301 100.009 107.748 91.5835 107.845 93.4752C107.931 94.6908 107.633 95.1353 106.485 95.4255C101.656 96.5564 97.2822 98.6601 93.3637 101.736C91.4221 103.325 91.8976 103.384 89.9398 101.694C88.0177 100.104 86.161 98.3777 84.3397 96.7524C83.0406 98.2285 81.9741 99.3964 80.8419 100.701C82.8348 102.492 84.5903 104.254 86.6136 105.808C87.9844 106.799 87.9647 107.712 87.0699 109.046C84.5223 113.112 83.1331 117.565 82.6291 122.273C82.5382 122.985 82.4473 123.697 82.3213 124.307C82.2909 124.544 82.3264 124.645 82.296 124.882C79.11 124.87 75.823 124.892 72.8392 124.808C72.9052 126.937 72.8959 128.526 72.8561 130.352C76.2088 130.193 79.4608 130.07 82.6769 129.846C82.8186 130.249 82.9604 130.652 83.1021 131.055C84.2973 136.072 86.5695 140.597 89.8832 144.53C90.6777 145.496 90.688 146.172 89.7525 147.067C87.8518 149.095 86.1531 151.051 84.2878 153.179C85.7649 154.472 86.9335 155.534 88.2385 156.661C90.1397 154.634 91.8381 152.678 93.5368 150.721C94.401 149.625 95.1443 149.477 96.3081 150.2C100.653 152.864 105.387 154.372 110.445 154.86C111.021 154.884 111.531 155.044 112.007 155.104C112.245 155.133 112.483 155.163 112.72 155.193C112.701 158.371 112.682 161.549 112.622 164.288C114.554 164.289 116.284 164.361 117.978 164.332C117.86 161.088 117.642 157.881 117.459 154.773C117.56 154.738 117.626 154.601 117.727 154.566C118.131 154.424 118.637 154.246 119.041 154.104C123.972 152.937 128.411 150.697 132.36 147.384C133.432 146.554 134.11 146.542 135.005 147.474C136.897 149.3 138.956 150.955 140.949 152.747C142.248 151.271 143.315 150.103 144.447 148.799C142.454 147.008 140.461 145.216 138.402 143.561C137.304 142.701 137.092 142.096 137.885 140.797C140.499 136.594 142.09 132.07 142.523 127.161C142.614 126.449 142.74 125.839 142.831 125.127L142.922 124.416C146.108 124.429 149.395 124.406 152.141 124.46C152.247 122.497 152.221 120.807 152.231 119.218C148.878 119.377 145.763 119.566 142.41 119.725C142.227 118.883 141.939 117.738 141.615 116.493ZM126.303 136.94C119.64 144.492 108.261 145.093 100.567 138.396C93.1815 131.93 92.5306 120.379 99.1276 112.963C105.826 105.512 117.306 104.875 124.864 111.507C132.249 117.972 132.9 129.524 126.303 136.94Z" fill="#2A2941"/>
<path id="Vector_2" d="M84.4109 96.9531C86.2318 98.5786 88.0885 100.305 90.011 101.894C91.1794 102.956 91.5236 103.289 91.9279 103.146C92.2315 103.04 92.6661 102.661 93.4345 101.937C96.3467 99.5544 99.6081 97.8419 103.148 96.5978C104.26 96.2068 105.408 95.9167 106.556 95.6264C106.657 95.5908 106.758 95.5553 106.961 95.4842C107.365 95.3421 107.532 95.1702 107.699 94.9983C107.649 96.1487 107.502 97.6724 107.477 98.2474C107.477 98.2474 107.477 98.2474 107.376 98.283C107.346 98.5205 107.381 98.6213 107.381 98.6213C107.381 98.6213 107.447 98.485 107.376 98.283C107.882 98.1052 108.185 97.9986 108.286 97.9631C108.387 97.9275 108.387 97.9275 108.489 97.892C108.59 97.8564 108.59 97.8564 108.691 97.8208C108.792 97.7853 108.792 97.7853 108.893 97.7498C110.309 97.2521 111.272 89.3246 112.587 88.8626C112.688 88.827 112.688 88.827 112.825 88.8922C112.82 90.8195 112.816 92.7464 112.811 94.6738C112.948 94.739 113.15 94.6678 113.287 94.7331C113.899 94.8577 114.612 94.9472 115.224 95.0718C119.705 95.5359 123.792 96.8178 127.722 98.9479C129.416 101.184 132.665 105.253 133.844 106.99C133.515 107.672 133.424 108.384 133.727 108.277C133.829 108.241 133.996 108.07 134.264 107.862C134.264 107.862 134.157 107.56 133.778 107.127C134.041 106.581 134.44 106.101 134.946 105.924C135.35 105.781 135.725 105.876 136.139 106.41C138.593 109.512 140.273 112.999 141.483 116.765C141.772 117.91 142.162 119.018 142.45 120.163C145.803 120.004 148.918 119.815 152.271 119.657C152.262 121.245 152.187 122.971 152.182 124.898C149.436 124.844 146.149 124.866 142.963 124.854L142.872 125.565C142.781 126.276 142.655 126.887 142.564 127.599C141.994 132.443 140.539 137.032 137.926 141.235C137.198 142.398 137.345 143.139 138.443 143.999C140.502 145.654 142.358 147.38 144.488 149.237C143.356 150.541 142.289 151.709 140.989 153.185C138.996 151.393 136.937 149.738 135.046 147.911C134.357 147.247 133.847 147.087 133.24 147.3C132.937 147.407 132.669 147.614 132.4 147.822C129.423 150.341 125.995 152.225 122.354 153.505C121.241 153.896 120.194 154.151 119.047 154.441C118.642 154.583 118.238 154.725 117.732 154.903C117.631 154.939 117.529 154.974 117.464 155.11C117.647 158.218 117.764 161.461 117.983 164.669C116.289 164.698 114.66 164.591 112.627 164.626C112.586 161.922 112.706 158.708 112.726 155.53C112.488 155.5 112.25 155.471 112.012 155.441C111.537 155.381 110.925 155.256 110.45 155.197C105.392 154.709 100.658 153.201 96.3131 150.538C95.5945 150.11 95.1194 150.051 94.6135 150.229C94.2091 150.371 93.8753 150.715 93.5419 151.059C91.8785 153.116 90.0436 155.007 88.244 156.998C86.9385 155.872 85.7699 154.809 84.2928 153.517C86.0928 151.525 87.8569 149.432 89.7576 147.405C90.5919 146.545 90.6827 145.834 89.8882 144.867C86.5745 140.935 84.4037 136.374 83.1071 131.393C82.9654 130.989 82.8236 130.586 82.6819 130.183C79.4304 130.306 76.2138 130.53 72.8611 130.689C72.8351 129 72.8096 127.31 72.8442 125.145C75.7926 125.129 79.115 125.207 82.3012 125.22C82.3314 124.982 82.296 124.881 82.3263 124.644C82.4169 123.933 82.5432 123.322 82.6341 122.61C83.1385 117.903 84.6285 113.414 87.0749 109.383C87.8686 108.085 88.0252 107.236 86.619 106.145C84.5953 104.591 82.8398 102.829 80.8469 101.038C82.0449 99.5973 83.0759 98.3286 84.4109 96.9531ZM118.754 141.971C121.586 140.975 124.17 139.274 126.303 136.939C132.9 129.523 132.285 118.072 124.864 111.506C119.709 106.861 112.608 105.732 106.54 107.865C103.708 108.86 101.124 110.562 98.9909 112.897C92.3938 120.313 93.0447 131.864 100.431 138.33C105.788 142.903 112.787 144.068 118.754 141.971ZM107.911 93.3378C107.911 93.3378 107.946 93.4385 108.017 93.6405C108.093 94.18 108.032 94.6542 107.8 94.9627C107.82 94.0495 107.809 93.3733 107.911 93.3378ZM126.305 97.1804C126.305 97.1804 126.406 97.1448 126.543 97.21C126.543 97.21 126.578 97.3108 126.614 97.4116C126.477 97.3464 126.305 97.1804 126.305 97.1804ZM126.715 97.376C127.671 97.8331 130.67 98.9312 131.59 99.287C131.257 99.6311 130.989 99.8386 130.686 99.9451C130.18 100.123 129.669 99.9623 129.087 99.6006C128.642 99.3037 128.233 99.108 127.787 98.8116C127.236 98.2123 126.821 97.6788 126.715 97.376ZM131.59 99.287C131.727 99.3522 131.864 99.4179 131.864 99.4179C131.763 99.4534 131.727 99.3522 131.59 99.287ZM113.161 79.8261L106.493 89.3055C104.976 89.8386 104.279 90.7632 103.89 91.9194C103.182 92.1683 102.438 92.3163 101.73 92.5651C98.1907 93.8092 94.8281 95.5572 91.8805 97.8392C90.9195 97.0442 89.9231 96.1485 89.0628 95.3181C88.5472 94.82 87.9298 94.3572 87.3783 93.7584L84.2168 90.9049L81.3503 94.0645L78.4839 97.2242L77.8165 97.9117L74.9501 101.071L78.2131 103.889C78.83 104.352 79.3817 104.951 79.8973 105.449C80.8942 106.345 81.8906 107.24 82.8517 108.035C80.7746 111.824 79.3802 115.939 78.7039 120.481L74.5011 120.485L73.0095 120.443L68.67 120.382L68.702 124.675L68.7183 127.955L68.6837 130.119L68.751 134.513L73.2215 134.301L79.0473 134.065L79.7249 134.054C80.9753 138.258 82.8986 142.113 85.4585 145.518C84.5588 146.514 83.7601 147.474 82.86 148.47C82.3952 149.087 81.7936 149.638 81.3282 150.254L78.4617 153.414L81.7247 156.231L83.7181 158.023L85.5389 159.648L88.7008 162.501L91.5672 159.342C92.1334 158.69 92.6337 158.174 93.0991 157.557C93.9986 156.561 94.8986 155.566 95.7985 154.57C99.5923 156.634 103.851 158.083 108.504 158.713L108.45 164.055L108.446 168.247L112.684 168.344L115.531 168.363L117.939 168.423L122.515 168.513L122.276 163.953C122.21 161.824 122.042 159.731 122.011 157.703C122.618 157.49 123.225 157.277 123.731 157.099C127.27 155.855 130.632 154.107 133.479 151.86C134.476 152.756 135.437 153.551 136.398 154.346C137.015 154.809 137.567 155.407 138.184 155.87L141.345 158.723L144.212 155.564L146.31 153.127L147.71 151.616L150.577 148.456L147.314 145.639C146.661 145.075 146.145 144.577 145.528 144.114C144.531 143.218 143.57 142.423 142.573 141.528C144.717 137.603 146.111 133.488 146.787 128.946L152.244 128.954L156.446 128.95L156.551 124.722L156.621 122.658L156.707 119.344L156.806 114.778L152.235 115.025L145.701 115.509C145.665 115.408 145.665 115.408 145.63 115.308C144.308 110.902 142.213 106.881 139.552 103.511C138.55 102.278 137.286 101.59 135.961 101.376L135.95 100.7L138.882 97.4039L133.703 95.5996L134.603 94.6035L127.361 93.0714L117.118 88.1763L117.178 85.4365L113.744 84.7181C113.37 84.6232 113.132 84.5936 112.793 84.5989L113.161 79.8261ZM117.159 90.8802L117.144 89.8661L117.736 90.9039C117.534 90.975 117.397 90.9098 117.159 90.8802ZM117.337 137.938C112.584 139.609 107.212 138.551 103.297 135.17C100.651 132.815 99.0419 129.53 98.7828 125.883C98.4883 122.135 99.7567 118.631 102.188 115.851C103.72 114.067 105.768 112.781 107.892 112.034C112.645 110.364 118.016 111.421 121.931 114.802C127.567 119.844 128.106 128.49 123.076 134.222C121.473 135.805 119.562 137.156 117.337 137.938Z" fill="#2A2941"/>
<path id="Vector_3" d="M141.791 114.733C144.907 114.544 147.921 114.391 151.072 114.303C151.062 115.892 151.017 117.38 151.013 119.308C148.403 119.319 145.318 119.27 142.233 119.222C142.203 119.459 142.173 119.696 142.107 119.833C141.98 120.443 141.89 121.155 141.763 121.765C141.224 126.373 139.799 130.725 137.317 134.655C136.589 135.817 136.802 136.422 137.763 137.217C139.685 138.807 141.507 140.432 143.5 142.223C142.433 143.391 141.366 144.559 140.234 145.863C138.276 144.173 136.455 142.547 134.598 140.821C133.739 139.991 133.026 139.902 132.055 140.696C128.374 143.802 124.101 145.87 119.51 147.031C119.105 147.173 118.701 147.315 118.296 147.457C118.195 147.493 118.094 147.528 118.028 147.665C118.176 150.671 118.324 153.677 118.507 156.785C116.914 156.778 115.32 156.772 113.49 156.735C113.519 154.233 113.473 151.191 113.527 148.114C113.29 148.084 113.153 148.019 112.916 147.989C112.44 147.93 111.929 147.769 111.353 147.745C106.533 147.287 102.072 145.91 97.9645 143.276C96.8011 142.552 96.1944 142.765 95.2945 143.761C93.6973 145.682 92.0643 147.502 90.2647 149.494C89.0958 148.432 87.9273 147.37 86.6221 146.243C88.3209 144.287 90.0193 142.331 91.7536 140.475C92.5879 139.616 92.6126 139.041 91.8185 138.074C88.6768 134.307 86.6118 130.049 85.3865 125.269C85.2448 124.866 85.1031 124.463 84.9613 124.06C81.8461 124.249 78.7965 124.301 75.6815 124.49C75.6556 122.8 75.7003 121.311 75.6697 119.283C78.5168 119.302 81.6018 119.35 84.651 119.298C84.7167 119.162 84.6459 118.96 84.7117 118.824C84.838 118.213 84.9286 117.502 85.0549 116.891C85.5289 112.42 86.8879 108.205 89.3039 104.41C90.0976 103.112 90.1528 102.3 88.8176 101.409C86.9307 99.9208 85.2106 98.2599 83.2886 96.67C84.355 95.5021 85.3209 94.3701 86.5543 93.0303C88.3401 94.5549 90.0597 96.2155 91.8455 97.74C93.8034 99.4305 93.2924 99.2705 95.0671 97.8537C98.8187 94.9495 102.889 92.9527 107.481 91.7918C108.628 91.5016 108.927 91.0571 108.739 89.877C108.531 87.3447 108.525 84.7416 108.484 82.0378C109.839 82.0143 111.432 82.021 113.465 81.9858C113.441 84.8264 113.386 87.9037 113.433 90.9458C113.569 91.011 113.772 90.9399 113.908 91.0051C114.52 91.1298 115.132 91.2547 115.709 91.2786C120.427 91.7724 124.787 93.1849 128.758 95.7539C129.784 96.4121 130.427 96.2997 131.225 95.3395C132.823 93.4188 134.557 91.5635 136.357 89.5717C137.525 90.6334 138.694 91.6951 139.999 92.8221C138.634 94.4345 137.168 96.0825 135.667 97.6296C133.766 99.657 133.766 99.657 135.562 101.858C137.844 104.794 139.589 108.144 140.627 111.744C141.148 112.58 141.538 113.689 141.791 114.733ZM126.412 130.785C132.676 123.713 132.035 112.838 124.994 106.705C117.846 100.269 106.943 100.929 100.578 108.037C94.3143 115.109 94.9549 125.984 101.997 132.118C109.347 138.483 120.048 137.893 126.412 130.785Z" fill="#A694FE"/>
<path id="Vector_4" d="M108.65 81.8653C110.006 81.8422 111.599 81.8485 113.632 81.8137C113.608 84.6539 113.553 87.7315 113.599 90.7733C113.736 90.8389 113.938 90.7678 114.075 90.833C114.687 90.9576 115.299 91.0823 115.875 91.1061C120.594 91.5999 124.954 93.0127 128.925 95.5814C129.506 95.9432 130.017 96.1037 130.421 95.9616C130.725 95.8549 131.094 95.6119 131.392 95.167C132.99 93.2463 134.724 91.391 136.524 89.3992C137.692 90.4609 138.861 91.523 140.166 92.6499C138.801 94.2624 137.335 95.9104 135.833 97.4576C133.932 99.4849 133.932 99.4849 135.728 101.685C138.01 104.621 139.756 107.972 140.794 111.572C141.083 112.716 141.437 113.724 141.726 114.869C144.841 114.68 147.855 114.527 151.006 114.439C150.996 116.028 150.951 117.516 150.947 119.444C148.337 119.455 145.252 119.406 142.167 119.358C142.137 119.595 142.107 119.832 142.041 119.968C141.915 120.579 141.824 121.291 141.698 121.902C141.158 126.509 139.734 130.861 137.252 134.791C136.524 135.953 136.736 136.558 137.697 137.353C139.62 138.943 141.441 140.568 143.434 142.36C142.367 143.527 141.301 144.695 140.168 145.999C138.21 144.309 136.389 142.683 134.533 140.957C133.88 140.394 133.435 140.097 132.828 140.31C132.525 140.417 132.358 140.589 131.989 140.832C129.077 143.215 125.952 144.993 122.513 146.201C121.502 146.557 120.491 146.912 119.444 147.166C119.039 147.308 118.635 147.451 118.23 147.593C118.129 147.628 118.028 147.664 117.962 147.801C118.11 150.807 118.258 153.813 118.441 156.92C116.848 156.914 115.254 156.907 113.424 156.872C113.453 154.369 113.407 151.327 113.462 148.25C113.224 148.22 113.087 148.154 112.85 148.125C112.374 148.065 111.864 147.905 111.287 147.882C106.467 147.423 102.006 146.046 97.8991 143.412C97.3172 143.05 96.8065 142.89 96.3006 143.067C95.9971 143.174 95.6282 143.417 95.2291 143.897C93.6315 145.818 91.9984 147.638 90.1988 149.63C89.0304 148.568 87.8614 147.506 86.5563 146.379C88.2551 144.423 89.9535 142.467 91.6877 140.611C92.5219 139.751 92.5471 139.176 91.7526 138.21C88.6109 134.443 86.5463 130.185 85.3206 125.405C85.1789 125.002 85.0371 124.599 84.8954 124.196C81.7801 124.384 78.7309 124.437 75.6157 124.626C75.5896 122.936 75.6349 121.447 75.6037 119.419C78.4509 119.438 81.5359 119.486 84.5855 119.434C84.6513 119.298 84.5805 119.096 84.6458 118.96C84.7721 118.349 84.863 117.637 84.989 117.027C85.4629 112.556 86.8219 108.34 89.2381 104.546C90.0317 103.248 90.0872 102.435 88.7518 101.545C86.8647 100.057 85.1446 98.3956 83.2227 96.8061C84.2892 95.6383 85.2549 94.5058 86.4883 93.166C88.2741 94.6906 89.9942 96.3514 91.7797 97.8761C92.9127 98.8371 93.1556 99.2046 93.5603 99.0624C93.8639 98.9557 94.1973 98.612 95.0013 97.9898C97.8477 95.7434 100.907 94.1017 104.143 92.9641C105.154 92.6088 106.302 92.3189 107.45 92.0287C107.552 91.9931 107.653 91.9575 107.754 91.922C108.563 91.6376 108.724 91.1276 108.709 90.1135C108.799 87.137 108.793 84.5339 108.65 81.8653ZM119.334 135.539C121.963 134.614 124.481 133.05 126.412 130.785C132.676 123.713 132.035 112.838 124.994 106.704C120.046 102.326 113.421 101.257 107.656 103.283C105.027 104.207 102.509 105.772 100.578 108.036C94.3141 115.108 94.9547 125.984 101.997 132.117C107.045 136.459 113.67 137.529 119.334 135.539ZM104.315 77.6126L104.483 81.9708C104.529 82.7476 104.575 83.5246 104.519 84.3367C104.606 85.5523 104.591 86.8034 104.677 88.019C104.172 88.1967 103.666 88.3744 103.059 88.5877C99.7219 89.7607 96.663 91.4024 93.8469 93.4117C93.0221 92.6821 92.0611 91.8872 91.2363 91.1576C90.7206 90.6595 90.2044 90.1611 89.5874 89.6981L86.4256 86.8451L83.5592 90.0048L80.3593 93.5081L80.1923 93.68L77.3259 96.8397L80.4877 99.6927C81.0035 100.191 81.6207 100.654 82.1369 101.152C82.9968 101.983 83.8566 102.813 84.8181 103.608C82.872 107.123 81.6091 110.965 80.9934 115.033L75.7742 115.055L71.4352 114.994L71.5022 119.388L71.5081 121.991L71.6152 124.559L71.6826 128.953L76.153 128.741L81.1643 128.452L82.181 128.435C83.4266 132.301 85.142 135.889 87.4948 139.026C86.6606 139.886 85.9629 140.811 85.1287 141.671C84.6283 142.186 84.1633 142.803 83.6626 143.319L80.7961 146.478L83.958 149.331L86.9477 152.018L87.6005 152.582L90.7619 155.435L93.6283 152.275C94.1291 151.76 94.594 151.143 95.0944 150.627C95.9287 149.768 96.6263 148.843 97.4606 147.984C100.981 149.918 104.931 151.135 109.144 151.806L109.099 153.295L109.049 156.71L109.046 160.902L113.284 160.998L115.792 161.023L118.301 161.048L122.877 161.138L122.638 156.578C122.506 154.586 122.41 152.694 122.313 150.802C122.818 150.624 123.324 150.447 123.83 150.269C127.167 149.096 130.226 147.455 133.042 145.445C133.902 146.276 134.828 146.97 135.653 147.7C136.169 148.198 136.786 148.661 137.302 149.158L140.464 152.012L143.33 148.852L145.761 146.072L146.662 145.076L149.528 141.917L146.366 139.063C145.85 138.565 145.233 138.102 144.717 137.604C143.857 136.774 142.931 136.08 142.071 135.249C143.982 131.633 145.346 127.755 145.926 123.587L150.943 123.636L155.145 123.631L155.25 119.404L155.35 117.103L155.446 114.464L155.545 109.898L150.974 110.146L145.826 110.369L145.047 110.417C143.867 106.414 142.05 102.861 139.733 99.8247C140.532 98.8642 141.366 98.0048 142.165 97.0443C142.564 96.5643 143.065 96.0487 143.464 95.5682L146.33 92.4085L143.169 89.5555L142.208 88.7605L139.425 86.3403L136.264 83.4872L133.397 86.6469C132.897 87.1625 132.431 87.779 131.83 88.3305C130.996 89.1898 130.298 90.1148 129.464 90.9741C125.843 89.0757 121.993 87.823 118.018 87.1816L118.006 81.9751L118.076 77.6466L113.772 77.6865L110.824 77.7037L108.791 77.7385L104.315 77.6126ZM117.916 131.506C113.467 133.07 108.571 132.072 104.828 128.857C102.354 126.668 100.815 123.584 100.627 120.139C100.439 116.694 101.54 113.362 103.805 110.753C105.271 109.105 107.117 107.89 109.139 107.179C113.589 105.616 118.586 106.578 122.193 109.727C127.484 114.437 127.947 122.543 123.215 127.831C121.785 129.58 119.939 130.795 117.916 131.506Z" fill="#2A2941"/>
<path id="Vector_5" fill-rule="evenodd" clip-rule="evenodd" d="M87.0165 33.647L45.2651 64.439L29.1926 105.249C25.571 115.086 38.4712 120.688 44.1274 111.708C44.1274 111.708 53.6224 86.7096 54.224 86.0901C55.4438 85.2913 55.4619 86.5092 56.5972 86.9585C61.4923 89.21 69.8101 84.0174 76.391 78.9947C90.5958 82.5507 105.716 67.7117 104.154 52.7041L87.0165 33.647Z" fill="#2A2941"/>
<path id="Vector_6" fill-rule="evenodd" clip-rule="evenodd" d="M73.7529 81.0066C70.549 83.0476 61.2952 90.4029 56.8234 86.9166C48.9871 81.0687 61.2134 73.1854 72.0439 66.2633" fill="#2A2941"/>
<path id="Vector_7" fill-rule="evenodd" clip-rule="evenodd" d="M121.795 48.4761L95.8484 19.5592L83.1113 30.9749L108.826 60.1822L121.795 48.4761Z" fill="#2A2941"/>
<path id="Vector_8" fill-rule="evenodd" clip-rule="evenodd" d="M82.6443 27.0581L40.8928 57.8511L24.8207 98.6605C21.1988 108.498 34.0991 114.1 39.7552 105.119C39.7552 105.119 49.2501 80.1203 49.8519 79.5012C51.0716 78.7024 51.0896 79.9199 52.225 80.3695C57.12 82.6206 65.4378 77.4281 72.0188 72.4058C86.2236 75.9618 101.344 61.1223 99.8118 46.2172L82.6443 27.0581Z" fill="white"/>
<path id="Vector_9" fill-rule="evenodd" clip-rule="evenodd" d="M50.8916 82.316C51.0245 82.3889 51.2601 82.4315 51.393 82.5044C53.7226 83.6082 56.7847 83.3879 60.2263 82.1674C64.2262 80.5627 68.6495 77.7232 72.5718 74.6951C79.9382 76.2297 87.689 73.3153 93.3409 67.7835C99.1256 62.3241 102.884 54.1152 101.859 45.9593L101.915 45.3867L83.0339 24.1665L39.0192 56.3936L22.8462 98.0111C20.5239 104.246 23.5864 109.031 27.9508 110.991C32.3881 112.819 38.1574 111.925 41.571 106.375L41.7474 106.212L41.8205 106.08C41.7907 105.977 48.5238 88.0079 50.8916 82.316ZM82.3894 30.0268L97.7394 47.1539C98.1131 53.8302 95.1732 60.2449 90.3132 64.6574C85.5122 69.2751 79.027 71.9335 72.617 70.2326L71.6443 69.9585L70.7039 70.5649C66.9875 73.5332 62.6242 76.5781 58.6675 77.9475C56.6674 78.7502 54.6515 79.1122 53.2211 78.4148C52.8524 78.2988 52.9257 78.1671 52.6902 78.1245C52.4978 77.8465 52.2025 77.5979 51.967 77.5552C51.1704 77.1187 50.0951 76.8748 48.6991 77.8356C48.5963 77.8654 47.9643 78.3815 47.4085 79.5437C45.5805 83.6333 38.6276 102 37.7951 104.133C35.7288 107.402 32.1383 108.108 29.6757 106.931C27.0072 105.814 25.3937 102.945 26.8258 99.4155L42.5757 59.0336L82.3894 30.0268Z" fill="#2A2941"/>
<path id="Vector_10" fill-rule="evenodd" clip-rule="evenodd" d="M68.0647 72.5764C66.1838 73.7892 62.3649 76.7877 58.5408 78.2305C57.4378 78.6616 56.5408 79.0321 55.4216 79.0229C54.6709 79.1291 54.067 78.9714 53.6093 78.548C52.6204 77.8335 52.0734 77.1018 51.9681 76.3539C51.9362 75.4733 52.4488 74.5464 52.9909 73.7217C55.8054 69.569 62.5215 65.3964 68.693 61.2707L70.574 60.0584L68.2075 56.5182L66.3265 57.7306C59.6696 62.1079 52.4252 66.7669 49.4643 71.1849C47.9973 73.056 47.4141 74.8938 47.6111 76.7276C47.8812 78.4289 48.7555 80.2888 50.9985 81.8628C53.3006 83.6425 56.7314 83.5382 60.1432 82.2149C64.2167 80.4779 68.5508 77.3305 70.5348 76.0879L72.4154 74.8743L70.0192 71.2319L68.0647 72.5764Z" fill="#2A2941"/>
<path id="Vector_11" fill-rule="evenodd" clip-rule="evenodd" d="M118.089 40.5069L92.1413 11.5885L79.4042 23.0042L105.119 52.2115L118.089 40.5069Z" fill="#A694FE"/>
<path id="Vector_12" fill-rule="evenodd" clip-rule="evenodd" d="M105.014 55.2978L121.168 40.7377L92.3158 8.6476L76.3943 22.9176L105.014 55.2978ZM115.079 40.4191L105.258 49.1974L82.4833 23.2363L92.0363 14.6744L115.079 40.4191Z" fill="#2A2941"/>
</g>
</svg>
