<svg width="138" height="138" viewBox="0 0 138 138" fill="none" xmlns="http://www.w3.org/2000/svg">
<g id="Group 1">
<circle id="Ellipse 2" cx="69" cy="69" r="69" fill="#0F4C81"/>
<g id="tennis_1_" filter="url(#filter0_d_2_22)">
<path d="M55.1385 65.7684C54.9188 65.7684 54.6992 65.6852 54.5321 65.5187C54.1954 65.1832 54.1954 64.6432 54.5321 64.3078L72.6533 46.2521C72.99 45.9167 73.5343 45.9167 73.8709 46.2521C74.2076 46.5876 74.2076 47.1276 73.8709 47.463L55.7473 65.5187C55.5778 65.6852 55.3581 65.7684 55.1385 65.7684ZM69.0864 61.3842C68.8667 61.3842 68.6471 61.3009 68.4799 61.1344C68.1433 60.799 68.1433 60.259 68.4799 59.9235L77.426 51.0099C77.7626 50.6745 78.307 50.6745 78.6436 51.0099C78.9802 51.3453 78.9802 51.8853 78.6436 52.2207L69.6952 61.1344C69.5281 61.3009 69.3084 61.3842 69.0864 61.3842ZM99.1739 106C98.6152 106 98.0995 105.798 97.727 105.427L83.3494 91.1011C78.572 86.341 73.2215 86.3362 67.5536 86.3338H66.9424C58.364 88.2845 48.5752 85.6297 41.4532 78.5359C30.8789 67.9974 30.1221 51.607 39.7653 41.9987C47.4125 34.372 59.904 33.0946 70.1369 38.8895L69.2893 40.3787C59.5721 34.8763 48.1956 36.0134 40.9757 43.2072C32.0035 52.147 32.7603 67.4503 42.6637 77.3203C52.5719 87.1902 67.9332 87.9443 76.9007 79.0021C82.306 73.614 84.3927 65.6519 82.4827 57.7017L84.1564 57.302C85.1209 61.3271 85.1305 65.3593 84.259 69.1036V69.6864C84.2614 75.3315 84.2662 80.6626 89.0436 85.4227L103.419 99.7459C104.29 100.619 104.169 102.106 103.142 103.131L101.117 105.146C100.656 105.605 100.072 105.9 99.4723 105.979C99.3744 105.993 99.2717 106 99.1739 106ZM85.2522 90.5777L98.9399 104.213C99.076 104.354 99.532 104.306 99.8997 103.935L101.924 101.92C102.304 101.544 102.342 101.1 102.201 100.959L88.5207 87.3258L85.2522 90.5777ZM71.7174 84.6948C75.9433 84.916 80.1573 85.8033 84.0298 89.3764L87.3127 86.1031C83.729 82.2445 82.8385 78.0434 82.6164 73.8352C81.5038 76.1855 79.9949 78.3456 78.1183 80.2177C76.2155 82.1089 74.05 83.6005 71.7174 84.6948ZM84.0083 48.907C81.8667 48.907 79.8517 48.0743 78.3356 46.5661C75.208 43.4498 75.208 38.3804 78.3356 35.2641C81.3701 32.2429 86.6537 32.2477 89.6835 35.2641C91.1995 36.7723 92.0328 38.7801 92.0328 40.9139C92.0328 43.0478 91.1972 45.0556 89.6835 46.5638C88.1674 48.0743 86.1523 48.907 84.0083 48.907ZM77.7292 41.423C77.8462 42.8575 78.455 44.2586 79.5532 45.3529C80.6515 46.4472 82.0601 47.0538 83.4974 47.168C83.3756 45.6955 82.7334 44.2967 81.671 43.2405C80.6133 42.1866 79.2094 41.5443 77.7292 41.423ZM77.8247 39.7126C79.7228 39.8577 81.5277 40.676 82.8886 42.032C84.2471 43.388 85.0684 45.184 85.214 47.0776C86.4078 46.8468 87.5466 46.2735 88.4658 45.3553C89.3564 44.468 89.9485 43.3618 90.192 42.1581C88.2772 42.0201 86.4603 41.2018 85.0899 39.8363C83.7195 38.4708 82.8981 36.6629 82.7597 34.755C81.5516 34.9953 80.4414 35.5852 79.5508 36.4726C78.6317 37.3932 78.0563 38.5255 77.8247 39.7126ZM84.4763 34.6503C84.5885 36.1419 85.2308 37.5573 86.3075 38.6254C87.3771 39.6936 88.8001 40.3359 90.2971 40.4477C90.1872 38.9466 89.5474 37.5478 88.4658 36.4726C87.3843 35.3973 85.9852 34.7598 84.4763 34.6503Z" fill="white"/>
<path d="M55.1385 65.7684C54.9188 65.7684 54.6992 65.6852 54.5321 65.5187C54.1954 65.1832 54.1954 64.6432 54.5321 64.3078L72.6533 46.2521C72.99 45.9167 73.5343 45.9167 73.8709 46.2521C74.2076 46.5876 74.2076 47.1276 73.8709 47.463L55.7473 65.5187C55.5778 65.6852 55.3581 65.7684 55.1385 65.7684ZM69.0864 61.3842C68.8667 61.3842 68.6471 61.3009 68.4799 61.1344C68.1433 60.799 68.1433 60.259 68.4799 59.9235L77.426 51.0099C77.7626 50.6745 78.307 50.6745 78.6436 51.0099C78.9802 51.3453 78.9802 51.8853 78.6436 52.2207L69.6952 61.1344C69.5281 61.3009 69.3084 61.3842 69.0864 61.3842ZM99.1739 106C98.6152 106 98.0995 105.798 97.727 105.427L83.3494 91.1011C78.572 86.341 73.2215 86.3362 67.5536 86.3338H66.9424C58.364 88.2845 48.5752 85.6297 41.4532 78.5359C30.8789 67.9974 30.1221 51.607 39.7653 41.9987C47.4125 34.372 59.904 33.0946 70.1369 38.8895L69.2893 40.3787C59.5721 34.8763 48.1956 36.0134 40.9757 43.2072C32.0035 52.147 32.7603 67.4503 42.6637 77.3203C52.5719 87.1902 67.9332 87.9443 76.9007 79.0021C82.306 73.614 84.3927 65.6519 82.4827 57.7017L84.1564 57.302C85.1209 61.3271 85.1305 65.3593 84.259 69.1036V69.6864C84.2614 75.3315 84.2662 80.6626 89.0436 85.4227L103.419 99.7459C104.29 100.619 104.169 102.106 103.142 103.131L101.117 105.146C100.656 105.605 100.072 105.9 99.4723 105.979C99.3744 105.993 99.2717 106 99.1739 106ZM85.2522 90.5777L98.9399 104.213C99.076 104.354 99.532 104.306 99.8997 103.935L101.924 101.92C102.304 101.544 102.342 101.1 102.201 100.959L88.5207 87.3258L85.2522 90.5777ZM71.7174 84.6948C75.9433 84.916 80.1573 85.8033 84.0298 89.3764L87.3127 86.1031C83.729 82.2445 82.8385 78.0434 82.6164 73.8352C81.5038 76.1855 79.9949 78.3456 78.1183 80.2177C76.2155 82.1089 74.05 83.6005 71.7174 84.6948ZM84.0083 48.907C81.8667 48.907 79.8517 48.0743 78.3356 46.5661C75.208 43.4498 75.208 38.3804 78.3356 35.2641C81.3701 32.2429 86.6537 32.2477 89.6835 35.2641C91.1995 36.7723 92.0328 38.7801 92.0328 40.9139C92.0328 43.0478 91.1972 45.0556 89.6835 46.5638C88.1674 48.0743 86.1523 48.907 84.0083 48.907ZM77.7292 41.423C77.8462 42.8575 78.455 44.2586 79.5532 45.3529C80.6515 46.4472 82.0601 47.0538 83.4974 47.168C83.3756 45.6955 82.7334 44.2967 81.671 43.2405C80.6133 42.1866 79.2094 41.5443 77.7292 41.423ZM77.8247 39.7126C79.7228 39.8577 81.5277 40.676 82.8886 42.032C84.2471 43.388 85.0684 45.184 85.214 47.0776C86.4078 46.8468 87.5466 46.2735 88.4658 45.3553C89.3564 44.468 89.9485 43.3618 90.192 42.1581C88.2772 42.0201 86.4603 41.2018 85.0899 39.8363C83.7195 38.4708 82.8981 36.6629 82.7597 34.755C81.5516 34.9953 80.4414 35.5852 79.5508 36.4726C78.6317 37.3932 78.0563 38.5255 77.8247 39.7126ZM84.4763 34.6503C84.5885 36.1419 85.2308 37.5573 86.3075 38.6254C87.3771 39.6936 88.8001 40.3359 90.2971 40.4477C90.1872 38.9466 89.5474 37.5478 88.4658 36.4726C87.3843 35.3973 85.9852 34.7598 84.4763 34.6503Z" stroke="white" stroke-width="2"/>
</g>
</g>
<defs>
<filter id="filter0_d_2_22" x="19.9993" y="32" width="85.0027" height="87" filterUnits="userSpaceOnUse" color-interpolation-filters="sRGB">
<feFlood flood-opacity="0" result="BackgroundImageFix"/>
<feColorMatrix in="SourceAlpha" type="matrix" values="0 0 0 0 0 0 0 0 0 0 0 0 0 0 0 0 0 0 127 0" result="hardAlpha"/>
<feOffset dx="-6" dy="6"/>
<feGaussianBlur stdDeviation="3"/>
<feComposite in2="hardAlpha" operator="out"/>
<feColorMatrix type="matrix" values="0 0 0 0 0 0 0 0 0 0 0 0 0 0 0 0 0 0 0.63 0"/>
<feBlend mode="normal" in2="BackgroundImageFix" result="effect1_dropShadow_2_22"/>
<feBlend mode="normal" in="SourceGraphic" in2="effect1_dropShadow_2_22" result="shape"/>
</filter>
</defs>
</svg>
