<svg width="18" height="18" viewBox="0 0 18 18" fill="none" xmlns="http://www.w3.org/2000/svg">
<path id="Icon" d="M13.4444 17C12.5015 17 11.5971 16.6254 10.9303 15.9586C10.2635 15.2918 9.88889 14.3874 9.88889 13.4444V2.77778C9.88889 2.30628 10.0762 1.8541 10.4096 1.5207C10.743 1.1873 11.1952 1 11.6667 1H15.2222C15.6937 1 16.1459 1.1873 16.4793 1.5207C16.8127 1.8541 17 2.30628 17 2.77778V13.4444C17 14.3874 16.6254 15.2918 15.9586 15.9586C15.2918 16.6254 14.3874 17 13.4444 17ZM13.4444 17H2.77778C2.30628 17 1.8541 16.8127 1.5207 16.4793C1.1873 16.1459 1 15.6937 1 15.2222V11.6667C1 11.1952 1.1873 10.743 1.5207 10.4096C1.8541 10.0762 2.30628 9.88889 2.77778 9.88889H4.82222M9.88889 4.86667L8.11111 3.08889C7.77773 2.75561 7.32563 2.56838 6.85422 2.56838C6.38282 2.56838 5.93072 2.75561 5.59733 3.08889L3.08356 5.60267C2.75027 5.93605 2.56305 6.38815 2.56305 6.85956C2.56305 7.33096 2.75027 7.78306 3.08356 8.11644L11.0836 16.1164M13.4444 13.4444V13.4533" stroke="black" stroke-linecap="round" stroke-linejoin="round"/>
</svg>
