<svg width="28" height="31" viewBox="0 0 28 31" fill="none" xmlns="http://www.w3.org/2000/svg">
<g id="Group 63">
<path id="Vector" d="M20.6747 3.09082V12.1551C20.6747 12.9878 20.4892 13.7846 20.242 14.5195V14.5201C19.2529 17.0223 16.8517 18.8001 14.0151 18.8001C11.1829 18.8001 8.76205 17.0279 7.80702 14.5318C7.80519 14.5281 7.80011 14.5238 7.79887 14.5201C7.6233 14.0608 7.49808 13.5768 7.42948 13.0755C7.40905 12.9253 7.40214 12.7738 7.39164 12.6206C7.38113 12.4667 7.38473 12.3115 7.38473 12.1551V3.09082H20.6747Z" fill="#ECF0F1"/>
<path id="Vector_2" d="M15.5447 18.8843H12.454V23.3967H15.5447V18.8843Z" fill="#F8C660"/>
<path id="Vector_3" d="M18.3264 26.4872H9.67253V25.2721C9.67253 24.2363 10.5123 23.3965 11.5482 23.3965H16.4508C17.4866 23.3965 18.3264 24.2362 18.3264 25.2721V26.4872Z" fill="#ECF0F1"/>
<g id="Group">
<path id="Vector_4" d="M20.7989 29.5775H7.19994V28.3625C7.19994 27.3266 8.03968 26.4868 9.07559 26.4868H18.9233C19.9591 26.4868 20.7989 27.3266 20.7989 28.3625V29.5775Z" fill="#F8C660"/>
<path id="Vector_5" d="M20.6443 0.564453H7.35445V3.03697H20.6443V0.564453Z" fill="#F8C660"/>
<path id="Vector_6" d="M7.80349 14.5197C5.96332 14.2693 4.30716 13.415 3.05605 12.1646C1.55339 10.6619 0.620491 8.61274 0.620491 6.3201C0.620491 4.86314 1.79792 3.7085 3.25489 3.7085H7.38486V6.18101H3.25548C3.16397 6.18101 3.1106 6.2286 3.1106 6.3201C3.1106 8.98856 4.91222 11.2176 7.38474 11.9068V12.1547C7.3848 12.9873 7.52289 13.7847 7.80349 14.5197Z" fill="#F8C660"/>
<path id="Vector_7" d="M27.3819 6.3201C27.3819 8.6128 26.4528 10.6752 24.9502 12.1778C23.7003 13.4271 22.0636 14.2735 20.2258 14.5256C20.5065 13.7907 20.6747 12.9872 20.6747 12.1546V11.9099C23.0854 11.225 24.9249 8.99287 24.9249 6.3201C24.9249 6.2286 24.8352 6.18101 24.7437 6.18101H20.6747V3.7085H24.7437C26.2006 3.7085 27.3819 4.8632 27.3819 6.3201Z" fill="#F8C660"/>
<path id="Vector_8" d="M17.4726 10.7441C17.4726 11.3072 16.6301 11.6493 16.3671 12.104C16.0958 12.573 16.2114 13.4708 15.7424 13.7423C15.2877 14.0053 14.5741 13.464 14.0111 13.464C13.4481 13.464 12.7345 14.0054 12.2799 13.7423C11.8108 13.471 11.9265 12.573 11.6551 12.104C11.3921 11.6493 10.5496 11.3072 10.5496 10.7441C10.5496 10.181 11.3921 9.83897 11.6551 9.38426C11.9264 8.91522 11.8108 8.01739 12.2798 7.74594C12.7344 7.48287 13.4481 8.02424 14.0111 8.02424C14.5741 8.02424 15.2877 7.48287 15.7423 7.74594C16.2114 8.01727 16.0957 8.91522 16.367 9.38426C16.6301 9.83891 17.4726 10.181 17.4726 10.7441Z" fill="#F8C660"/>
</g>
<g id="Group_2">
<path id="Vector_9" d="M20.6568 15.0783C22.4558 14.7586 24.0851 13.909 25.3871 12.6075C27.072 10.9226 28 8.69983 28 6.32041C28 4.53095 26.5393 3.09063 24.7437 3.09063H21.2928C21.2928 3.02882 21.2928 2.97982 21.2928 2.94151V0.564745C21.2928 0.223336 20.9857 0 20.6444 0H7.35456C7.01321 0 6.76673 0.223336 6.76673 0.564745V3.03726C6.76673 3.04488 6.73733 3.02888 6.73757 3.09069H3.25487C1.4601 3.09069 0 4.53048 0 6.31988C0 8.69469 0.928412 10.9227 2.61432 12.6087C3.90174 13.8954 5.57478 14.7612 7.35798 15.0786C7.89238 16.2979 8.74612 17.3399 9.84497 18.1099C10.4605 18.5413 11.1553 18.8681 11.8353 19.0885V22.8092H11.5481C10.173 22.8092 9.05364 23.897 9.05364 25.2721V25.8695C7.69373 25.8811 6.58112 26.9948 6.58112 28.3628V29.5778C6.58112 29.9192 6.85847 30.2269 7.19988 30.2269H20.7989C21.1402 30.2269 21.4164 29.9192 21.4164 29.5778V28.3628C21.4164 26.9948 20.3037 25.8811 18.9439 25.8695V25.2721C18.9439 23.897 17.8258 22.8092 16.4507 22.8092H16.1623V19.0914C18.1403 18.4794 19.7725 17.0416 20.6568 15.0783ZM3.74027 6.7995H6.76667V11.0229C5.0977 10.247 3.90794 8.59209 3.74027 6.7995ZM21.2928 6.7995H24.2766C24.1092 8.59209 22.9618 10.2458 21.2928 11.0243V6.7995ZM24.7437 4.32692C25.8577 4.32692 26.7638 5.21271 26.7638 6.32041C26.7638 8.36958 25.9645 10.2897 24.5132 11.741C23.5542 12.6995 22.3894 13.3696 21.1033 13.717C21.202 13.2725 21.2581 12.819 21.2712 12.3637C23.803 11.4489 25.5337 9.03658 25.5337 6.32136C25.5337 5.89529 25.1793 5.56315 24.7437 5.56315H21.2928V4.32692H24.7437ZM8.0029 1.23629H20.0565V2.47258H8.0029V1.23629ZM3.48842 11.7278C2.03612 10.2755 1.23623 8.36503 1.23623 6.32041C1.23623 5.21271 2.14179 4.32692 3.25487 4.32692H6.76667V5.56321H3.25546C2.82231 5.56321 2.48308 5.8872 2.48308 6.32041C2.48308 7.75501 2.9444 9.10311 3.81714 10.2337C4.56696 11.2051 5.59615 11.9468 6.75061 12.3629C6.75091 12.3743 6.76337 13.1103 6.91137 13.7127C5.62679 13.3628 4.43637 12.6753 3.48842 11.7278ZM8.37967 14.3108C8.37519 14.2991 8.37967 14.2874 8.37448 14.276C8.21974 13.866 8.0029 12.8341 8.0029 12.155V3.70881H20.0565V12.155C20.0565 12.8093 19.9175 13.5145 19.6507 14.3107C18.7126 16.6629 16.4981 18.1818 14.0104 18.1818C11.5312 18.1818 9.26558 16.6262 8.37967 14.3108ZM20.1802 28.3628V28.9906H7.81747V28.3628C7.81747 27.6693 8.38221 27.1362 9.0756 27.1362H18.9233C19.6167 27.1361 20.1802 27.6693 20.1802 28.3628ZM17.7077 25.2721V25.8999H10.29V25.2721C10.29 24.5786 10.8547 24.0455 11.5481 24.0455H16.4507C17.1441 24.0455 17.7077 24.5786 17.7077 25.2721ZM14.926 22.8092H13.0716V19.3576C13.3807 19.397 13.6907 19.4181 14.0052 19.4181C14.3163 19.4181 14.617 19.3973 14.926 19.3589V22.8092Z" fill="#231F20"/>
<path id="Vector_10" d="M14.5391 14.225C14.814 14.3219 15.1305 14.4335 15.4542 14.4335C15.6533 14.4335 15.8552 14.3913 16.0518 14.2775C16.5809 13.9715 16.6875 13.386 16.7733 12.9153C16.8081 12.7244 16.8475 12.5081 16.9021 12.4137C16.9507 12.3297 17.1194 12.1885 17.255 12.075C17.6077 11.7796 18.0908 11.3752 18.0908 10.7443C18.0908 10.1134 17.6078 9.70897 17.255 9.4136C17.1195 9.30014 16.9507 9.1588 16.9022 9.07491C16.8475 8.98045 16.8081 8.76414 16.7733 8.57322C16.6875 8.10269 16.5809 7.51711 16.052 7.21118C15.5357 6.91246 14.9832 7.1071 14.5392 7.26361C14.3494 7.33055 14.1342 7.40642 14.0111 7.40642C13.888 7.40642 13.6728 7.33055 13.4829 7.26361C13.0391 7.10722 12.4867 6.91234 11.9702 7.21118C11.4412 7.51723 11.3345 8.10275 11.2488 8.57339C11.214 8.76426 11.1746 8.98057 11.12 9.07497C11.0714 9.15892 10.9027 9.3002 10.7671 9.41372C10.4144 9.70908 9.93127 10.1135 9.93127 10.7444C9.93127 11.3753 10.4143 11.7798 10.7671 12.0751C10.9026 12.1886 11.0714 12.33 11.1199 12.4138C11.1745 12.5083 11.214 12.7246 11.2487 12.9155C11.3345 13.386 11.4412 13.9716 11.9702 14.2776C12.4864 14.5762 13.0389 14.3816 13.4829 14.2251C13.6727 14.1582 13.8879 14.0823 14.011 14.0823C14.1341 14.0823 14.3493 14.1582 14.5391 14.225ZM13.0719 13.0591C12.9286 13.1096 12.6983 13.1908 12.591 13.1968C12.5392 13.1006 12.4934 12.8496 12.465 12.6937C12.4122 12.4038 12.3522 12.0751 12.19 11.7947C12.0323 11.522 11.7926 11.3213 11.5607 11.1272C11.4293 11.0172 11.2135 10.8364 11.1709 10.7444C11.2134 10.6524 11.4293 10.4716 11.5607 10.3616C11.7925 10.1675 12.0323 9.9669 12.1901 9.69415C12.3522 9.41372 12.4122 9.08507 12.465 8.79514C12.4934 8.63928 12.5391 8.3882 12.591 8.29208C12.6982 8.29805 12.9286 8.37922 13.0719 8.42976C13.3553 8.52965 13.6764 8.64282 14.011 8.64282C14.3456 8.64282 14.6667 8.52965 14.9501 8.42976C15.0934 8.37928 15.3237 8.29805 15.431 8.29208C15.4828 8.38826 15.5286 8.63928 15.557 8.79514C15.6098 9.08512 15.6698 9.41378 15.832 9.69421C15.9897 9.96684 16.2294 10.1676 16.4613 10.3616C16.5927 10.4717 16.8085 10.6524 16.8511 10.7444C16.8086 10.8364 16.5927 11.0172 16.4613 11.1272C16.2295 11.3213 15.9897 11.5219 15.8319 11.7947C15.6698 12.0751 15.6098 12.4038 15.557 12.6937C15.5286 12.8496 15.4829 13.1007 15.431 13.1968C15.3238 13.1908 15.0934 13.1097 14.9501 13.0591C14.6667 12.9592 14.3456 12.8461 14.011 12.8461C13.6764 12.8461 13.3553 12.9592 13.0719 13.0591Z" fill="#231F20"/>
</g>
</g>
</svg>
