<svg width="14" height="20" viewBox="0 0 14 20" fill="none" xmlns="http://www.w3.org/2000/svg">
<path id="Icon" d="M2.02128 19H11.9787C12.5428 19 13 18.5395 13 17.9714V15.2237C13 15.0042 12.9302 14.7904 12.8009 14.6136L9.85578 10.5881C9.59813 10.2359 9.58984 9.75815 9.8351 9.39712L12.5663 5.3769C12.6825 5.20582 12.7447 5.00337 12.7447 4.79608V2.02857C12.7447 1.46051 12.2874 1 11.7234 1H2.02128C1.45724 1 1 1.46051 1 2.02857V4.77626C1 4.99584 1.06977 5.20964 1.19909 5.38641L4.12807 9.38985C4.39353 9.75269 4.39353 10.2473 4.12807 10.6101L1.19909 14.6136C1.06977 14.7904 1 15.0042 1 15.2237V17.9714C1 18.5395 1.45724 19 2.02128 19Z" stroke="black" stroke-linecap="round" stroke-linejoin="round"/>
</svg>
